<svg width="24" height="24" viewBox="0 0 24 24" fill="none" xmlns="http://www.w3.org/2000/svg">
<path fill-rule="evenodd" clip-rule="evenodd" d="M12.6333 3C9.09836 3 6.26667 5.80436 6.26667 9.22222C6.26667 9.37048 6.2337 9.51689 6.17015 9.65085L4.58125 13H5.26667C5.81895 13 6.26667 13.4477 6.26667 14V16.1247C6.26667 16.3965 6.37144 16.5791 6.55262 16.7191C6.75712 16.8772 7.09467 17 7.52943 17H10C10.5519 17 10.9995 17.4471 11 17.999L11.0029 21H13C13.5523 21 14 21.4477 14 22C14 22.5523 13.5523 23 13 23H10.0039C9.452 23 9.00445 22.5529 9.00391 22.001L9.00098 19H7.52943C6.74563 19 5.9518 18.7825 5.32956 18.3016C4.684 17.8026 4.26667 17.0475 4.26667 16.1247V15H3C2.6571 15 2.33811 14.8243 2.15483 14.5345C1.97155 14.2447 1.94954 13.8812 2.09652 13.5714L4.26993 8.99017C4.39508 4.53901 8.10965 1 12.6333 1C17.2354 1 21 4.66264 21 9.22222C21 11.3136 20.4221 13.3236 19 14.8463V19.0039C19 19.2872 18.8822 19.543 18.6929 19.725L18.3068 20.1071C18.1973 20.2166 18.1428 20.3602 18.1431 20.5038C18.1428 20.6474 18.1973 20.7909 18.3068 20.9005L18.707 21.2966C18.888 21.4776 18.9998 21.7275 18.9998 22.0037C18.9998 22.556 18.5522 23.0037 17.9999 23.0037C17.4477 23.0037 17 22.556 17 22.0037C17 21.7275 17.112 21.4776 17.293 21.2966L17.6932 20.9005C17.8027 20.7909 17.8572 20.6474 17.8569 20.5038C17.8572 20.3602 17.8027 20.2166 17.6932 20.1071L17.307 19.7248C17.16 19.5835 17.0561 19.3977 17.0171 19.189C17.0059 19.129 17 19.0671 17 19.0039V19.0019V14.4338C17 14.158 17.1139 13.8945 17.3148 13.7055C18.4567 12.6311 19 11.0791 19 9.22222C19 5.80436 16.1683 3 12.6333 3ZM14.2357 13.2062C14.0977 13.4208 13.8601 13.5505 13.605 13.5505H11.9382C11.6831 13.5505 11.4455 13.4208 11.3074 13.2062L10.6467 12.1791L10.6452 12.1776C10.6402 12.1732 10.6299 12.1654 10.6131 12.1561C10.5927 12.1449 10.5782 12.1403 10.5709 12.1386L10.5686 12.1381L9.65584 12.2312C9.36606 12.2608 9.08536 12.1199 8.93592 11.8698L8.10255 10.4755C7.94651 10.2144 7.96362 9.88486 8.14587 9.64133L8.76263 8.81717C8.73201 8.78521 8.70427 8.7506 8.67974 8.71372L8.12191 7.87525C7.96177 7.63454 7.95424 7.32322 8.10256 7.07506L8.93592 5.68067C9.08536 5.43063 9.36606 5.28973 9.65585 5.3193L10.5686 5.41245L10.5709 5.41196C10.5782 5.41024 10.5927 5.40557 10.6131 5.39439C10.6299 5.38514 10.6402 5.3773 10.6452 5.37289L10.6467 5.37145L11.3074 4.34427C11.4455 4.1297 11.6831 4 11.9382 4H13.605C13.8664 4 14.109 4.13616 14.2452 4.35936L14.7864 5.24636C14.7871 5.24726 14.7898 5.25065 14.7958 5.25611C14.8053 5.26467 14.821 5.27659 14.8444 5.2897C14.8866 5.31331 14.908 5.31529 14.9095 5.31543H15.9635C16.2274 5.31543 16.4719 5.45414 16.6073 5.68067L17.4406 7.07506C17.5967 7.33616 17.5796 7.66566 17.3973 7.90919L16.7491 8.77539L16.7418 8.76559V8.7753V8.78519L16.7491 8.77539L17.3973 9.64123C17.5796 9.88477 17.5967 10.2143 17.4406 10.4754L16.6073 11.8698C16.4578 12.1199 16.1771 12.2608 15.8874 12.2312L14.9746 12.1381L14.976 12.1378C14.976 12.1378 14.974 12.138 14.9695 12.1375L14.9746 12.1381L14.9723 12.1386C14.965 12.1403 14.9505 12.1449 14.9301 12.1561C14.9132 12.1654 14.903 12.1732 14.898 12.1776L14.8964 12.1791L14.8992 12.1748C14.8967 12.1786 14.8951 12.1804 14.8951 12.1804L14.8964 12.1791L14.2357 13.2062ZM12.7716 11.2455C11.4093 11.2455 10.3046 10.1428 10.3014 8.78125V8.77526V8.76957C10.3045 7.40795 11.4092 6.30509 12.7716 6.30509C14.1358 6.30509 15.2418 7.41104 15.2418 8.7753C15.2418 10.1396 14.1358 11.2455 12.7716 11.2455Z" fill="#FF5640"/>
</svg>
