<svg width="24" height="24" viewBox="0 0 24 24" fill="none" xmlns="http://www.w3.org/2000/svg">
<path fill-rule="evenodd" clip-rule="evenodd" d="M9 1C8.44772 1 8 1.44772 8 2V3H5C4.44772 3 4 3.44772 4 4V17C4 17.5523 4.44772 18 5 18C5.55228 18 6 17.5523 6 17V5H8V6C8 6.55228 8.44772 7 9 7H15C15.5523 7 16 6.55228 16 6V5H18V21H8C7.73199 21 7.48861 21.1054 7.30907 21.2771C7.30355 21.2823 7.2981 21.2876 7.29271 21.293L6.89655 21.6932C6.78702 21.8027 6.64344 21.8572 6.49987 21.8569C6.35629 21.8572 6.21272 21.8027 6.10318 21.6932L5.70703 21.293C5.52606 21.112 5.27613 21 4.99991 21C4.44766 21 4 21.4477 4 21.9999C4 22.5522 4.44766 22.9998 4.99991 22.9998C5.27613 22.9998 5.52606 22.888 5.70703 22.707L6.10318 22.3068C6.21272 22.1973 6.35629 22.1428 6.49987 22.1431C6.64344 22.1428 6.78702 22.1973 6.89655 22.3068L7.29271 22.707L7.30761 22.7215C7.48729 22.894 7.73127 23 8 23H19C19.5523 23 20 22.5523 20 22V4C20 3.44772 19.5523 3 19 3H16V2C16 1.44772 15.5523 1 15 1H9ZM14 5H10V3H14V5Z" fill="#FF5640"/>
<path d="M9 14C9.55228 14 10 14.4477 10 15V18C10 18.5523 9.55228 19 9 19C8.44772 19 8 18.5523 8 18V15C8 14.4477 8.44772 14 9 14Z" fill="#FF5640"/>
<path d="M13 12C13 11.4477 12.5523 11 12 11C11.4477 11 11 11.4477 11 12V18C11 18.5523 11.4477 19 12 19C12.5523 19 13 18.5523 13 18V12Z" fill="#FF5640"/>
<path d="M15 8C15.5523 8 16 8.44772 16 9V18C16 18.5523 15.5523 19 15 19C14.4477 19 14 18.5523 14 18V9C14 8.44772 14.4477 8 15 8Z" fill="#FF5640"/>
</svg>
