<svg width="24" height="24" viewBox="0 0 24 24" fill="none" xmlns="http://www.w3.org/2000/svg">
<path fill-rule="evenodd" clip-rule="evenodd" d="M18.9794 1.79813L18.9827 1.81415L18.9915 1.85749C18.9991 1.89522 19.0101 1.95038 19.0241 2.02135C19.0521 2.16327 19.0918 2.36857 19.1394 2.62438C19.2345 3.13572 19.3613 3.85049 19.4881 4.66555C19.6003 5.38619 19.7142 6.19593 19.806 7.0188C19.8688 7.00647 19.9336 7 20 7C21.6569 7 23 8.34315 23 10C23 11.6569 21.6569 13 20 13C19.9336 13 19.8688 12.9935 19.806 12.9812C19.7142 13.8041 19.6003 14.6138 19.4881 15.3345C19.3613 16.1495 19.2345 16.8643 19.1394 17.3756C19.0918 17.6315 19.0521 17.8368 19.0241 17.9787C19.0101 18.0496 18.9991 18.1048 18.9915 18.1425L18.9827 18.1859L18.9794 18.2017L18 18C18.9794 18.2019 18.9794 18.2017 18.9794 18.2017C18.9103 18.5373 18.6741 18.8142 18.3536 18.9354C18.0332 19.0565 17.6731 19.0052 17.3993 18.7995L17.3982 18.7986L17.3927 18.7945L17.3685 18.7766C17.3466 18.7603 17.3133 18.7358 17.2695 18.7038C17.1819 18.6399 17.0522 18.5463 16.8871 18.4301C16.5567 18.1975 16.0863 17.8755 15.5294 17.5201C14.4051 16.8027 12.9705 15.9765 11.6396 15.4622C9.8691 14.7781 7.48891 14.1691 5.49088 13.7225L8.04315 18.8499C8.09011 18.9442 8.12078 19.0424 8.13624 19.1413C8.17198 19.3159 8.15946 19.4941 8.10459 19.6582L7.92328 20.1914C7.87415 20.3383 7.88947 20.4911 7.95387 20.6194C8.01764 20.748 8.13049 20.8522 8.2774 20.9013L8.81236 21.0772C9.05508 21.1583 9.2667 21.3321 9.38999 21.5793C9.63649 22.0735 9.43572 22.6739 8.94153 22.9204C8.44734 23.1669 7.84694 22.9661 7.60044 22.4719C7.47715 22.2247 7.46582 21.9511 7.54698 21.7084L7.72829 21.1752C7.77741 21.0283 7.7621 20.8755 7.6977 20.7472C7.63393 20.6185 7.52107 20.5144 7.37416 20.4653L6.83921 20.2894C6.59649 20.2082 6.38471 20.0346 6.26142 19.7874C6.2369 19.7382 6.2168 19.688 6.20098 19.6372L2.99801 13.2025L2.84546 13.1731C2.52718 13.112 2.27206 13.0648 2.09707 13.0331C2.00958 13.0172 1.94215 13.0052 1.89691 12.9972L1.84596 12.9882L1.83056 12.9856C1.35102 12.9028 1 12.4867 1 12V8.00001C1 7.51337 1.35032 7.09739 1.82986 7.01459L1.84596 7.01179L1.89691 7.00283C1.94215 6.99483 2.00958 6.98281 2.09707 6.96694C2.27206 6.93519 2.52718 6.88806 2.84546 6.82692C3.4823 6.70458 4.37039 6.52646 5.37416 6.30355C7.39562 5.85465 9.8345 5.2353 11.6396 4.53781C12.9705 4.02353 14.4051 3.19736 15.5294 2.47991C16.0863 2.12453 16.5567 1.80253 16.8871 1.56993C17.0522 1.45374 17.1819 1.36014 17.2695 1.29619C17.3133 1.26422 17.3466 1.23969 17.3685 1.22347L17.3927 1.20549L17.3982 1.2014L17.3991 1.20067C17.673 0.994885 18.0332 0.943488 18.3536 1.06463C18.6741 1.18579 18.9102 1.46258 18.9794 1.79813ZM20 10C20 9.67975 19.9903 9.34423 19.9727 8.99963L19.9838 8.99987L20 9C20.5523 9 21 9.44771 21 10C21 10.5523 20.5523 11 20 11C19.9909 11 19.9818 11.0001 19.9727 11.0004C19.9903 10.6558 20 10.3203 20 10ZM3 8.8335V11.1665C3.07044 11.1799 3.14477 11.194 3.22275 11.209C3.87381 11.3341 4.78119 11.5161 5.80773 11.744L6 11.787V8.21307L5.80773 8.25599C4.78119 8.48395 3.87381 8.66594 3.22275 8.79101C3.14477 8.80599 3.07044 8.82016 3 8.8335ZM8 7.73677C9.50127 7.35659 11.0649 6.904 12.3604 6.40338C13.8756 5.81791 15.4411 4.90878 16.6052 4.16588C16.8559 4.00594 17.0899 3.85244 17.303 3.70987C17.3686 4.08494 17.4402 4.51268 17.5119 4.97309C17.7605 6.57034 18 8.50694 18 10C18 11.4931 17.7605 13.4297 17.5119 15.0269C17.4402 15.4873 17.3686 15.9151 17.303 16.2902C17.0899 16.1476 16.8559 15.9941 16.6052 15.8341C15.4411 15.0912 13.8756 14.1821 12.3604 13.5966C11.0649 13.096 9.50127 12.6434 8 12.2633V7.73677Z" fill="#FF5640"/>
</svg>
