<svg width="24" height="24" viewBox="0 0 24 24" fill="none" xmlns="http://www.w3.org/2000/svg">
<path d="M0.999945 3C0.999945 2.44772 1.44766 2 1.99995 2H21.9999C22.5522 2 22.9999 2.44772 22.9999 3V19C22.9999 19.5523 22.5522 20 21.9999 20H1.99995C1.44766 20 0.999945 19.5523 0.999945 19V16.0116L0.999878 15.9998C0.999878 15.7236 1.1117 15.4737 1.29267 15.2927L1.69288 14.8966C1.80242 14.787 1.85692 14.6434 1.85657 14.4999C1.85692 14.3563 1.80242 14.2127 1.69288 14.1032L1.29267 13.707C1.1117 13.5261 0.999878 13.2761 0.999878 12.9999C0.999878 12.4477 1.44754 12 1.99979 12C2.55204 12 2.9997 12.4477 2.9997 12.9999C2.9997 13.2761 2.8877 13.5261 2.70673 13.707L2.30652 14.1032C2.19699 14.2127 2.14248 14.3563 2.14284 14.4999C2.14248 14.6434 2.19699 14.787 2.30652 14.8966L2.69294 15.2791C2.88218 15.461 2.99995 15.7167 2.99995 16V18H20.9999V4H2.99995V8C2.99995 8.55228 2.55223 9 1.99995 9C1.44766 9 0.999945 8.55228 0.999945 8V3Z" fill="#FF5640"/>
<path d="M6 21C5.44771 21 5 21.4477 5 22C5 22.5523 5.44771 23 6 23H18C18.5522 23 19 22.5523 19 22C19 21.4477 18.5522 21 18 21H6Z" fill="#FF5640"/>
<path fill-rule="evenodd" clip-rule="evenodd" d="M13.8762 16.541C13.6922 16.8271 13.3754 17 13.0352 17H10.9649C10.6247 17 10.3079 16.8271 10.1238 16.541L9.30876 15.2739C9.30435 15.2706 9.29692 15.2656 9.2859 15.2595C9.27322 15.2526 9.26368 15.2486 9.25768 15.2465L8.13669 15.3609C7.75031 15.4003 7.37604 15.2124 7.17679 14.879L6.14162 13.147C5.93356 12.7989 5.95637 12.3595 6.19937 12.0348L6.93178 11.0561C6.90613 11.026 6.88228 10.9944 6.86034 10.9614L6.16743 9.91993C5.95391 9.59899 5.94387 9.18389 6.14163 8.853L7.17679 7.12095C7.37604 6.78757 7.75031 6.59971 8.13669 6.63913L9.25768 6.75353C9.26369 6.75139 9.27322 6.74743 9.28591 6.74048C9.29692 6.73444 9.30435 6.72941 9.30876 6.72614L10.1238 5.45903C10.3079 5.17293 10.6247 5 10.9649 5H13.0352C13.3838 5 13.7073 5.18155 13.8888 5.47914L14.5579 6.57565L14.5604 6.57799C14.5679 6.58475 14.583 6.59663 14.6082 6.61071C14.6328 6.6245 14.6498 6.63071 14.6584 6.6332L14.6612 6.63397H15.9649C16.3167 6.63397 16.6427 6.81891 16.8232 7.12096L17.8584 8.85301C18.0665 9.20115 18.0437 9.64047 17.8007 9.96518L17.0262 11.0002L17.8006 12.0347C18.0437 12.3594 18.0665 12.7988 17.8584 13.147L16.8233 14.879C16.624 15.2124 16.2497 15.4003 15.8634 15.3609L14.7424 15.2465C14.7364 15.2486 14.7268 15.2526 14.7141 15.2595C14.7031 15.2656 14.6957 15.2706 14.6913 15.2739L13.8762 16.541ZM15 11.003C14.9984 12.6585 13.6559 14 12 14C10.3432 14 9.00001 12.6569 9.00001 11C9.00001 9.34315 10.3432 8 12 8C13.6569 8 15 9.34315 15 11V11.003Z" fill="#FF5640"/>
</svg>
