<svg width="24" height="24" viewBox="0 0 24 24" fill="none" xmlns="http://www.w3.org/2000/svg">
<path fill-rule="evenodd" clip-rule="evenodd" d="M5.1032 2.30652L4.72722 2.68635C4.5449 2.87944 4.28653 2.99995 4 2.99995H3V4.99995H21V2.99995H12C11.4477 2.99995 11 2.55223 11 1.99995C11 1.44766 11.4477 0.999946 12 0.999946H22C22.5523 0.999946 23 1.44766 23 1.99995V5.99995C23 6.55223 22.5523 6.99995 22 6.99995H20V8.99995H22C22.5523 8.99995 23 9.44766 23 9.99995V13.9999C23 14.5522 22.5523 14.9999 22 14.9999H20V16.9999H21C21.5523 16.9999 22 17.4477 22 17.9999V21.9999C22 22.5522 21.5523 22.9999 21 22.9999H17C16.4477 22.9999 16 22.5522 16 21.9999V17.9999C16 17.4477 16.4477 16.9999 17 16.9999H18V14.9999H16C15.4477 14.9999 15 14.5522 15 13.9999V9.99995C15 9.44766 15.4477 8.99995 16 8.99995H18V6.99995H12V8.99995H13C13.5523 8.99995 14 9.44766 14 9.99995V13.9999C14 14.5522 13.5523 14.9999 13 14.9999H12V16.9999H13C13.5523 16.9999 14 17.4477 14 17.9999V21.9999C14 22.5522 13.5523 22.9999 13 22.9999H9C8.44772 22.9999 8 22.5522 8 21.9999V17.9999C8 17.4477 8.44772 16.9999 9 16.9999H10V14.9999H5V16.9999H6C6.55228 16.9999 7 17.4477 7 17.9999V21.9999C7 22.5522 6.55228 22.9999 6 22.9999H2C1.44772 22.9999 1 22.5522 1 21.9999V17.9999C1 17.4477 1.44772 16.9999 2 16.9999H3V14.9999H2C1.44772 14.9999 1 14.5522 1 13.9999V9.99995C1 9.44766 1.44772 8.99995 2 8.99995H3V6.99995H2C1.44772 6.99995 1 6.55223 1 5.99995V1.99995C1 1.44766 1.44772 0.999946 2 0.999946H3.98817L3.99993 0.999878C4.27615 0.999878 4.52608 1.1117 4.70705 1.29267L5.1032 1.69288C5.21274 1.80242 5.35631 1.85692 5.49989 1.85657C5.64346 1.85692 5.78704 1.80242 5.89657 1.69288L6.29273 1.29267C6.4737 1.1117 6.72363 0.999878 6.99984 0.999878C7.5521 0.999878 7.99976 1.44754 7.99976 1.99979C7.99976 2.55204 7.5521 2.9997 6.99984 2.9997C6.72363 2.9997 6.4737 2.8877 6.29273 2.70673L5.89657 2.30652C5.78704 2.19699 5.64346 2.14248 5.49989 2.14284C5.35631 2.14248 5.21274 2.19699 5.1032 2.30652ZM10 8.99995V6.99995H5V8.99995H10ZM10 18.9999H12V20.9999H10V18.9999ZM12 12.9999H3V10.9999H12V12.9999ZM3 18.9999H5V20.9999H3V18.9999ZM21 10.9999V12.9999H17V10.9999H21ZM18 18.9999H20V20.9999H18V18.9999Z" fill="#FF5640"/>
</svg>
