<svg width="24" height="24" viewBox="0 0 24 24" fill="none" xmlns="http://www.w3.org/2000/svg">
<path d="M7.19983 6.02005C7.38572 6.05778 7.56296 6.14872 7.70712 6.29289L18 16.5857V11C18 10.4477 18.4477 10 19 10C19.5523 10 20 10.4477 20 11V19C20 19.5523 19.5523 20 19 20H11C10.4477 20 9.99997 19.5523 9.99997 19C9.99997 18.4477 10.4477 18 11 18H16.5858L6.29291 7.7071C6.09333 7.50753 5.99575 7.24458 6.00016 6.98304L6.00294 6.43675C6.00294 6.28185 5.93996 6.14179 5.83819 6.04051C5.73691 5.93874 5.59685 5.87576 5.44195 5.87576L4.87883 5.87863C4.6229 5.87863 4.36697 5.78109 4.17166 5.58578C3.78116 5.19528 3.78116 4.56219 4.17166 4.17169C4.56216 3.78119 5.19525 3.78119 5.58575 4.17169C5.78106 4.367 5.87872 4.62281 5.87872 4.87874L5.87585 5.44185C5.87585 5.59676 5.93884 5.73682 6.04061 5.83809C6.14188 5.93986 6.28194 6.00285 6.43685 6.00285L6.99996 5.99998C7.06696 5.99998 7.13394 6.00667 7.19983 6.02005Z" fill="#FF5640"/>
</svg>
