<svg width="24" height="24" viewBox="0 0 24 24" fill="none" xmlns="http://www.w3.org/2000/svg">
<path d="M13 3H11V19C11 19.2762 11.112 19.5263 11.293 19.7073L11.6932 20.1034C11.8025 20.2128 11.857 20.3561 11.8569 20.4994V20.5008C11.857 20.6442 11.8025 20.7875 11.6932 20.8968L11.293 21.293C11.112 21.4739 11 21.7239 11 22.0001C11 22.5523 11.4477 23 11.9999 23C12.5522 23 12.9998 22.5523 12.9998 22.0001C12.9998 21.7239 12.888 21.4739 12.707 21.293L12.3068 20.8968C12.1975 20.7875 12.143 20.6442 12.1431 20.5008V20.4994C12.143 20.3561 12.1975 20.2128 12.3068 20.1034L12.707 19.7073C12.888 19.5263 12.9998 19.2764 12.9998 19.0002L13 3Z" fill="#FF5640"/>
<path fill-rule="evenodd" clip-rule="evenodd" d="M11.2929 1.29291C11.3905 1.19528 11.5033 1.12205 11.6237 1.07324L11.2929 1.29291ZM11.2916 1.29416L5.29289 7.29291C4.90237 7.68343 4.90237 8.3166 5.29289 8.70712C5.68342 9.09765 6.31658 9.09765 6.70711 8.70712L12 3.41423L17.2929 8.70712C17.6834 9.09765 18.3166 9.09765 18.7071 8.70712C19.0976 8.3166 19.0976 7.68344 18.7071 7.29291L12.7071 1.29291C12.4142 1.00002 11.9848 0.92679 11.6237 1.07324" fill="#FF5640"/>
</svg>
