<svg width="24" height="24" viewBox="0 0 24 24" fill="none" xmlns="http://www.w3.org/2000/svg">
<path d="M17.9997 6.98086C18.0036 7.18585 17.9448 7.3918 17.8234 7.56755C17.7895 7.61662 17.7507 7.66335 17.707 7.70704L7.41414 18H13C13.5523 18 14 18.4477 14 19C14 19.5523 13.5523 20 13 20H5C4.44772 20 4 19.5523 4 19V11C4 10.4477 4.44772 10 5 10C5.55228 10 6 10.4477 6 11V16.5858L16.2929 6.29295C16.3173 6.26853 16.3427 6.24565 16.3689 6.22428C16.5522 6.07475 16.776 5.99998 16.9999 5.99998L17.5631 6.00285C17.718 6.00285 17.858 5.93986 17.9593 5.83809C18.0611 5.73682 18.1241 5.59676 18.1241 5.44185L18.1212 4.87874C18.1212 4.62281 18.2188 4.367 18.4142 4.17169C18.8047 3.78119 19.4377 3.78119 19.8282 4.17169C20.2188 4.56219 20.2188 5.19528 19.8282 5.58578C19.6329 5.78109 19.377 5.87863 19.1211 5.87863L18.558 5.87576C18.4031 5.87576 18.263 5.93874 18.1617 6.04051C18.06 6.14179 17.997 6.28185 17.997 6.43675L17.9997 6.98086Z" fill="#FF5640"/>
</svg>
