<svg width="24" height="24" viewBox="0 0 24 24" fill="none" xmlns="http://www.w3.org/2000/svg">
<path d="M1.2864 12.7005C1.19374 12.6062 1.12357 12.498 1.07588 12.3828C1.02699 12.2649 1 12.1356 1 12C1 11.8644 1.02699 11.7351 1.07588 11.6172C1.12468 11.4993 1.19702 11.3888 1.29289 11.2929L7.29289 5.29289C7.68342 4.90237 8.31658 4.90237 8.70711 5.29289C9.09763 5.68342 9.09763 6.31658 8.70711 6.70711L4.41421 11H19C19.1716 11 19.333 11.0432 19.4741 11.1193C19.5602 11.1657 19.6387 11.2244 19.7073 11.293L20.1034 11.6932C20.213 11.8027 20.3566 11.8572 20.5001 11.8569C20.6437 11.8572 20.7873 11.8027 20.8968 11.6932L21.293 11.293C21.4739 11.112 21.7239 11.0002 22.0001 11.0002C22.5523 11.0002 23 11.4478 23 12.0001C23 12.5523 22.5523 13 22.0001 13C21.7239 13 21.4739 12.888 21.293 12.707L20.8968 12.3068C20.7873 12.1973 20.6437 12.1428 20.5001 12.1431C20.3566 12.1428 20.213 12.1973 20.1034 12.3068L19.7073 12.707C19.527 12.8873 19.2783 12.9991 19.0033 13H19H4.41421L8.70711 17.2929C9.09763 17.6834 9.09763 18.3166 8.70711 18.7071C8.31658 19.0976 7.68342 19.0976 7.29289 18.7071L1.29289 12.7071C1.29073 12.7049 1.28854 12.7027 1.2864 12.7005Z" fill="#FF5640"/>
</svg>
