<svg width="24" height="24" viewBox="0 0 24 24" fill="none" xmlns="http://www.w3.org/2000/svg">
<path d="M5 11.0002H19.586L15.2929 6.70711C14.9024 6.31658 14.9024 5.68342 15.2929 5.29289C15.6834 4.90237 16.3166 4.90237 16.7071 5.29289L22.7071 11.2929C22.8225 11.4083 22.9038 11.5449 22.951 11.6902C22.9808 11.7818 22.997 11.8768 22.9996 11.9722L22.9997 11.9751C22.9999 11.9822 23 11.9893 23 11.9964V12.0001C23 12.2821 22.8833 12.5369 22.6955 12.7187L16.7071 18.7071C16.3166 19.0976 15.6834 19.0976 15.2929 18.7071C14.9024 18.3166 14.9024 17.6834 15.2929 17.2929L19.5856 13.0002H5H4.99668C4.72171 12.9993 4.47299 12.8875 4.29271 12.7072L3.89655 12.307C3.78702 12.1975 3.64344 12.143 3.49987 12.1433C3.35629 12.143 3.21272 12.1975 3.10318 12.307L2.70703 12.7072C2.52606 12.8882 2.27613 13.0002 1.99991 13.0002C1.44766 13.0002 1 12.5525 1 12.0003C1 11.448 1.44766 11.0004 1.99991 11.0004C2.27613 11.0004 2.52606 11.1122 2.70703 11.2932L3.10318 11.6934C3.21272 11.8029 3.35629 11.8574 3.49987 11.857C3.64344 11.8574 3.78702 11.8029 3.89655 11.6934L4.29271 11.2932C4.3613 11.2246 4.43981 11.1659 4.5259 11.1195C4.66699 11.0434 4.82845 11.0002 5 11.0002Z" fill="#FF5640"/>
</svg>
