<svg width="24" height="24" viewBox="0 0 24 24" fill="none" xmlns="http://www.w3.org/2000/svg">
<path d="M13 4.99668C12.9992 4.72171 12.8873 4.47299 12.707 4.29271L12.3068 3.89655C12.1973 3.78702 12.1428 3.64344 12.1431 3.49987C12.1428 3.35629 12.1973 3.21272 12.3068 3.10318L12.707 2.70703C12.888 2.52606 13 2.27613 13 1.99991C13 1.44766 12.5523 1 12.0001 1C11.4478 1 11.0002 1.44766 11.0002 1.99991C11.0002 2.27613 11.112 2.52606 11.293 2.70703L11.6932 3.10318C11.8027 3.21272 11.8572 3.35629 11.8569 3.49987C11.8572 3.64344 11.8027 3.78702 11.6932 3.89655L11.293 4.29271C11.2236 4.36204 11.1645 4.44149 11.1178 4.52866C11.0426 4.66909 11 4.82957 11 5V19.5858L6.70711 15.2929C6.31658 14.9024 5.68342 14.9024 5.29289 15.2929C4.90237 15.6834 4.90237 16.3166 5.29289 16.7071L11.2902 22.7044C11.2991 22.7134 11.3082 22.7222 11.3174 22.7308C11.3592 22.7699 11.4035 22.8047 11.4498 22.8352C11.4996 22.8682 11.5518 22.8962 11.6056 22.9192C11.7266 22.9712 11.86 23 12 23C12.1417 23 12.2764 22.9705 12.3986 22.9174C12.4982 22.8742 12.5922 22.8139 12.6763 22.7367C12.6879 22.726 12.6993 22.715 12.7104 22.7038L18.7071 16.7071C19.0976 16.3166 19.0976 15.6834 18.7071 15.2929C18.3166 14.9024 17.6834 14.9024 17.2929 15.2929L13 19.5858V5V4.99668Z" fill="#FF5640"/>
</svg>
