<svg width="24" height="24" viewBox="0 0 24 24" fill="none" xmlns="http://www.w3.org/2000/svg">
<path d="M6 13C6 13.5523 5.55229 14 5 14C4.44772 14 4 13.5523 4 13V5C4 4.44772 4.44772 4 5 4H13C13.5523 4 14 4.44771 14 5C14 5.55228 13.5523 6 13 6H7.41417L17.7071 16.2929C17.9054 16.4912 18.003 16.7521 17.9999 17.0121L17.9971 17.5632C17.9971 17.7181 18.0601 17.8582 18.1618 17.9595C18.2631 18.0613 18.4032 18.1242 18.5581 18.1242L19.1212 18.1214C19.3771 18.1214 19.633 18.2189 19.8284 18.4142C20.2189 18.8047 20.2189 19.4378 19.8284 19.8283C19.4379 20.2188 18.8048 20.2188 18.4143 19.8283C18.219 19.633 18.1213 19.3772 18.1213 19.1213L18.1242 18.5581C18.1242 18.4032 18.0612 18.2632 17.9594 18.1619C17.8581 18.0601 17.7181 17.9972 17.5632 17.9972L17.0001 18C16.9451 18 16.8901 17.9955 16.8357 17.9865C16.6369 17.9536 16.4462 17.8604 16.2928 17.7071L6 7.41426V13Z" fill="#FF5640"/>
</svg>
