<svg width="24" height="24" viewBox="0 0 24 24" fill="none" xmlns="http://www.w3.org/2000/svg">
<path d="M18 13C18 13.5523 18.4477 14 19 14C19.5523 14 20 13.5523 20 13V5C20 4.44772 19.5523 4 19 4H11C10.4477 4 10 4.44771 10 5C10 5.55228 10.4477 6 11 6H16.5857L6.29285 16.2929C6.09232 16.4934 5.99476 16.7579 6.00017 17.0207L6.00294 17.565C6.00294 17.7199 5.93996 17.86 5.83819 17.9613C5.73691 18.063 5.59685 18.126 5.44195 18.126L4.87883 18.1231C4.6229 18.1231 4.36697 18.2207 4.17166 18.416C3.78116 18.8065 3.78116 19.4396 4.17166 19.8301C4.56216 20.2206 5.19525 20.2206 5.58575 19.8301C5.78106 19.6348 5.87872 19.379 5.87872 19.123L5.87585 18.5599C5.87585 18.405 5.93884 18.265 6.04061 18.1637C6.14188 18.0619 6.28194 17.9989 6.43685 17.9989L6.99996 18.0018C7.25589 18.0018 7.51169 17.9041 7.70701 17.7088C7.71859 17.6972 7.72983 17.6854 7.74073 17.6734L18 7.41417V13Z" fill="#FF5640"/>
</svg>
