<svg width="24" height="24" viewBox="0 0 24 24" fill="none" xmlns="http://www.w3.org/2000/svg">
<path d="M10 1C7.23858 1 5 3.23858 5 6V16C5 19.866 8.13401 23 12 23C15.866 23 19 19.866 19 16V9C19 8.83276 18.9589 8.67511 18.8864 8.53658C18.8391 8.44629 18.7785 8.36412 18.707 8.2927L18.3068 7.89654C18.1973 7.78701 18.1428 7.64343 18.1431 7.49986C18.1428 7.35628 18.1973 7.21271 18.3068 7.10317L18.707 6.70702C18.888 6.52605 18.9998 6.27612 18.9998 5.9999C18.9998 5.44765 18.5522 4.99999 17.9999 4.99999C17.4477 4.99999 17 5.44765 17 5.9999C17 6.27612 17.112 6.52605 17.293 6.70702L17.6932 7.10317C17.8027 7.21271 17.8572 7.35628 17.8569 7.49986C17.8572 7.64343 17.8027 7.78701 17.6932 7.89654L17.293 8.2927C17.112 8.47366 17 8.7236 17 8.99981V16C17 18.7614 14.7614 21 12 21C9.23858 21 7 18.7614 7 16V6C7 4.34315 8.34315 3 10 3C11.6569 3 13 4.34315 13 6V15.3077C13 15.86 12.5523 16.3077 12 16.3077C11.4477 16.3077 11 15.86 11 15.3077V8.15385C11 7.60156 10.5523 7.15385 10 7.15385C9.44772 7.15385 9 7.60156 9 8.15385V15.3077C9 16.9645 10.3431 18.3077 12 18.3077C13.6569 18.3077 15 16.9645 15 15.3077V6C15 3.23858 12.7614 1 10 1Z" fill="#FF5640"/>
</svg>
