<svg width="24" height="24" viewBox="0 0 24 24" fill="none" xmlns="http://www.w3.org/2000/svg">
<path d="M17.5071 2.13813C17.8125 2.31781 18 2.64568 18 3V21C18 21.3543 17.8125 21.6822 17.5071 21.8619C17.2017 22.0416 16.8241 22.0462 16.5144 21.8742L7.74087 17H5C4.44772 17 4 16.5523 4 16C4 15.4477 4.44772 15 5 15H8C8.16994 15 8.33708 15.0433 8.48564 15.1258L16 19.3005V4.69951L8.48564 8.87416C8.33708 8.95669 8.16994 9 8 9H3V10C3 10.2838 2.88177 10.54 2.69188 10.722L2.30682 11.1032C2.19728 11.2127 2.14278 11.3563 2.14313 11.4999C2.14278 11.6434 2.19728 11.787 2.30682 11.8965L2.70703 12.2927C2.888 12.4737 2.99982 12.7236 2.99982 12.9998C2.99982 13.5521 2.55217 13.9997 1.99991 13.9997C1.44766 13.9997 1 13.5521 1 12.9998C1 12.7236 1.112 12.4737 1.29297 12.2927L1.69318 11.8965C1.80272 11.787 1.85722 11.6434 1.85687 11.4999C1.85722 11.3563 1.80272 11.2127 1.69318 11.1032L1.3081 10.722C1.11822 10.54 1 10.2838 1 10V8C1 7.44772 1.44772 7 2 7H7.74087L16.5144 2.12584C16.8241 1.95377 17.2017 1.95844 17.5071 2.13813Z" fill="#FF5640"/>
<path d="M19.5076 4.1296C19.9883 3.85769 20.5984 4.02695 20.8703 4.50766L19.9999 5C20.8703 4.50766 20.8708 4.50856 20.8708 4.50856L20.8734 4.51314L20.8792 4.52358L20.8988 4.55911C20.9153 4.58919 20.9384 4.63197 20.9672 4.68666C21.0249 4.796 21.1056 4.95318 21.2017 5.15189C21.3939 5.54881 21.6492 6.1142 21.9068 6.79718C22.4179 8.15207 22.958 10.0213 22.9997 11.9787C23.0455 14.1345 22.507 16.2598 21.9785 17.8149C21.7119 18.5992 21.4426 19.2538 21.2389 19.7144C21.1369 19.945 21.051 20.1277 20.9897 20.2546C20.9591 20.318 20.9345 20.3676 20.9172 20.4022L20.8966 20.4429L20.8906 20.4546L20.8887 20.4583L20.8876 20.4605C20.6332 20.9508 20.0296 21.142 19.5394 20.8877C19.0494 20.6334 18.8584 20.0296 19.1122 19.5395L19.1152 19.5338L19.1294 19.5056C19.1425 19.4794 19.1627 19.4388 19.1889 19.3846C19.2413 19.2761 19.3176 19.1138 19.4098 18.9055C19.5943 18.4882 19.8408 17.8894 20.0849 17.1713C20.5775 15.7219 21.039 13.8472 21.0001 12.0213C20.9652 10.3791 20.5053 8.74829 20.0355 7.50309C19.8028 6.88603 19.5724 6.37635 19.4015 6.02321C19.3162 5.84689 19.246 5.7103 19.1982 5.61962C19.1743 5.5743 19.156 5.54051 19.1442 5.51903L19.1316 5.49615L19.1291 5.49164C18.8577 5.01104 19.0271 4.40138 19.5076 4.1296Z" fill="#FF5640"/>
</svg>
