<svg width="24" height="24" viewBox="0 0 24 24" fill="none" xmlns="http://www.w3.org/2000/svg">
<path fill-rule="evenodd" clip-rule="evenodd" d="M8.2 5.4C8.38885 5.14819 8.68524 5 9 5H15C15.3148 5 15.6111 5.14819 15.8 5.4L18.587 9.11597L22.2425 10.0299C22.6877 10.1411 23 10.5411 23 11V16C23 16.5523 22.5523 17 22 17H19.8293C19.4175 18.1652 18.3062 19 17 19C15.6938 19 14.5825 18.1652 14.1707 17H9.82929C9.41746 18.1652 8.30622 19 7 19C5.69378 19 4.58254 18.1652 4.17071 17H2C1.44772 17 1 16.5523 1 16V14L1.00001 13.9967C1.00086 13.7217 1.11269 13.473 1.29297 13.2927L1.69318 12.8966C1.80272 12.787 1.85722 12.6435 1.85687 12.4999C1.85722 12.3563 1.80272 12.2127 1.69318 12.1032L1.29297 11.707C1.112 11.5261 1 11.2761 1 10.9999C1 10.4477 1.44766 10 1.99991 10C2.55217 10 2.99982 10.4477 2.99982 10.9999C2.99982 11.2761 2.888 11.5261 2.70703 11.7071L2.30682 12.1032C2.19728 12.2127 2.14278 12.3563 2.14313 12.4999C2.14278 12.6435 2.19728 12.787 2.30682 12.8966L2.70703 13.2927C2.76855 13.3543 2.82209 13.4237 2.86595 13.4995C2.9512 13.6467 3 13.8177 3 14V15H4.17071C4.58254 13.8348 5.69378 13 7 13C8.30622 13 9.41746 13.8348 9.82929 15H14.1707C14.5825 13.8348 15.6938 13 17 13C18.3062 13 19.4175 13.8348 19.8293 15H21V11.7808L17.7575 10.9701C17.5347 10.9144 17.3378 10.7837 17.2 10.6L14.5 7H9.5L6.8 10.6C6.46863 11.0418 5.84183 11.1314 5.4 10.8C4.95817 10.4686 4.86863 9.84183 5.2 9.4L8.2 5.4ZM6 16C6 16.5523 6.44772 17 7 17C7.55228 17 8 16.5523 8 16C8 15.4477 7.55228 15 7 15C6.44772 15 6 15.4477 6 16ZM18 16C18 15.4477 17.5523 15 17 15C16.4477 15 16 15.4477 16 16C16 16.5523 16.4477 17 17 17C17.5523 17 18 16.5523 18 16Z" fill="#FF5640"/>
</svg>
