<svg width="24" height="24" viewBox="0 0 24 24" fill="none" xmlns="http://www.w3.org/2000/svg">
<path fill-rule="evenodd" clip-rule="evenodd" d="M3.10386 3.53839C4.0505 3.26825 5.39393 3 7 3C8.60607 3 9.9495 3.26825 10.8961 3.53839C11.3642 3.67195 11.7374 3.80658 12 3.91098C12.2626 3.80658 12.6358 3.67195 13.1039 3.53839C14.0505 3.26825 15.3939 3 17 3C18.6061 3 19.9495 3.26825 20.8961 3.53839C21.3701 3.67363 21.7468 3.80997 22.0099 3.9149C22.1415 3.9674 22.2449 4.01214 22.3182 4.0451C22.3548 4.06158 22.3839 4.07513 22.4052 4.08524L22.4314 4.09778L22.44 4.102L22.4432 4.10358L22.4457 4.1048C22.7853 4.27388 23 4.6206 23 5V20C23 20.3463 22.8209 20.6679 22.5265 20.8502C22.2329 21.032 21.8665 21.0494 21.5571 20.8966L21.5561 20.8961L21.5482 20.8923C21.5386 20.8878 21.5216 20.8798 21.4975 20.869C21.4492 20.8472 21.3724 20.8138 21.2689 20.7726C21.0619 20.69 20.7495 20.5764 20.3473 20.4616C19.5418 20.2317 18.3852 20 17 20C15.6148 20 14.4582 20.2317 13.6527 20.4616C13.2505 20.5764 12.9381 20.69 12.7311 20.7726C12.6276 20.8138 12.5508 20.8472 12.5025 20.869C12.4784 20.8798 12.4614 20.8878 12.4518 20.8923L12.4447 20.8957C12.1644 21.035 11.8356 21.0349 11.5553 20.8957L11.5543 20.8952L11.5482 20.8923C11.5386 20.8878 11.5216 20.8798 11.4975 20.869C11.4492 20.8472 11.3724 20.8138 11.2689 20.7726C11.0619 20.69 10.7495 20.5764 10.3473 20.4616C9.54179 20.2317 8.38522 20 7 20C5.61478 20 4.45821 20.2317 3.65267 20.4616C3.25052 20.5764 2.93808 20.69 2.73106 20.7726C2.62764 20.8138 2.55079 20.8472 2.5025 20.869C2.47836 20.8798 2.46138 20.8878 2.45182 20.8923L2.44471 20.8957C2.13484 21.0497 1.76777 21.0324 1.47353 20.8502C1.17914 20.6679 1 20.3463 1 20V17C1 16.4477 1.44772 16 2 16C2.55228 16 3 16.4477 3 17V18.5685C3.03408 18.5585 3.0687 18.5484 3.10386 18.5384C4.0505 18.2683 5.39393 18 7 18C8.60607 18 9.9495 18.2683 10.8961 18.5384C10.9313 18.5484 10.9659 18.5585 11 18.5685V5.6709C10.8212 5.60668 10.6023 5.53436 10.3473 5.46161C9.54179 5.23175 8.38522 5 7 5C5.61478 5 4.45821 5.23175 3.65267 5.46161C3.39773 5.53437 3.17883 5.60668 3 5.6709V9C3 9.28365 2.8819 9.53971 2.6922 9.72171L2.30682 10.1032C2.19728 10.2127 2.14278 10.3563 2.14313 10.4999C2.14278 10.6434 2.19728 10.787 2.30682 10.8966L2.70703 11.2927C2.888 11.4737 2.99982 11.7236 2.99982 11.9998C2.99982 12.5521 2.55216 12.9997 1.99991 12.9997C1.44766 12.9997 1 12.5521 1 11.9998C1 11.7236 1.112 11.4737 1.29297 11.2927L1.69318 10.8966C1.80272 10.787 1.85722 10.6434 1.85687 10.4999C1.85722 10.3563 1.80272 10.2127 1.69318 10.1032L1.30783 9.72174C1.11811 9.53974 1 9.28366 1 9V5C1 4.6206 1.2147 4.27388 1.55434 4.1048L1.55679 4.10358L1.55999 4.102L1.56863 4.09778L1.59476 4.08524C1.61608 4.07513 1.64518 4.06158 1.68181 4.0451C1.75506 4.01214 1.85851 3.9674 1.99014 3.9149C2.25323 3.80997 2.62992 3.67363 3.10386 3.53839ZM13.1039 18.5384C13.0687 18.5484 13.0341 18.5585 13 18.5685V5.6709C13.1788 5.60668 13.3977 5.53436 13.6527 5.46161C14.4582 5.23175 15.6148 5 17 5C18.3852 5 19.5418 5.23175 20.3473 5.46161C20.6023 5.53437 20.8212 5.60668 21 5.6709V18.5685C20.9659 18.5585 20.9313 18.5484 20.8961 18.5384C19.9495 18.2683 18.6061 18 17 18C15.3939 18 14.0505 18.2683 13.1039 18.5384Z" fill="#FF5640"/>
</svg>
