<svg width="24" height="24" viewBox="0 0 24 24" fill="none" xmlns="http://www.w3.org/2000/svg">
<path d="M5 1C4.44772 1 4 1.44772 4 2V10C4 10.5523 4.44772 11 5 11C5.55228 11 6 10.5523 6 10V3H18V19.5858L12.7071 14.2929C12.3166 13.9024 11.6834 13.9024 11.2929 14.2929L6 19.5858V18C6 17.8328 5.95895 17.6751 5.88637 17.5366C5.83911 17.4463 5.77845 17.3641 5.70703 17.2927L5.30682 16.8965C5.19728 16.787 5.14278 16.6434 5.14313 16.4999C5.14278 16.3563 5.19728 16.2127 5.30682 16.1032L5.70703 15.707C5.888 15.5261 5.99982 15.2761 5.99982 14.9999C5.99982 14.4476 5.55216 14 4.99991 14C4.44766 14 4 14.4476 4 14.9999C4 15.2761 4.112 15.5261 4.29297 15.707L4.69318 16.1032C4.80272 16.2127 4.85722 16.3563 4.85687 16.4999C4.85722 16.6434 4.80272 16.787 4.69318 16.8965L4.29297 17.2927C4.112 17.4737 4 17.7236 4 17.9998V22C4 22.4045 4.24364 22.7691 4.61732 22.9239C4.99099 23.0787 5.42111 22.9931 5.70711 22.7071L12 16.4142L18.2929 22.7071C18.5789 22.9931 19.009 23.0787 19.3827 22.9239C19.7564 22.7691 20 22.4045 20 22V2C20 1.44772 19.5523 1 19 1H5Z" fill="#FF5640"/>
</svg>
