<svg width="60" height="24" viewBox="0 0 60 24" fill="none" xmlns="http://www.w3.org/2000/svg">
<g clip-path="url(#clip0_210_4926)">
<path d="M48.0001 0C44.6864 0 41.6865 1.34333 39.5148 3.5148L34.7601 8.31816C33.4461 9.63253 31.7222 10.287 30 10.2819C28.2778 10.287 26.554 9.63253 25.2401 8.31816L20.4853 3.5148C18.3137 1.34333 15.3138 0 12.0001 0C5.37265 0 0 5.37265 0 12.0001C0 18.6275 5.37265 24 12.0001 24C15.3138 24 18.3137 22.657 20.4853 20.4854L25.2401 15.682C26.5539 14.3676 28.2778 13.713 30 13.7181C31.7222 13.713 33.446 14.3676 34.7601 15.682L39.5148 20.4854C41.6864 22.657 44.6864 24 48.0001 24C54.6275 24 60 18.6275 60 12.0001C60 5.37266 54.6275 0 48.0001 0Z" fill="#FF5640"/>
</g>
<defs>
<clipPath id="clip0_210_4926">
<rect width="60" height="24" fill="white"/>
</clipPath>
</defs>
</svg>
