<svg width="24" height="24" viewBox="0 0 24 24" fill="none" xmlns="http://www.w3.org/2000/svg">
<path fill-rule="evenodd" clip-rule="evenodd" d="M6.34141 5C7.16508 2.66962 9.38756 1 12 1C14.6124 1 16.8349 2.66962 17.6586 5H22C22.5523 5 23 5.44772 23 6V12C23 12.4767 22.6635 12.8871 22.1961 12.9806L22 13.0198V22C22 22.5523 21.5523 23 21 23H6C5.99994 23 6.00006 23 6 23C5.72379 23 5.47367 22.888 5.29271 22.707L4.89655 22.3068C4.78702 22.1973 4.64344 22.1428 4.49987 22.1431C4.35629 22.1428 4.21272 22.1973 4.10318 22.3068L3.70703 22.707C3.52606 22.888 3.27613 22.9998 2.99991 22.9998C2.44766 22.9998 2 22.5522 2 21.9999C2 21.4477 2.44766 21 2.99991 21C3.27613 21 3.52606 21.112 3.70703 21.293L4.10318 21.6932C4.21272 21.8027 4.35629 21.8572 4.49987 21.8569C4.64344 21.8572 4.78702 21.8027 4.89655 21.6932L5.29271 21.293C5.47367 21.112 5.72361 21 5.99982 21C5.99976 21 5.99988 21 5.99982 21H20V13.4198L12.2164 14.9765C12.1477 14.9917 12.0763 14.9998 12.0031 15H12H11.9969C11.9237 14.9998 11.8523 14.9917 11.7836 14.9765L4 13.4198V17C4 17.5523 3.55228 18 3 18C2.44772 18 2 17.5523 2 17V13.0198L1.80388 12.9806C1.33646 12.8871 1 12.4767 1 12V6C1 5.44772 1.44772 5 2 5H6.34141ZM8.53513 5C9.22675 3.8044 10.5194 3 12 3C13.4806 3 14.7733 3.8044 15.4649 5H8.53513ZM21 11.1802L13 12.7802V11C13 10.4477 12.5523 10 12 10C11.4477 10 11 10.4477 11 11V12.7802L3 11.1802V7H21V11.1802Z" fill="#FF5640"/>
</svg>
