<svg width="24" height="24" viewBox="0 0 24 24" fill="none" xmlns="http://www.w3.org/2000/svg">
<path fill-rule="evenodd" clip-rule="evenodd" d="M11.455 1.16156C11.7864 0.946147 12.2136 0.946147 12.545 1.16156L22.545 7.66156C22.8288 7.84602 23 8.16152 23 8.5C23 8.83848 22.8288 9.15398 22.545 9.33844L18.4503 12L22.545 14.6615C22.8288 14.846 23 15.1615 23 15.5C23 15.8385 22.8288 16.154 22.545 16.3384L12.545 22.8384C12.2136 23.0538 11.7864 23.0538 11.455 22.8384L1.45501 16.3384C1.17122 16.154 1 15.8385 1 15.5C1 15.1615 1.17122 14.846 1.45501 14.6615L5.54971 12L1.45501 9.33844C1.17122 9.15398 1 8.83848 1 8.5C1 8.16152 1.17122 7.84602 1.45501 7.66156L3.7627 6.16156C3.77426 6.15405 3.78591 6.14681 3.79765 6.13983C3.81843 6.1239 3.83999 6.10866 3.86231 6.09416C4.09397 5.94373 4.36449 5.90139 4.61482 5.9546L5.16503 6.07448C5.31655 6.10669 5.46665 6.0742 5.58687 5.99571C5.70747 5.91781 5.7982 5.7939 5.83041 5.64238L5.94468 5.09098C5.99789 4.84064 6.1466 4.61073 6.37825 4.46029C6.84141 4.15951 7.46066 4.29114 7.76144 4.7543C8.06222 5.21746 7.93059 5.83671 7.46743 6.13749C7.23578 6.28792 6.96517 6.33011 6.71483 6.2769L6.16462 6.15702C6.0131 6.12481 5.863 6.1573 5.74278 6.23579C5.62218 6.31369 5.53145 6.4376 5.49924 6.58912L5.38497 7.14053C5.33176 7.39086 5.18315 7.62092 4.9515 7.77136C4.94048 7.77851 4.92937 7.78542 4.91819 7.79209C4.89715 7.80826 4.87531 7.82373 4.85268 7.83844L3.8349 8.5L12 13.8073L20.1651 8.5L12 3.19269L11.295 3.65094C10.8319 3.95193 10.2125 3.82055 9.91156 3.35749C9.61057 2.89443 9.74195 2.27505 10.205 1.97406L11.455 1.16156ZM12.545 15.8384L16.6154 13.1927L20.1651 15.5L12 20.8073L3.8349 15.5L7.38461 13.1927L11.455 15.8384C11.7864 16.0539 12.2136 16.0539 12.545 15.8384Z" fill="#FF5640"/>
</svg>
