<svg width="24" height="24" viewBox="0 0 24 24" fill="none" xmlns="http://www.w3.org/2000/svg">
<path fill-rule="evenodd" clip-rule="evenodd" d="M7 2C7 1.44772 6.55228 1 6 1C5.44772 1 5 1.44772 5 2V4H2C1.44772 4 1 4.44772 1 5V18C1 18.5523 1.44772 19 2 19C2.55228 19 3 18.5523 3 18V10H21V21H4.99982C4.72361 21 4.47367 21.112 4.29271 21.293L3.89655 21.6932C3.78702 21.8027 3.64344 21.8572 3.49987 21.8569C3.35629 21.8572 3.21272 21.8027 3.10318 21.6932L2.70703 21.293C2.52606 21.112 2.27613 21 1.99991 21C1.44766 21 1 21.4477 1 21.9999C1 22.5522 1.44766 22.9998 1.99991 22.9998C2.27613 22.9998 2.52606 22.888 2.70703 22.707L3.10318 22.3068C3.21272 22.1973 3.35629 22.1428 3.49987 22.1431C3.64344 22.1428 3.78702 22.1973 3.89655 22.3068L4.29271 22.707C4.3613 22.7756 4.43981 22.8343 4.5259 22.8807C4.66699 22.9568 4.82845 23 5 23H22C22.5523 23 23 22.5523 23 22V5C23 4.44772 22.5523 4 22 4H19V2C19 1.44772 18.5523 1 18 1C17.4477 1 17 1.44772 17 2V4H7V2ZM21 8V6H3V8H21Z" fill="#FF5640"/>
<path fill-rule="evenodd" clip-rule="evenodd" d="M13 12C12.4477 12 12 12.4477 12 13V18C12 18.5523 12.4477 19 13 19H18C18.5523 19 19 18.5523 19 18V13C19 12.4477 18.5523 12 18 12H13ZM14 17V14H17V17H14Z" fill="#FF5640"/>
</svg>
