<svg width="24" height="24" viewBox="0 0 24 24" fill="none" xmlns="http://www.w3.org/2000/svg">
<path d="M7.29289 5.29289C7.48043 5.10536 7.73478 5 8 5H16C16.2652 5 16.5196 5.10536 16.7071 5.29289L18.4142 7H22C22.5523 7 23 7.44772 23 8V19C23 19.5523 22.5523 20 22 20H5C4.82845 20 4.66699 19.9568 4.5259 19.8807C4.43981 19.8343 4.3613 19.7756 4.29271 19.707L3.89655 19.3068C3.78702 19.1973 3.64344 19.1428 3.49987 19.1431C3.35629 19.1428 3.21272 19.1973 3.10318 19.3068L2.70703 19.707C2.52606 19.888 2.27613 19.9998 1.99991 19.9998C1.44766 19.9998 1 19.5522 1 18.9999C1 18.4477 1.44766 18 1.99991 18C2.27613 18 2.52606 18.112 2.70703 18.293L3.10318 18.6932C3.21272 18.8027 3.35629 18.8572 3.49987 18.8569C3.64344 18.8572 3.78702 18.8027 3.89655 18.6932L4.29271 18.293C4.47367 18.112 4.72361 18 4.99982 18C4.99977 18 4.99988 18 4.99982 18H21V9H18C17.7348 9 17.4804 8.89464 17.2929 8.70711L15.5858 7H8.41421L6.70711 8.70711C6.51957 8.89464 6.26522 9 6 9H3V14C3 14.5523 2.55228 15 2 15C1.44772 15 1 14.5523 1 14V8C1 7.44772 1.44772 7 2 7H5.58579L7.29289 5.29289Z" fill="#FF5640"/>
<path fill-rule="evenodd" clip-rule="evenodd" d="M8 13C8 10.7909 9.79086 9 12 9C14.2091 9 16 10.7909 16 13C16 15.2091 14.2091 17 12 17C9.79086 17 8 15.2091 8 13ZM12 11C10.8954 11 10 11.8954 10 13C10 14.1046 10.8954 15 12 15C13.1046 15 14 14.1046 14 13C14 11.8954 13.1046 11 12 11Z" fill="#FF5640"/>
</svg>
