<svg width="24" height="24" viewBox="0 0 24 24" fill="none" xmlns="http://www.w3.org/2000/svg">
<path fill-rule="evenodd" clip-rule="evenodd" d="M11 2C11 1.44772 11.4477 1 12 1H19C19.4045 1 19.7691 1.24364 19.9239 1.61732C20.0787 1.99099 19.9931 2.42111 19.7071 2.70711L18.4142 4L19.7071 5.29289C19.9931 5.57889 20.0787 6.00901 19.9239 6.38268C19.7691 6.75636 19.4045 7 19 7H13V7.77816L16.1892 14.6121L17.0862 12.5939C17.2467 12.2327 17.6048 12 18 12C18.3952 12 18.7533 12.2327 18.9138 12.5939L22.9138 21.5939C23.0513 21.9032 23.0229 22.2611 22.8385 22.5449C22.654 22.8288 22.3385 23 22 23H18.5558C18.5412 23.0003 18.5267 23.0003 18.5122 23H16C15.4477 23 15 22.5523 15 22C15 21.4477 15.4477 21 16 21H16.9631L12 10.3647L7.03686 21H7.99651C7.99765 21 7.99879 21 7.99993 21C7.99991 21 7.99996 21 7.99993 21C8.07002 21 8.1385 21.0072 8.20452 21.0209C8.3986 21.0612 8.57202 21.1578 8.70705 21.2928L9.1032 21.693C9.21274 21.8025 9.35631 21.857 9.49989 21.8567C9.64346 21.857 9.78704 21.8025 9.89657 21.693L10.2927 21.2928C10.4737 21.1118 10.7236 21 10.9998 21C11.5521 21 11.9998 21.4477 11.9998 21.9999C11.9998 22.5522 11.5521 22.9998 10.9998 22.9998C10.7236 22.9998 10.4737 22.8878 10.2927 22.7068L9.89657 22.3066C9.78704 22.1971 9.64346 22.1426 9.49989 22.143C9.35631 22.1426 9.21274 22.1971 9.1032 22.3066L8.72598 22.6877C8.54373 22.88 8.28587 23 8 23H2C1.6615 23 1.34597 22.8288 1.16151 22.5449C0.977054 22.2611 0.948711 21.9032 1.08619 21.5939L5.08619 12.5939C5.24669 12.2327 5.60481 12 6 12C6.39519 12 6.75331 12.2327 6.91381 12.5939L7.81081 14.6121L11 7.77814V2ZM19.1702 21L17.3102 17.0143L18 15.4622L20.4612 21H19.1702ZM6.68981 17.0143L6 15.4622L3.53876 21H4.8298L6.68981 17.0143ZM13 5H16.5858L16.2929 4.70711C15.9024 4.31658 15.9024 3.68342 16.2929 3.29289L16.5858 3H13V5Z" fill="#FF5640"/>
</svg>
