<svg width="24" height="24" viewBox="0 0 24 24" fill="none" xmlns="http://www.w3.org/2000/svg">
<path fill-rule="evenodd" clip-rule="evenodd" d="M10 23C9.44771 23 9 22.5523 9 22V2C9 1.44772 9.44771 1 10 1H14C14.5523 1 15 1.44772 15 2V22C15 22.5523 14.5523 23 14 23H10ZM11 21H13V3H11V21Z" fill="#FF5640"/>
<path fill-rule="evenodd" clip-rule="evenodd" d="M18 23C17.4477 23 17 22.5523 17 22V13C17 12.4477 17.4477 12 18 12H22C22.5523 12 23 12.4477 23 13V22C23 22.5523 22.5523 23 22 23H18ZM19 21H21V14H19V21Z" fill="#FF5640"/>
<path d="M1 4.99991C1 5.27613 1.112 5.52606 1.29297 5.70703L1.69318 6.10318C1.80272 6.21272 1.85722 6.35629 1.85687 6.49987C1.85722 6.64344 1.80272 6.78702 1.69318 6.89655L1.29297 7.29271C1.112 7.47367 1 7.72379 1 8.00001V22C1 22.5523 1.44772 23 2 23H6C6.55229 23 7 22.5523 7 22V5.00001C7 4.44773 6.55229 4.00001 6 4.00001C5.44772 4.00001 5 4.44773 5 5.00001V21H3V8.00001C3 7.83277 2.95895 7.67512 2.88637 7.53659C2.83911 7.4463 2.77845 7.36413 2.70703 7.29271L2.30682 6.89655C2.19728 6.78702 2.14278 6.64344 2.14313 6.49987C2.14278 6.35629 2.19728 6.21272 2.30682 6.10318L2.70703 5.70703C2.888 5.52606 2.99982 5.27613 2.99982 4.99991C2.99982 4.44766 2.55217 4 1.99991 4C1.44766 4 1 4.44766 1 4.99991Z" fill="#FF5640"/>
</svg>
