<svg width="24" height="24" viewBox="0 0 24 24" fill="none" xmlns="http://www.w3.org/2000/svg">
<path d="M1 2C1 1.44772 1.44772 1 2 1H16C16.2837 1 16.5397 1.11811 16.7217 1.30783L17.1032 1.69318C17.2127 1.80272 17.3563 1.85722 17.4999 1.85687C17.6434 1.85722 17.787 1.80272 17.8966 1.69318L18.2927 1.29297C18.4737 1.112 18.7236 1 18.9998 1C19.5521 1 19.9997 1.44766 19.9997 1.99991C19.9997 2.55216 19.5521 2.99982 18.9998 2.99982C18.7236 2.99982 18.4737 2.888 18.2927 2.70703L17.8966 2.30682C17.787 2.19728 17.6434 2.14278 17.4999 2.14313C17.3563 2.14278 17.2127 2.19728 17.1032 2.30682L16.7217 2.69216C16.5397 2.88189 16.2837 3 16 3H3V5H19C19.5523 5 20 5.44772 20 6C20 6.55228 19.5523 7 19 7H2C1.44772 7 1 6.55228 1 6V2Z" fill="#FF5640"/>
<path fill-rule="evenodd" clip-rule="evenodd" d="M1 10C1 9.44771 1.44772 9 2 9H22C22.5523 9 23 9.44771 23 10V14C23 14.5523 22.5523 15 22 15H2C1.44772 15 1 14.5523 1 14V10ZM3 11V13H21V11H3Z" fill="#FF5640"/>
<path fill-rule="evenodd" clip-rule="evenodd" d="M1 18C1 17.4477 1.44772 17 2 17H11C11.5523 17 12 17.4477 12 18V22C12 22.5523 11.5523 23 11 23H2C1.44772 23 1 22.5523 1 22V18ZM3 19V21H10V19H3Z" fill="#FF5640"/>
</svg>
