<svg width="24" height="24" viewBox="0 0 24 24" fill="none" xmlns="http://www.w3.org/2000/svg">
<path d="M17.2929 15.7071C17.6834 16.0976 18.3166 16.0976 18.7071 15.7071C19.0976 15.3166 19.0976 14.6834 18.7071 14.2929L12.7071 8.29289C12.5111 8.09686 12.2539 7.99923 11.997 8C11.742 8.00076 11.4873 8.09839 11.2928 8.29289L7.41782 12.1679C7.38173 12.204 7.34897 12.2421 7.31955 12.282C7.31415 12.2893 7.30887 12.2967 7.30369 12.3041C7.18445 12.4751 7.12483 12.675 7.12483 12.875L7.12769 13.4381C7.12769 13.5928 7.06492 13.7326 6.96344 13.8339L6.96244 13.8348C6.86121 13.9363 6.72135 13.9991 6.5667 13.9991L6.00358 13.9962C5.74765 13.9962 5.49185 14.0939 5.29654 14.2892C4.90604 14.6797 4.90604 15.3128 5.29654 15.7033C5.68704 16.0938 6.32013 16.0938 6.71063 15.7033C6.90594 15.508 7.00347 15.2521 7.00347 14.9961L7.0006 14.433C7.0006 14.2784 7.06338 14.1385 7.16486 14.0373L7.16586 14.0363C7.26709 13.9348 7.40695 13.872 7.5616 13.872L8.1035 13.8748C8.36651 13.8804 8.63131 13.7828 8.83203 13.5821L12 10.4142L17.2929 15.7071Z" fill="#FF5640"/>
</svg>
