<svg width="24" height="24" viewBox="0 0 24 24" fill="none" xmlns="http://www.w3.org/2000/svg">
<path d="M13.9952 6.00491L13.9981 6.56803C13.9981 6.72268 13.9353 6.86254 13.8338 6.96377L13.8328 6.96477C13.7316 7.06625 13.5918 7.12903 13.4371 7.12903L13.0336 7.12697C12.7305 7.08143 12.4105 7.17534 12.1771 7.40871L8.29576 11.29L8.29289 11.2929C8.09382 11.492 7.99622 11.7541 8.00011 12.015C8.00385 12.2659 8.10144 12.5157 8.29289 12.7071L8.29569 12.7099L14.2929 18.7071C14.6834 19.0976 15.3166 19.0976 15.7071 18.7071C16.0976 18.3166 16.0976 17.6834 15.7071 17.2929L10.4142 12L13.5913 8.82292C13.8246 8.58958 13.9186 8.26962 13.8731 7.96654L13.871 7.56293C13.871 7.40828 13.9338 7.26842 14.0353 7.16719L14.0363 7.16619C14.1375 7.06471 14.2774 7.00193 14.432 7.00193L14.9951 7.0048C15.251 7.0048 15.5068 6.90715 15.7022 6.71183C16.0927 6.32133 16.0927 5.68825 15.7022 5.29774C15.3117 4.90724 14.6786 4.90724 14.2881 5.29774C14.0928 5.49306 13.9952 5.74899 13.9952 6.00491Z" fill="#FF5640"/>
</svg>
