<svg width="24" height="24" viewBox="0 0 24 24" fill="none" xmlns="http://www.w3.org/2000/svg">
<path d="M19.7071 10.7071C20.0976 10.3166 20.0976 9.68342 19.7071 9.29289C19.3166 8.90237 18.6834 8.90237 18.2929 9.29289L13 14.5858L9.83212 11.4179C9.65287 11.2386 9.4225 11.1417 9.18794 11.127L9.12409 11.125L8.56185 11.1279C8.40694 11.1279 8.26688 11.0649 8.16561 10.9631C8.06384 10.8618 8.00085 10.7218 8.00085 10.5669L8.00372 10.0038C8.00372 9.74782 7.90606 9.49202 7.71075 9.29671C7.32025 8.9062 6.68716 8.9062 6.29666 9.29671C5.90616 9.68721 5.90616 10.3203 6.29666 10.7108C6.49197 10.9061 6.7479 11.0036 7.00383 11.0036L7.56695 11.0008C7.72185 11.0008 7.86191 11.0638 7.96319 11.1655C8.06496 11.2668 8.12794 11.4069 8.12794 11.5618L8.12516 12.1079C8.12071 12.3695 8.2183 12.6325 8.41791 12.8321L12.2929 16.7071C12.6834 17.0976 13.3166 17.0977 13.7071 16.7071C13.7089 16.7054 13.7106 16.7036 13.7124 16.7019L19.7071 10.7071Z" fill="#FF5640"/>
</svg>
