<svg width="24" height="24" viewBox="0 0 24 24" fill="none" xmlns="http://www.w3.org/2000/svg">
<path d="M10.0048 6.00491L10.0019 6.56803C10.0019 6.72268 10.0647 6.86254 10.1662 6.96377L10.1672 6.96477C10.2684 7.06625 10.4082 7.12903 10.5629 7.12903L11.126 7.12616C11.3819 7.12616 11.6379 7.22369 11.8332 7.419C11.8383 7.42415 11.8434 7.42933 11.8484 7.43456C11.8539 7.43983 11.8594 7.44517 11.8648 7.45059L15.7071 11.2929C15.7559 11.3417 15.7986 11.3943 15.8352 11.4498C16.0915 11.8379 16.0488 12.3654 15.7071 12.7071L9.70711 18.7071C9.31658 19.0976 8.68342 19.0976 8.29289 18.7071C7.90237 18.3166 7.90237 17.6834 8.29289 17.2929L13.5858 12L10.4506 8.86481C10.4445 8.85871 10.4385 8.85256 10.4326 8.84635C10.4281 8.84198 10.4236 8.83756 10.4191 8.83309C10.2238 8.63778 10.1261 8.38197 10.1261 8.12605L10.129 7.56293C10.129 7.40828 10.0662 7.26842 9.96474 7.16719L9.96374 7.16619C9.86251 7.06471 9.72265 7.00193 9.568 7.00193L9.00488 7.0048C8.74895 7.0048 8.49315 6.90715 8.29784 6.71183C7.90734 6.32133 7.90734 5.68825 8.29784 5.29774C8.68834 4.90724 9.32142 4.90724 9.71193 5.29774C9.90724 5.49306 10.0048 5.74899 10.0048 6.00491Z" fill="#FF5640"/>
</svg>
