<svg width="24" height="24" viewBox="0 0 24 24" fill="none" xmlns="http://www.w3.org/2000/svg">
<path d="M8.24582 1.32347C7.8553 0.932948 7.22213 0.932947 6.83161 1.32347C6.44108 1.714 6.44108 2.34716 6.83161 2.73769L16.7714 12.6774L14.4488 15H4.17758L3.80962 14.632C2.73013 13.5525 2.73013 11.8023 3.80962 10.7228C4.03568 10.4968 4.13088 10.1894 4.09523 9.89489L4.09478 9.44161C4.09451 9.13079 4.34149 8.88382 4.65231 8.88409L5.27394 8.88471C5.51412 8.87085 5.74711 8.77925 5.9306 8.59576C6.31872 8.20764 6.31809 7.57186 5.92919 7.18296C5.54029 6.79406 4.90451 6.79342 4.51639 7.18155C4.3329 7.36503 4.24134 7.59807 4.22744 7.8382L4.22806 8.45984C4.22837 8.7707 3.9814 9.01768 3.67053 9.01736L3.14991 9.01684C3.11901 9.01539 3.08804 9.01536 3.05713 9.01675L3.0489 9.01674C2.80876 9.03064 2.57573 9.1222 2.39224 9.30569C2.36742 9.33051 2.34419 9.35634 2.32255 9.38306C0.535189 11.2488 0.559475 14.2103 2.39541 16.0463L5.94437 19.5952C7.80491 21.4558 10.8215 21.4558 12.682 19.5952L18.8927 13.3845C19.0802 13.197 19.1856 12.9427 19.1856 12.6774C19.1856 12.4122 19.0802 12.1579 18.8927 11.9703L8.24582 1.32347Z" fill="#FF5640"/>
<path d="M22.9962 20.2851C22.9401 21.0718 22.5462 21.8023 21.871 22.3362C20.7737 23.2213 19.2263 23.2213 18.129 22.3362C17.4538 21.8023 17.0599 21.0718 17.0038 20.2851C16.9617 19.4983 17.2711 18.7255 17.8759 18.1074L19.5077 16.4777L20 16L20.4923 16.4777L22.1241 18.1074C22.7289 18.7255 23.0383 19.4983 22.9962 20.2851Z" fill="#FF5640"/>
</svg>
