<svg width="24" height="24" viewBox="0 0 24 24" fill="none" xmlns="http://www.w3.org/2000/svg">
<path fill-rule="evenodd" clip-rule="evenodd" d="M23 12C23 5.9329 18.0881 1.01302 12.0241 1.00003L11.9999 0.999756L11.9758 1.00003C7.06246 1.01043 2.94203 4.19603 1.54203 8.65347C1.53616 8.67214 1.53088 8.69085 1.52615 8.70959C1.50766 8.7636 1.49355 8.81995 1.48431 8.87828C1.4411 9.15109 1.51263 9.41547 1.66306 9.62252L1.99637 10.0764C2.08742 10.2017 2.11879 10.3521 2.09598 10.4938C2.07387 10.6357 1.99758 10.769 1.87226 10.86L1.415 11.1887C1.20795 11.3391 1.05823 11.5684 1.01502 11.8413C0.928631 12.3867 1.30075 12.8989 1.8462 12.9853C2.39166 13.0717 2.90383 12.6996 2.99022 12.1541C3.03343 11.8813 2.96208 11.6169 2.81165 11.4099L2.47834 10.956C2.38729 10.8307 2.35592 10.6803 2.37873 10.5386C2.40084 10.3967 2.47713 10.2634 2.60245 10.1724L3.05971 9.84373C3.24438 9.70955 3.38331 9.51258 3.44184 9.278C3.4447 9.26965 3.44747 9.26124 3.45012 9.25278C4.42293 6.15549 6.99916 3.81173 10.2208 3.1734L5.12206 12.5211C4.96531 12.8085 4.95914 13.1544 5.10553 13.4472L7.38195 18H6.99996C6.44767 18 5.99996 18.4477 5.99996 19V22C5.99996 22.5523 6.44767 23 6.99996 23H17C17.5522 23 18 22.5523 18 22V19C18 18.4477 17.5522 18 17 18H16.6179L18.8943 13.4472C19.0407 13.1544 19.0345 12.8085 18.8778 12.5211L13.7805 3.17611C17.8982 4.00247 21 7.63901 21 12C21 12.5523 21.4477 13 22 13C22.5523 13 23 12.5523 23 12ZM11 5.92161L7.12806 13.0201L9.61802 18H14.3818L16.8718 13.0201L13 5.92171V12C13 12.5523 12.5522 13 12 13C11.4477 13 11 12.5523 11 12V5.92161ZM8.98268 20C8.9947 20.0002 9.00674 20.0002 9.01879 20H14.9811L15.0045 20.0001L15.0172 20H16V21H7.99996V20H8.98268Z" fill="#FF5640"/>
</svg>
