<svg width="24" height="24" viewBox="0 0 24 24" fill="none" xmlns="http://www.w3.org/2000/svg">
<path fill-rule="evenodd" clip-rule="evenodd" d="M1 5C1 4.44772 1.44772 4 2 4H22C22.5523 4 23 4.44772 23 5V18C23 18.5523 22.5523 19 22 19H5C4.82845 19 4.66699 18.9568 4.5259 18.8807C4.43981 18.8343 4.3613 18.7756 4.29271 18.707L3.89655 18.3068C3.78702 18.1973 3.64344 18.1428 3.49987 18.1431C3.35629 18.1428 3.21272 18.1973 3.10318 18.3068L2.70703 18.707C2.52606 18.888 2.27613 18.9998 1.99991 18.9998C1.44766 18.9998 1 18.5522 1 17.9999C1 17.4477 1.44766 17 1.99991 17C2.27613 17 2.52606 17.112 2.70703 17.293L3.10318 17.6932C3.21272 17.8027 3.35629 17.8572 3.49987 17.8569C3.64344 17.8572 3.78702 17.8027 3.89655 17.6932L4.29271 17.293C4.47367 17.112 4.72361 17 4.99982 17C4.99977 17 4.99988 17 4.99982 17H21V10H3V13C3 13.5523 2.55228 14 2 14C1.44772 14 1 13.5523 1 13V5ZM21 6V8H3V6H21Z" fill="#FF5640"/>
</svg>
