<svg width="24" height="24" viewBox="0 0 24 24" fill="none" xmlns="http://www.w3.org/2000/svg">
<path d="M11.7539 7.98438C11.7539 8.39858 11.4181 8.73438 11.0039 8.73438C10.5897 8.73438 10.2539 8.39858 10.2539 7.98438C10.2539 7.57015 10.5897 7.23438 11.0039 7.23438C11.4181 7.23438 11.7539 7.57015 11.7539 7.98438Z" fill="#FF5640"/>
<path fill-rule="evenodd" clip-rule="evenodd" d="M11.3881 1.07837C11.0793 0.948364 10.7259 0.981608 10.4469 1.16692C10.1678 1.35223 10 1.66499 10 2V3.68436L3.301 10.2322C3.10851 10.4204 3 10.6782 3 10.9474V13.5C3 14.0523 3.44772 14.5 4 14.5H7.72876C8.13548 14.8076 8.55495 15.0451 8.97876 15.217C8.91872 15.5855 8.7248 16.2172 8.31409 16.7969C7.83614 17.4715 7.12447 18 6.04037 18C5.48809 18 5.04037 18.4477 5.04037 19V22C5.04037 22.5523 5.48809 23 6.04037 23H8.08075C8.63303 23 9.08075 22.5523 9.08075 22C9.08075 21.4477 8.63303 21 8.08075 21H7.04037V19.9016C8.37764 19.6287 9.32821 18.8251 9.946 17.9531C10.5092 17.1583 10.8309 16.2624 10.9484 15.5621C11.6175 15.5304 12.2641 15.3486 12.8536 15.036C14.4275 14.2014 15.5 12.4823 15.5 10.5C15.5 9.94772 15.0523 9.5 14.5 9.5C13.9477 9.5 13.5 9.94772 13.5 10.5C13.5 11.7579 12.8225 12.7887 11.9166 13.2691C11.0535 13.7268 9.89071 13.7334 8.73121 12.7405C8.55001 12.5853 8.31931 12.5 8.08075 12.5H5V11.3683L11.699 4.82039C11.8915 4.63224 12 4.37444 12 4.10527V3.57914C19.5711 7.59368 20.9036 15.8498 16.5484 21H15.0026H14.9998C14.7236 21 14.4737 21.112 14.2927 21.293L13.8966 21.6932C13.787 21.8027 13.6434 21.8572 13.4999 21.8569C13.3563 21.8572 13.2127 21.8027 13.1032 21.6932L12.707 21.293C12.5261 21.112 12.2761 21 11.9999 21C11.4477 21 11 21.4477 11 21.9999C11 22.5522 11.4477 22.9998 11.9999 22.9998C12.2761 22.9998 12.5261 22.888 12.707 22.707L13.1032 22.3068C13.2127 22.1973 13.3563 22.1428 13.4999 22.1431C13.6434 22.1428 13.787 22.1973 13.8966 22.3068L14.2927 22.707C14.3599 22.7742 14.4366 22.8319 14.5206 22.8778C14.6629 22.9557 14.8263 23 15 23H17C17.2803 23 17.5477 22.8824 17.7372 22.6757C23.7745 16.0896 21.4271 5.30532 11.3881 1.07837Z" fill="#FF5640"/>
</svg>
