<svg width="24" height="24" viewBox="0 0 24 24" fill="none" xmlns="http://www.w3.org/2000/svg">
<path d="M1 3C1 2.44772 1.44772 2 2 2H22C22.5523 2 23 2.44772 23 3V16C23 16.5523 22.5523 17 22 17H13V20H16C16.5523 20 17 20.4477 17 21C17 21.5523 16.5523 22 16 22H8C7.44772 22 7 21.5523 7 21C7 20.4477 7.44772 20 8 20H11V17H5C4.82845 17 4.66699 16.9568 4.5259 16.8807C4.43981 16.8343 4.3613 16.7756 4.29271 16.707L3.89655 16.3068C3.78702 16.1973 3.64344 16.1428 3.49987 16.1431C3.35629 16.1428 3.21272 16.1973 3.10318 16.3068L2.70703 16.707C2.52606 16.888 2.27613 16.9998 1.99991 16.9998C1.44766 16.9998 1 16.5522 1 15.9999C1 15.4477 1.44766 15 1.99991 15C2.27613 15 2.52606 15.112 2.70703 15.293L3.10318 15.6932C3.21272 15.8027 3.35629 15.8572 3.49987 15.8569C3.64344 15.8572 3.78702 15.8027 3.89655 15.6932L4.29271 15.293C4.47367 15.112 4.72361 15 4.99982 15C4.99977 15 4.99988 15 4.99982 15H21V4H3V11C3 11.5523 2.55228 12 2 12C1.44772 12 1 11.5523 1 11V3Z" fill="#FF5640"/>
</svg>
