<svg width="24" height="24" viewBox="0 0 24 24" fill="none" xmlns="http://www.w3.org/2000/svg">
<path d="M12.0862 4.80789C11.932 4.6036 11.8557 4.34056 11.894 4.06701C11.9704 3.52008 12.4758 3.13873 13.0227 3.2152C13.5696 3.29168 13.951 3.79702 13.8745 4.34395C13.8363 4.6175 13.6909 4.84954 13.4866 5.00371L13.0354 5.34062C12.9118 5.43393 12.8379 5.56858 12.8184 5.71082C12.7981 5.85296 12.8322 6.0027 12.9255 6.12635L13.267 6.57411C13.4212 6.77839 13.4973 7.0414 13.4591 7.31496L13.458 7.32265C13.4568 7.33468 13.4554 7.34675 13.4538 7.35883L11.9914 18.3975C11.9189 18.945 11.4162 19.33 10.8687 19.2575C10.3212 19.185 9.93613 18.6823 10.0087 18.1348L11.4712 7.09615L11.4738 7.0779C11.4751 7.06464 11.4767 7.05134 11.4785 7.03802C11.5168 6.76446 11.6623 6.53245 11.8666 6.37829L12.3178 6.04137C12.4415 5.94806 12.5153 5.81342 12.5349 5.67117C12.5551 5.52903 12.521 5.37929 12.4277 5.25565L12.0862 4.80789Z" fill="#FF5640"/>
<path d="M7.70711 6.2929C8.09763 6.68342 8.09763 7.31659 7.70711 7.70711L3.41421 12L7.70711 16.2929C8.09763 16.6834 8.09763 17.3166 7.70711 17.7071C7.31658 18.0976 6.68342 18.0976 6.29289 17.7071L1.29289 12.7071C0.90237 12.3166 0.90237 11.6834 1.29289 11.2929L6.29289 6.2929C6.68342 5.90237 7.31658 5.90237 7.70711 6.2929Z" fill="#FF5640"/>
<path d="M16.2929 16.2929C15.9024 16.6834 15.9024 17.3166 16.2929 17.7071C16.6834 18.0976 17.3166 18.0976 17.7071 17.7071L22.7071 12.7071C23.0976 12.3166 23.0976 11.6834 22.7071 11.2929L17.7071 6.2929C17.3166 5.90237 16.6834 5.90237 16.2929 6.2929C15.9024 6.68342 15.9024 7.31659 16.2929 7.70711L20.5858 12L16.2929 16.2929Z" fill="#FF5640"/>
</svg>
