<svg width="24" height="24" viewBox="0 0 24 24" fill="none" xmlns="http://www.w3.org/2000/svg">
<path d="M2 1C1.44772 1 1 1.44772 1 2V16C1 16.5523 1.44772 17 2 17H15.5858L21.2929 22.7071C21.5789 22.9931 22.009 23.0787 22.3827 22.9239C22.7564 22.7691 23 22.4045 23 22V2C23 1.44772 22.5523 1 22 1C21.4477 1 21 1.44772 21 2V19.5858L16.7071 15.2929C16.5196 15.1054 16.2652 15 16 15H3V3H14C14.2837 3 14.5397 2.88189 14.7217 2.69217L15.1032 2.30682C15.2127 2.19728 15.3563 2.14278 15.4999 2.14313C15.6434 2.14278 15.787 2.19728 15.8966 2.30682L16.2927 2.70703C16.4737 2.888 16.7236 2.99982 16.9998 2.99982C17.5521 2.99982 17.9997 2.55217 17.9997 1.99991C17.9997 1.44766 17.5521 1 16.9998 1C16.7236 1 16.4737 1.112 16.2927 1.29297L15.8966 1.69318C15.787 1.80272 15.6434 1.85722 15.4999 1.85687C15.3563 1.85722 15.2127 1.80272 15.1032 1.69318L14.7217 1.30783C14.5397 1.11811 14.2837 1 14 1H2Z" fill="#FF5640"/>
</svg>
