<svg width="24" height="24" viewBox="0 0 24 24" fill="none" xmlns="http://www.w3.org/2000/svg">
<path fill-rule="evenodd" clip-rule="evenodd" d="M18.2929 1.29289C18.6834 0.90237 19.3166 0.90237 19.7071 1.29289L22.7071 4.29289C23.0976 4.68342 23.0976 5.31658 22.7071 5.70711L11.3663 17.0479C11.35 17.0642 11.3333 17.0798 11.3162 17.0947C11.2934 17.1232 11.2688 17.1507 11.2424 17.177C11.0471 17.3724 10.7912 17.4699 10.5352 17.4699L9.97213 17.467C9.81723 17.467 9.67717 17.53 9.57589 17.6318C9.47412 17.7331 9.41114 17.8731 9.41114 18.028L9.41401 18.5911C9.41401 18.8471 9.31647 19.103 9.12116 19.2983C8.73066 19.6888 8.09757 19.6888 7.70707 19.2983C7.31657 18.9078 7.31657 18.2747 7.70707 17.8842C7.90239 17.6889 8.15819 17.5912 8.41412 17.5912L8.97723 17.5941C9.13214 17.5941 9.2722 17.5311 9.37347 17.4294C9.47524 17.3281 9.53823 17.188 9.53823 17.0331L9.53536 16.47C9.53536 16.2141 9.63302 15.9583 9.82833 15.763C9.84439 15.7469 9.86085 15.7315 9.87769 15.7168C9.90069 15.688 9.9255 15.6603 9.95213 15.6337L17.5858 8.00003L16 6.41424L3 19.4142V21H5C5.55228 21 6 21.4477 6 22C6 22.5523 5.55228 23 5 23H2C1.44772 23 1 22.5523 1 22V19C1 18.7348 1.10536 18.4804 1.29289 18.2929L18.2929 1.29289ZM20.5858 5L19 6.58582L17.4142 5.00003L19 3.41421L20.5858 5Z" fill="#FF5640"/>
</svg>
