<svg width="24" height="24" viewBox="0 0 24 24" fill="none" xmlns="http://www.w3.org/2000/svg">
<path fill-rule="evenodd" clip-rule="evenodd" d="M1.07588 4.61722C1.02699 4.73512 1 4.86441 1 5V19C1 19.5523 1.44772 20 2 20H22C22.5523 20 23 19.5523 23 19V5C23 4.44772 22.5523 4 22 4H2C1.74408 4 1.48816 4.09763 1.29289 4.29289C1.19702 4.38877 1.12468 4.49927 1.07588 4.61722ZM3 7.41421L11.2929 15.7071C11.6834 16.0976 12.3166 16.0976 12.7071 15.7071L15.5071 12.9071L15.5141 12.9001C15.5514 12.872 15.5872 12.841 15.6211 12.8071C15.8164 12.6117 15.9141 12.3559 15.9141 12.1L15.9112 11.5369C15.9112 11.382 15.9742 11.2419 16.076 11.1407C16.1773 11.0389 16.3173 10.9759 16.4722 10.9759L17.0353 10.9788C17.2913 10.9788 17.5471 10.8811 17.7424 10.6858C18.1329 10.2953 18.1329 9.66221 17.7424 9.2717C17.3519 8.8812 16.7188 8.8812 16.3283 9.2717C16.133 9.46702 16.0355 9.72295 16.0355 9.97887L16.0383 10.542C16.0383 10.6969 15.9753 10.837 15.8736 10.9382C15.7723 11.04 15.6322 11.103 15.4773 11.103L14.9142 11.1001C14.6583 11.1001 14.4024 11.1976 14.207 11.393L14.2009 11.3992C14.1632 11.4274 14.1271 11.4587 14.0929 11.4929L12 13.5858L4.41421 6H21V18H3V7.41421Z" fill="#FF5640"/>
</svg>
