<svg width="24" height="24" viewBox="0 0 24 24" fill="none" xmlns="http://www.w3.org/2000/svg">
<path d="M8.71915 1.37534C9.06416 0.94408 9.69346 0.874158 10.1247 1.21917L12.6164 3.21252C12.6943 3.27332 12.7609 3.34379 12.8157 3.42106C12.8576 3.48005 12.8925 3.54284 12.9203 3.60818C12.966 3.71581 12.9923 3.83035 12.9986 3.94619C13.0028 4.02367 12.9981 4.10189 12.984 4.1792C12.9594 4.31509 12.9063 4.44755 12.8236 4.56732L10.832 7.55468C10.5257 8.01421 9.9048 8.13839 9.44527 7.83203C8.98574 7.52568 8.86157 6.90481 9.16792 6.44528L9.92245 5.31348C7.3151 6.12277 5.35993 8.41511 5.04465 11.2036C5.0152 11.4641 4.88815 11.6899 4.7041 11.8486L4.44314 12.1515C4.34263 12.2693 4.29968 12.4168 4.31141 12.5599C4.32244 12.703 4.38814 12.8418 4.50601 12.9423L4.93636 13.3055C5.1311 13.4716 5.26238 13.7119 5.28427 13.9872C5.32804 14.5377 4.91726 15.0194 4.36675 15.0632C3.81623 15.107 3.3345 14.6962 3.29074 14.1457C3.26885 13.8703 3.36069 13.6123 3.52675 13.4176L3.89431 12.991C3.99482 12.8731 4.03777 12.7256 4.02604 12.5825C4.01501 12.4394 3.94931 12.3006 3.83144 12.2001L3.52767 11.9437C3.25305 11.7749 3.07032 11.4787 3.05235 11.1465C3.04585 11.0548 3.05194 10.9651 3.06916 10.8791C3.52009 7.2533 6.12614 4.29707 9.56553 3.33307L8.87533 2.78091C8.44407 2.4359 8.37414 1.8066 8.71915 1.37534Z" fill="#FF5640"/>
<path d="M14.0775 18.6866L14.8321 17.5547C15.1384 17.0952 15.0142 16.4743 14.5547 16.168C14.0952 15.8616 13.4743 15.9858 13.168 16.4453L11.1764 19.4326C11.094 19.5519 11.041 19.6838 11.0162 19.8191C11.0019 19.8975 10.9971 19.9768 11.0015 20.0554L11.0023 20.0687C11.0108 20.1933 11.042 20.3116 11.092 20.4195C11.1184 20.4768 11.1504 20.5319 11.1879 20.5839C11.242 20.6592 11.3073 20.7279 11.3834 20.7874L13.8753 22.7808C14.3065 23.1258 14.9358 23.0559 15.2808 22.6247C15.6258 22.1934 15.5559 21.5641 15.1246 21.2191L14.4344 20.6669C18.2222 19.6051 21 16.127 21 12C21 11.4477 20.5523 11 20 11C19.4477 11 19 11.4477 19 12C19 15.1426 16.9291 17.8016 14.0775 18.6866Z" fill="#FF5640"/>
<path d="M13.6 7.20006C14.0418 7.53143 14.1314 8.15823 13.8 8.60006L12 11.0001H14C14.3788 11.0001 14.725 11.2141 14.8944 11.5528C15.0638 11.8916 15.0273 12.297 14.8 12.6001L11.8 16.6001C11.4686 17.0419 10.8418 17.1314 10.4 16.8001C9.95816 16.4687 9.86862 15.8419 10.2 15.4001L12 13.0001H9.99999C9.62122 13.0001 9.27496 12.7861 9.10556 12.4473C8.93617 12.1085 8.97273 11.7031 9.19999 11.4001L12.2 7.40006C12.5314 6.95823 13.1582 6.86869 13.6 7.20006Z" fill="#FF5640"/>
</svg>
