<svg width="24" height="24" viewBox="0 0 24 24" fill="none" xmlns="http://www.w3.org/2000/svg">
<g clip-path="url(#clip0_210_86)">
<mask id="mask0_210_86" style="mask-type:luminance" maskUnits="userSpaceOnUse" x="0" y="0" width="24" height="24">
<path d="M24 0H0V24H24V0Z" fill="white"/>
</mask>
<g mask="url(#mask0_210_86)">
<mask id="mask1_210_86" style="mask-type:luminance" maskUnits="userSpaceOnUse" x="-1" y="0" width="25" height="25">
<path d="M23.5488 0.0319824H-0.451172V24.032H23.5488V0.0319824Z" fill="white"/>
</mask>
<g mask="url(#mask1_210_86)">
<path fill-rule="evenodd" clip-rule="evenodd" d="M5.1032 2.33862L4.72722 2.71845C4.5449 2.91155 4.28653 3.03205 4 3.03205H3V21.0321H21V3.03205H12C11.4477 3.03205 11 2.58433 11 2.03205C11 1.47977 11.4477 1.03205 12 1.03205H22C22.5523 1.03205 23 1.47977 23 2.03205V22.0321C23 22.5843 22.5523 23.0321 22 23.0321H2C1.44772 23.0321 1 22.5843 1 22.0321V2.03205C1 1.47977 1.44772 1.03205 2 1.03205H3.98817L3.99993 1.03198C4.27615 1.03198 4.52608 1.14381 4.70705 1.32478L5.1032 1.72499C5.21274 1.83452 5.35631 1.88902 5.49989 1.88867C5.64346 1.88902 5.78704 1.83452 5.89657 1.72499L6.29273 1.32478C6.4737 1.14381 6.72363 1.03198 6.99984 1.03198C7.5521 1.03198 7.99976 1.47964 7.99976 2.03189C7.99976 2.58415 7.5521 3.03181 6.99984 3.03181C6.72363 3.03181 6.4737 2.9198 6.29273 2.73883L5.89657 2.33862C5.78704 2.22909 5.64346 2.17459 5.49989 2.17494C5.35631 2.17459 5.21274 2.22909 5.1032 2.33862ZM6 13.0321C5.44772 13.0321 5 13.4798 5 14.0321V18.0321C5 18.5843 5.44772 19.0321 6 19.0321H10C10.5523 19.0321 11 18.5843 11 18.0321V14.0321C11 13.4798 10.5523 13.0321 10 13.0321H9V11.0321H15V13.0321H14C13.4477 13.0321 13 13.4798 13 14.0321V18.0321C13 18.5843 13.4477 19.0321 14 19.0321H18C18.5523 19.0321 19 18.5843 19 18.0321V14.0321C19 13.4798 18.5523 13.0321 18 13.0321H17V11.0321H18C18.5523 11.0321 19 10.5843 19 10.0321V6.03205C19 5.47977 18.5523 5.03205 18 5.03205H6C5.44772 5.03205 5 5.47977 5 6.03205V10.0321C5 10.5843 5.44772 11.0321 6 11.0321H7V13.0321H6ZM16 15.0321H15V17.0321H17V15.0321H16ZM16 9.03205H17V7.03205H7V9.03205H8H16ZM8 15.0321H7V17.0321H9V15.0321H8Z" fill="#FF5640"/>
</g>
</g>
</g>
<defs>
<clipPath id="clip0_210_86">
<rect width="24" height="24" fill="white"/>
</clipPath>
</defs>
</svg>
