<svg width="24" height="24" viewBox="0 0 24 24" fill="none" xmlns="http://www.w3.org/2000/svg">
<path d="M15.0134 6.87592H17V4.19102C17 4.17631 16.9877 4.16371 16.9713 4.16145C12.6227 3.56089 9.9513 4.56817 9.9513 8.32661V10.2233C9.9513 10.2511 9.92595 10.2736 9.89468 10.2736H7V13.3149H9.89468C9.92595 13.3149 9.9513 13.3375 9.9513 13.3652V20H13.533V13.3652C13.533 13.3375 13.5583 13.3149 13.5896 13.3149H16.4516C16.4539 13.3149 16.4558 13.3134 16.4561 13.3114L16.8711 10.2736H13.5896C13.5583 10.2736 13.533 10.2511 13.533 10.2233V8.32661C13.533 7.28738 13.9878 6.87592 15.0134 6.87592Z" fill="#FF5640"/>
</svg>
