<svg width="24" height="24" viewBox="0 0 24 24" fill="none" xmlns="http://www.w3.org/2000/svg">
<path d="M6.99982 21C6.72361 21 6.47367 21.112 6.29271 21.293L5.89655 21.6932C5.78702 21.8027 5.64344 21.8572 5.49987 21.8569C5.35629 21.8572 5.21272 21.8027 5.10318 21.6932L4.70703 21.293C4.52606 21.112 4.27613 21 3.99991 21C3.44766 21 3 21.4477 3 21.9999C3 22.5522 3.44766 22.9998 3.99991 22.9998C4.27613 22.9998 4.52606 22.888 4.70703 22.707L5.10318 22.3068C5.21272 22.1973 5.35629 22.1428 5.49987 22.1431C5.64344 22.1428 5.78702 22.1973 5.89655 22.3068L6.29271 22.707C6.47367 22.888 6.72361 22.9998 6.99982 22.9998C7.55208 22.9998 7.99973 22.5522 7.99973 21.9999C7.99973 21.4477 7.55208 21 6.99982 21Z" fill="#FF5640"/>
<path fill-rule="evenodd" clip-rule="evenodd" d="M13 1C13.5523 1 14 1.44772 14 2V7C14 7.55228 14.4477 8 15 8H20C20.5523 8 21 8.44772 21 9C21 9.55228 20.5523 10 20 10H15C13.3431 10 12 8.65685 12 7V2C12 1.44772 12.4477 1 13 1Z" fill="#FF5640"/>
<path fill-rule="evenodd" clip-rule="evenodd" d="M3 2C3 1.44772 3.44772 1 4 1H13C13.2652 1 13.5196 1.10536 13.7071 1.29289L20.7071 8.29289C20.8946 8.48043 21 8.73478 21 9V22C21 22.5523 20.5523 23 20 23L6.99982 22.9998C6.44754 22.9998 6 22.5523 6 22C6 21.4477 6.44754 21 6.99982 21H19V9.41421L12.5858 3H5V17C5 17.5523 4.55228 18 4 18C3.44772 18 3 17.5523 3 17V2Z" fill="#FF5640"/>
</svg>
