<svg width="24" height="24" viewBox="0 0 24 24" fill="none" xmlns="http://www.w3.org/2000/svg">
<path d="M2.70703 7.70685C2.52606 7.88782 2.27613 7.99982 1.99991 7.99982C1.44766 7.99982 1 7.55216 1 6.99991C1 6.44766 1.44766 6 1.99991 6C2.27613 6 2.52606 6.11183 2.70703 6.29279L3.10318 6.69301C3.21272 6.80254 3.35629 6.85704 3.49987 6.85669C3.64344 6.85704 3.78702 6.80254 3.89655 6.69301L4.29271 6.29279C4.47367 6.11183 4.72361 6 4.99982 6L5.00352 6.00001H22C22.5523 6.00001 23 6.44772 23 7.00001C23 7.55229 22.5523 8.00001 22 8.00001H4.99998C4.71746 8.00001 4.4623 7.88285 4.28045 7.69447L3.89655 7.30664C3.78702 7.19711 3.64344 7.1426 3.49987 7.14296C3.35629 7.1426 3.21272 7.19711 3.10318 7.30664L2.70703 7.70685Z" fill="#FF5640"/>
<path d="M5 11C4.44771 11 4 11.4477 4 12C4 12.5523 4.44771 13 5 13H19C19.5523 13 20 12.5523 20 12C20 11.4477 19.5523 11 19 11H5Z" fill="#FF5640"/>
<path d="M7 17C7 16.4477 7.44771 16 8 16H16C16.5523 16 17 16.4477 17 17C17 17.5523 16.5523 18 16 18H8C7.44771 18 7 17.5523 7 17Z" fill="#FF5640"/>
</svg>
