<svg width="24" height="24" viewBox="0 0 24 24" fill="none" xmlns="http://www.w3.org/2000/svg">
<path d="M2.69306 4.27905L2.30664 3.89655C2.19711 3.78702 2.1426 3.64344 2.14296 3.49987C2.1426 3.35629 2.19711 3.21272 2.30664 3.10318L2.70685 2.70703C2.88782 2.52606 2.99982 2.27613 2.99982 1.99991C2.99982 1.44766 2.55216 1 1.99991 1C1.44766 1 1 1.44766 1 1.99991C1 2.27613 1.11183 2.52606 1.29279 2.70703L1.69301 3.10318C1.80254 3.21272 1.85704 3.35629 1.85669 3.49987C1.85704 3.64344 1.80254 3.78702 1.69301 3.89655L1.29279 4.29271C1.11183 4.47367 1 4.72361 1 4.99982C1 5.00374 1.00002 5.00765 1.00007 5.01156V10C1.00007 10.5523 1.44778 11 2.00007 11H10.0001C10.5524 11 11.0001 10.5523 11.0001 10V2C11.0001 1.44772 10.5524 1 10.0001 1H6.00007C5.44778 1 5.00007 1.44772 5.00007 2C5.00007 2.55228 5.44778 3 6.00007 3H9.00007V9H3.00007V5C3.00007 4.71675 2.8823 4.461 2.69306 4.27905Z" fill="#FF5640"/>
<path fill-rule="evenodd" clip-rule="evenodd" d="M1.00006 14C1.00006 13.4477 1.44777 13 2.00006 13H10.0001C10.5524 13 11.0001 13.4477 11.0001 14V22C11.0001 22.5523 10.5524 23 10.0001 23H2.00006C1.44777 23 1.00006 22.5523 1.00006 22V14ZM3.00006 15V21H9.00006V15H3.00006Z" fill="#FF5640"/>
<path fill-rule="evenodd" clip-rule="evenodd" d="M14.0001 13C13.4478 13 13.0001 13.4477 13.0001 14V22C13.0001 22.5523 13.4478 23 14.0001 23H22.0001C22.5524 23 23.0001 22.5523 23.0001 22V14C23.0001 13.4477 22.5524 13 22.0001 13H14.0001ZM15.0001 21V15H21.0001V21H15.0001Z" fill="#FF5640"/>
<path fill-rule="evenodd" clip-rule="evenodd" d="M13.0001 2C13.0001 1.44772 13.4478 1 14.0001 1H22.0001C22.5524 1 23.0001 1.44772 23.0001 2V10C23.0001 10.5523 22.5524 11 22.0001 11H14.0001C13.4478 11 13.0001 10.5523 13.0001 10V2ZM15.0001 3V9H21.0001V3H15.0001Z" fill="#FF5640"/>
</svg>
