<svg width="24" height="24" viewBox="0 0 24 24" fill="none" xmlns="http://www.w3.org/2000/svg">
<path fill-rule="evenodd" clip-rule="evenodd" d="M11.5144 1.12584C11.8164 0.958053 12.1836 0.958053 12.4856 1.12584L21.4856 6.12584C21.8031 6.30221 22 6.63683 22 7V11C22 11.5523 21.5523 12 21 12H20V17H21C21.4589 17 21.8589 17.3123 21.9702 17.7575L22.9702 21.7575C23.0448 22.0562 22.9777 22.3727 22.7882 22.6154C22.5987 22.8581 22.3079 23 22 23H14C13.7306 23 13.486 22.8934 13.3062 22.7202L13.2927 22.707L12.8966 22.3068C12.787 22.1973 12.6434 22.1428 12.4999 22.1431C12.3563 22.1428 12.2127 22.1973 12.1032 22.3068L11.707 22.707C11.5261 22.888 11.2761 22.9998 10.9999 22.9998C10.4477 22.9998 10 22.5522 10 21.9999C10 21.4477 10.4477 21 10.9999 21C11.2761 21 11.5261 21.112 11.707 21.293L12.1032 21.6932C12.2127 21.8027 12.3563 21.8572 12.4999 21.8569C12.6434 21.8572 12.787 21.8027 12.8966 21.6932L13.2927 21.293L13.3027 21.2832L13.3106 21.2756C13.49 21.1048 13.7328 21 14 21H20.7192L20.2192 19H3.78079L3.28079 21H6.00001C6.55229 21 7.00001 21.4477 7.00001 22C7.00001 22.5523 6.55229 23 6.00001 23H2.00001C1.69207 23 1.40131 22.8581 1.2118 22.6154C1.0223 22.3727 0.955179 22.0562 1.02987 21.7575L2.02987 17.7575C2.14116 17.3123 2.54114 17 3.00001 17H4V12H3C2.44772 12 2 11.5523 2 11V7C2 6.75004 2.09171 6.52151 2.24331 6.3462C2.27897 6.30492 2.31813 6.26641 2.36051 6.23117C2.41329 6.18722 2.47067 6.1486 2.53181 6.11615L11.5144 1.12584ZM4 8V10H20V8H4ZM17.1409 6H6.85913L12 3.14396L17.1409 6ZM18 17V12H16V17H18ZM14 17V12H10V17H14ZM8 17V12H6V17H8Z" fill="#FF5640"/>
</svg>
