<svg width="24" height="24" viewBox="0 0 24 24" fill="none" xmlns="http://www.w3.org/2000/svg">
<path d="M4 1C4.55228 1 5 1.44772 5 2V13H18.1315L15.1679 8.5547C14.944 8.2188 14.944 7.7812 15.1679 7.4453L18.1315 3H12C11.8284 3 11.667 2.9568 11.5259 2.88069C11.4398 2.83429 11.3613 2.77563 11.2927 2.70703L10.8966 2.30682C10.787 2.19728 10.6434 2.14278 10.4999 2.14313C10.3563 2.14278 10.2127 2.19728 10.1032 2.30682L9.70703 2.70703C9.52606 2.888 9.27613 2.99982 8.99991 2.99982C8.44766 2.99982 8 2.55216 8 1.99991C8 1.44766 8.44766 1 8.99991 1C9.27613 1 9.52606 1.112 9.70703 1.29297L10.1032 1.69318C10.2127 1.80272 10.3563 1.85722 10.4999 1.85687C10.6434 1.85722 10.787 1.80272 10.8966 1.69318L11.2927 1.29297C11.4737 1.112 11.7236 1 11.9998 1H20C20.3688 1 20.7077 1.20298 20.8817 1.52814C21.0557 1.8533 21.0366 2.24784 20.8321 2.5547L17.2019 8L20.8321 13.4453C21.0366 13.7522 21.0557 14.1467 20.8817 14.4719C20.7077 14.797 20.3688 15 20 15H5V22C5 22.5523 4.55228 23 4 23C3.44772 23 3 22.5523 3 22V2C3 1.44772 3.44772 1 4 1Z" fill="#FF5640"/>
</svg>
