<svg width="24" height="24" viewBox="0 0 24 24" fill="none" xmlns="http://www.w3.org/2000/svg">
<path d="M4 3C2.34315 3 1 4.34315 1 6V18C1 19.6569 2.34315 21 4 21H5C5.28365 21 5.53971 20.8819 5.72171 20.6922L6.10318 20.3068C6.21272 20.1973 6.35629 20.1428 6.49987 20.1431C6.64344 20.1428 6.78702 20.1973 6.89655 20.3068L7.29271 20.707C7.47367 20.888 7.72361 20.9998 7.99982 20.9998C8.55208 20.9998 8.99973 20.5522 8.99973 19.9999C8.99973 19.4477 8.55208 19 7.99982 19C7.72361 19 7.47367 19.112 7.29271 19.293L6.89655 19.6932C6.78702 19.8027 6.64344 19.8572 6.49987 19.8569C6.35629 19.8572 6.21272 19.8027 6.10318 19.6932L5.72171 19.3078C5.56186 19.1412 5.34487 19.0298 5.10224 19.0052C5.06863 19.0017 5.03452 19 5 19C4.99997 19 5.00003 19 5 19H4C3.44772 19 3 18.5523 3 18V6C3 5.44772 3.44772 5 4 5H7.58579L10.2929 7.70711C10.4804 7.89464 10.7348 8 11 8H20C20.5523 8 21 8.44772 21 9V18C21 18.5523 20.5523 19 20 19H13C12.4477 19 12 19.4477 12 20C12 20.5523 12.4477 21 13 21H20C21.6569 21 23 19.6569 23 18V9C23 7.34315 21.6569 6 20 6H11.4142L8.70711 3.29289C8.51957 3.10536 8.26522 3 8 3H4Z" fill="#FF5640"/>
</svg>
