<svg width="24" height="24" viewBox="0 0 24 24" fill="none" xmlns="http://www.w3.org/2000/svg">
<path d="M16.0002 4.99977C16.2764 4.99977 16.5263 4.88776 16.7073 4.70679L17.1034 4.30658C17.213 4.19705 17.3566 4.14255 17.5001 4.1429C17.6437 4.14255 17.7873 4.19705 17.8968 4.30658L18.293 4.70679C18.4739 4.88776 18.7239 4.99977 19.0001 4.99977C19.5523 4.99977 20 4.55211 20 3.99985C20 3.4476 19.5523 2.99994 19.0001 2.99994C18.7239 2.99994 18.4739 3.11177 18.293 3.29274L17.8968 3.69295C17.7873 3.80248 17.6437 3.85698 17.5001 3.85663C17.3566 3.85698 17.213 3.80248 17.1034 3.69295L16.7073 3.29274C16.5263 3.11177 16.2764 2.99994 16.0002 2.99994C15.4479 2.99994 15.0003 3.4476 15.0003 3.99985C15.0003 4.55211 15.4479 4.99977 16.0002 4.99977Z" fill="#FF5640"/>
<path fill-rule="evenodd" clip-rule="evenodd" d="M18.293 4.70679C18.4739 4.88776 18.7239 4.99977 19.0001 4.99977C19.5523 4.99977 20 4.55211 20 3.99985C20 3.4476 19.5523 2.99994 19.0001 2.99994C18.7239 2.99994 18.4739 3.11177 18.293 3.29274L17.8968 3.69295C17.7875 3.8023 17.6442 3.85681 17.5008 3.85663C17.5006 3.85663 17.5011 3.85663 17.5008 3.85663C17.5006 3.85663 17.4997 3.85663 17.4994 3.85663C17.3561 3.85681 17.2128 3.8023 17.1034 3.69295L16.7073 3.29274C16.5263 3.11177 16.2764 2.99994 16.0002 2.99994C15.4479 2.99994 15.0003 3.4476 15.0003 3.99985C15.0003 4.55211 15.4479 4.99977 16.0002 4.99977C16.2764 4.99977 16.5263 4.88776 16.7073 4.70679L17.1034 4.30658C17.2128 4.19723 17.3561 4.14273 17.4994 4.1429C17.4992 4.1429 17.4997 4.1429 17.4994 4.1429C17.4997 4.1429 17.5006 4.1429 17.5008 4.1429C17.6442 4.14273 17.7875 4.19723 17.8968 4.30658L18.293 4.70679Z" fill="#FF5640"/>
<path fill-rule="evenodd" clip-rule="evenodd" d="M7.5 12C8.32843 12 9 11.3284 9 10.5C9 9.67157 8.32843 9 7.5 9C6.67157 9 6 9.67157 6 10.5C6 11.3284 6.67157 12 7.5 12ZM7.5 14C9.433 14 11 12.433 11 10.5C11 8.567 9.433 7 7.5 7C5.567 7 4 8.567 4 10.5C4 12.433 5.567 14 7.5 14Z" fill="#FF5640"/>
<path fill-rule="evenodd" clip-rule="evenodd" d="M1 6C1 4.34315 2.34314 3 4 3H11C11.5523 3 12 3.44772 12 4C12 4.55229 11.5523 5 11 5H4C3.44772 5 3 5.44771 3 6V16C3 17.6569 4.34315 19 6 19C7.65686 19 9 17.6569 9 16C9 15.4477 9.44772 15 10 15H14C14.5523 15 15 15.4477 15 16C15 17.6569 16.3431 19 18 19C19.6569 19 21 17.6569 21 16V6C21 5.44772 20.5523 5 20 5H19C18.4477 5 18 4.55229 18 4C18 3.44772 18.4477 3 19 3H20C21.6568 3 23 4.34315 23 6V16C23 18.7614 20.7614 21 18 21C15.581 21 13.5633 19.2822 13.1 17H10.9C10.4367 19.2822 8.41896 21 6 21C3.23858 21 1 18.7614 1 16V6Z" fill="#FF5640"/>
<path fill-rule="evenodd" clip-rule="evenodd" d="M16.5 7C17.0523 7 17.5 7.44772 17.5 8V9.5H19C19.5523 9.5 20 9.94772 20 10.5C20 11.0523 19.5523 11.5 19 11.5H17.5V13C17.5 13.5523 17.0523 14 16.5 14C15.9477 14 15.5 13.5523 15.5 13V11.5H14C13.4477 11.5 13 11.0523 13 10.5C13 9.94771 13.4477 9.5 14 9.5H15.5V8C15.5 7.44772 15.9477 7 16.5 7Z" fill="#FF5640"/>
</svg>
