<svg width="24" height="24" viewBox="0 0 24 24" fill="none" xmlns="http://www.w3.org/2000/svg">
<path fill-rule="evenodd" clip-rule="evenodd" d="M10.4533 3.13223C9.64192 3.27265 8.86846 3.52164 8.14789 3.86345C7.6489 4.10015 7.05251 3.88753 6.8158 3.38854C6.5791 2.88955 6.79173 2.29315 7.29072 2.05645C8.71949 1.37869 10.3169 1 12 1C18.0751 1 23 5.92487 23 12C23 18.0751 18.0751 23 12 23C5.92487 23 1 18.0751 1 12C1 10.8493 1.17702 9.73807 1.50604 8.69306L1.54692 8.56232C1.63936 8.26552 1.72273 7.99786 1.88597 7.63419C1.98371 7.41645 2.14974 7.25077 2.34744 7.15106C2.43857 7.0968 2.53768 7.0583 2.64035 7.03651L3.17056 6.92682C3.31625 6.8959 3.43541 6.80871 3.51035 6.69277C3.58586 6.57721 3.61714 6.4329 3.58623 6.28721L3.47113 5.75815C3.42005 5.51743 3.46085 5.25735 3.60556 5.03467C3.89491 4.58944 4.49035 4.46308 4.93557 4.75242C5.3808 5.04176 5.50716 5.63721 5.21782 6.08243C5.0731 6.30512 4.85185 6.44793 4.61114 6.49901L4.08094 6.60871C3.93524 6.63963 3.81608 6.72682 3.74114 6.84276C3.66563 6.95832 3.63435 7.10263 3.66527 7.24832L3.78036 7.77738C3.79951 7.86764 3.80577 7.96063 3.79848 8.05335C3.79726 8.1873 3.76894 8.32319 3.71058 8.45322C3.59868 8.7025 3.54969 8.85917 3.4577 9.15341L3.41372 9.2937C3.24134 9.84122 3.11979 10.4118 3.05484 11H7.02617C7.11162 9.42436 7.41136 8.02313 7.99841 6.70226C8.56361 5.43056 9.3765 4.27535 10.4533 3.13223ZM9.82603 7.51454C10.2943 6.46103 10.9921 5.46111 12 4.40789C13.0079 5.46111 13.7057 6.46103 14.174 7.51454C14.6308 8.54247 14.8881 9.66411 14.9705 11H9.02949C9.11193 9.66411 9.36917 8.54247 9.82603 7.51454ZM9.82603 16.4855C9.36917 15.4575 9.11193 14.3359 9.02949 13H14.9705C14.8881 14.3359 14.6308 15.4575 14.174 16.4855C13.7057 17.539 13.0079 18.5389 12 19.5921C10.9921 18.5389 10.2943 17.539 9.82603 16.4855ZM16.0016 17.2977C15.4364 18.5694 14.6236 19.7245 13.5469 20.8676C17.4583 20.19 20.5043 16.9876 20.9451 13H16.9738C16.8884 14.5756 16.5886 15.9769 16.0016 17.2977ZM16.0016 6.70226C16.5886 8.02313 16.8884 9.42436 16.9738 11H20.9451C20.5043 7.0124 17.4583 3.80997 13.5469 3.13243C14.6236 4.27548 15.4364 5.43063 16.0016 6.70226ZM7.02617 13H3.05493C3.49574 16.9876 6.54171 20.19 10.4531 20.8676C9.37641 19.7245 8.56358 18.5694 7.99841 17.2977C7.41136 15.9769 7.11162 14.5756 7.02617 13Z" fill="#FF5640"/>
</svg>
