<svg width="24" height="24" viewBox="0 0 24 24" fill="none" xmlns="http://www.w3.org/2000/svg">
<path d="M3 12C3 7.02944 7.02944 3 12 3C12.5523 3 13 2.55228 13 2C13 1.44772 12.5523 1 12 1C5.92487 1 1 5.92487 1 12C1 18.0751 5.92487 23 12 23C18.0751 23 23 18.0751 23 12C23 11.4477 22.5523 11 22 11C21.4477 11 21 11.4477 21 12C21 16.9706 16.9706 21 12 21C7.02944 21 3 16.9706 3 12Z" fill="#FF5640"/>
<path d="M7 12C7 9.23858 9.23858 7 12 7C12.5523 7 13 6.55228 13 6C13 5.44772 12.5523 5 12 5C8.13401 5 5 8.13401 5 12C5 15.866 8.13401 19 12 19C15.866 19 19 15.866 19 12C19 11.4477 18.5523 11 18 11C17.4477 11 17 11.4477 17 12C17 14.7614 14.7614 17 12 17C9.23858 17 7 14.7614 7 12Z" fill="#FF5640"/>
<path d="M22.7071 1.29289C23.0976 1.68342 23.0976 2.31658 22.7071 2.70711L18.4142 7H22C22.5523 7 23 7.44772 23 8C23 8.55228 22.5523 9 22 9H16.4141L14.861 10.5531C14.8227 10.5915 14.7819 10.6261 14.7393 10.6569C14.552 10.819 14.3189 10.8999 14.0858 10.8999L13.5227 10.897C13.3678 10.897 13.2277 10.96 13.1264 11.0618C13.0247 11.163 12.9617 11.3031 12.9617 11.458L12.9645 12.0211C12.9645 12.2771 12.867 12.533 12.6717 12.7283C12.2812 13.1188 11.6481 13.1188 11.2576 12.7283C10.8671 12.3378 10.8671 11.7047 11.2576 11.3142C11.4529 11.1189 11.7087 11.0212 11.9647 11.0212L12.5278 11.0241C12.6827 11.0241 12.8227 10.9611 12.924 10.8593C13.0258 10.7581 13.0888 10.618 13.0888 10.4631L13.0859 9.89999C13.0859 9.64407 13.1836 9.38826 13.3789 9.19295C13.4127 9.15916 13.4483 9.1283 13.4854 9.10036L15 7.58572V2C15 1.44772 15.4477 1 16 1C16.5523 1 17 1.44772 17 2V5.58573L21.2928 1.29289C21.6834 0.90237 22.3165 0.90237 22.7071 1.29289Z" fill="#FF5640"/>
</svg>
