<svg width="24" height="24" viewBox="0 0 24 24" fill="none" xmlns="http://www.w3.org/2000/svg">
<path fill-rule="evenodd" clip-rule="evenodd" d="M3.30655 7C4.75954 3.49442 8.08235 1 12 1C15.9177 1 19.2405 3.49442 20.6935 7H21C21.5523 7 22 7.44772 22 8V12C22 12.5523 21.5523 13 21 13H20V17H21C21.4589 17 21.8589 17.3123 21.9702 17.7575L22.9702 21.7575C23.0448 22.0562 22.9777 22.3727 22.7882 22.6154C22.5987 22.8581 22.3079 23 22 23H14C13.7303 23 13.4855 22.8932 13.3056 22.7196L13.2927 22.707L12.8966 22.3068C12.787 22.1973 12.6434 22.1428 12.4999 22.1431C12.3563 22.1428 12.2127 22.1973 12.1032 22.3068L11.707 22.707C11.5261 22.888 11.2761 22.9998 10.9999 22.9998C10.4477 22.9998 10 22.5522 10 21.9999C10 21.4477 10.4477 21 10.9999 21C11.2761 21 11.5261 21.112 11.707 21.293L12.1032 21.6932C12.2127 21.8027 12.3563 21.8572 12.4999 21.8569C12.6434 21.8572 12.787 21.8027 12.8966 21.6932L13.2927 21.293L13.3056 21.2804C13.4855 21.1068 13.7303 21 14 21H20.7192L20.2192 19H3.78079L3.28079 21H6.00001C6.55229 21 7.00001 21.4477 7.00001 22C7.00001 22.5523 6.55229 23 6.00001 23H2.00001C1.69207 23 1.40131 22.8581 1.2118 22.6154C1.0223 22.3727 0.955179 22.0562 1.02987 21.7575L2.02987 17.7575C2.14116 17.3123 2.54114 17 3.00001 17H4V13H3C2.44772 13 2 12.5523 2 12V8C2 7.44772 2.44772 7 3 7H3.30655ZM5.51808 7C6.8215 4.58988 9.25458 3 12 3C14.7454 3 17.1785 4.58988 18.4819 7H5.51808ZM18 13V17H16V13H18ZM14 13V17H10V13H14ZM8 13V17H6V13H8ZM20 11V9H4V11H20Z" fill="#FF5640"/>
</svg>
