<svg width="24" height="24" viewBox="0 0 24 24" fill="none" xmlns="http://www.w3.org/2000/svg">
<path d="M9.96846 5.25142C8.37404 3.58286 5.80863 3.58286 4.21421 5.25142C3.06679 6.45219 2.72518 8.20136 3.22034 9.73254C3.39027 10.258 3.10203 10.8218 2.57654 10.9917C2.05105 11.1616 1.4873 10.8734 1.31736 10.3479C0.609842 8.16003 1.08315 5.63314 2.76824 3.86969C5.15039 1.37677 9.03228 1.37677 11.4144 3.86969L12 4.48249L12.5856 3.86969C14.9677 1.37677 18.8496 1.37677 21.2318 3.86969C22.61 5.31196 23.1764 7.26535 22.9524 9.11992C22.8862 9.66822 22.388 10.059 21.8397 9.99278C21.2914 9.92656 20.9006 9.42838 20.9668 8.88008C21.124 7.57899 20.7232 6.2324 19.7858 5.25142C18.1914 3.58286 15.626 3.58286 14.0316 5.25142L12.723 6.62082C12.5343 6.81826 12.2731 6.92996 12 6.92996C11.7269 6.92996 11.4657 6.81826 11.277 6.62082L9.96846 5.25142Z" fill="#FF5640"/>
<path d="M18.4243 14.277C18.8236 14.6586 18.838 15.2916 18.4564 15.6909L12.723 21.6909C12.3414 22.0902 11.7084 22.1045 11.3091 21.723C10.9099 21.3414 10.8955 20.7084 11.277 20.3091L17.0104 14.3091C17.392 13.9098 18.025 13.8955 18.4243 14.277Z" fill="#FF5640"/>
<path d="M6.01149 14.6774C6.4067 14.2916 7.03982 14.2993 7.4256 14.6945C7.46014 14.7221 8.40892 15.6905 8.44032 15.7234C8.63101 15.9232 8.72254 16.1813 8.71656 16.4372L8.70053 17.0001C8.69691 17.155 8.7566 17.2964 8.85598 17.4001C8.95485 17.5042 9.0934 17.5704 9.24826 17.574L9.81129 17.5843C10.0672 17.5903 10.3207 17.6938 10.5114 17.8936C10.8927 18.2931 10.8779 18.9261 10.4784 19.3073C10.0789 19.6886 9.44595 19.6738 9.06468 19.2743C8.87398 19.0745 8.78233 18.8164 8.78831 18.5606L8.80434 17.9977C8.80796 17.8428 8.74826 17.7013 8.64889 17.5977C8.55002 17.4936 8.41147 17.4274 8.2566 17.4237L7.69358 17.4134C7.63673 17.4121 7.57999 17.406 7.52404 17.395C7.32707 17.3592 7.13892 17.264 6.98842 17.1098L5.99443 16.0915C5.60865 15.6963 5.61629 15.0632 6.01149 14.6774Z" fill="#FF5640"/>
<path d="M14.8321 8.44532C14.6261 8.13633 14.2658 7.96693 13.8964 8.00539C13.5271 8.04385 13.2094 8.28383 13.0715 8.62862L11.7775 11.8636L10.8321 10.4453C10.6343 10.1487 10.2936 9.9798 9.93786 10.0019C9.58208 10.0241 9.26499 10.234 9.10557 10.5528L8.38197 12H2C1.44772 12 1 12.4477 1 13C1 13.5523 1.44772 14 2 14H9C9.37877 14 9.72503 13.786 9.89443 13.4472L10.1238 12.9885L11.1679 14.5547C11.3739 14.8637 11.7342 15.0331 12.1036 14.9946C12.4729 14.9562 12.7906 14.7162 12.9285 14.3714L14.2225 11.1365L15.1679 12.5547C15.3534 12.8329 15.6656 13 16 13H22C22.5523 13 23 12.5523 23 12C23 11.4477 22.5523 11 22 11H16.5352L14.8321 8.44532Z" fill="#FF5640"/>
</svg>
