<svg width="24" height="24" viewBox="0 0 24 24" fill="none" xmlns="http://www.w3.org/2000/svg">
<path fill-rule="evenodd" clip-rule="evenodd" d="M11.2929 1.29289C11.6834 0.90237 12.3166 0.90237 12.7071 1.29289L21.7071 10.2929C21.8946 10.4804 22 10.7348 22 11V22C22 22.5523 21.5523 23 21 23H6C5.44772 23 5 22.5523 5 22C5 21.4477 5.44772 21 6 21H20V11.4142L12 3.41421L4 11.4142V17C4 17.5523 3.55228 18 3 18C2.44772 18 2 17.5523 2 17V11C2 10.7348 2.10536 10.4804 2.29289 10.2929L11.2929 1.29289Z" fill="#FF5640"/>
<path d="M6 21C5.72379 21 5.47367 21.112 5.29271 21.293L4.89655 21.6932C4.78702 21.8027 4.64344 21.8572 4.49987 21.8569C4.35629 21.8572 4.21272 21.8027 4.10318 21.6932L3.70703 21.293C3.52606 21.112 3.27613 21 2.99991 21C2.44766 21 2 21.4477 2 21.9999C2 22.5522 2.44766 22.9998 2.99991 22.9998C3.27613 22.9998 3.52606 22.888 3.70703 22.707L4.10318 22.3068C4.21272 22.1973 4.35629 22.1428 4.49987 22.1431C4.64344 22.1428 4.78702 22.1973 4.89655 22.3068L5.29271 22.707C5.47367 22.888 5.72379 23 6 23C6.55225 23 6.99973 22.5522 6.99973 21.9999C6.99973 21.4477 6.55225 21 6 21Z" fill="#FF5640"/>
</svg>
