<svg width="24" height="24" viewBox="0 0 24 24" fill="none" xmlns="http://www.w3.org/2000/svg">
<path fill-rule="evenodd" clip-rule="evenodd" d="M1 2C1 1.44772 1.44772 1 2 1H22C22.5523 1 23 1.44772 23 2V22C23 22.5523 22.5523 23 22 23H2C1.44772 23 1 22.5523 1 22V10C1 9.99994 1 10.0001 1 10C1 9.72378 1.112 9.47367 1.29297 9.2927L1.69318 8.89654C1.80272 8.78701 1.85722 8.64343 1.85687 8.49986C1.85722 8.35628 1.80272 8.21271 1.69318 8.10317L1.29297 7.70702C1.112 7.52605 1 7.27612 1 6.9999C1 6.44765 1.44766 5.99999 1.99991 5.99999C2.55216 5.99999 2.99982 6.44765 2.99982 6.9999C2.99982 7.27612 2.888 7.52605 2.70703 7.70702L2.30682 8.10317C2.19728 8.21271 2.14278 8.35628 2.14313 8.49986C2.14278 8.64343 2.19728 8.78701 2.30682 8.89654L2.70703 9.2927C2.77845 9.36412 2.83911 9.44629 2.88637 9.53658C2.95895 9.67511 3 9.83276 3 10V14.5858L7.29289 10.2929C7.68342 9.90237 8.31658 9.90237 8.70711 10.2929L14 15.5858L16.2929 13.2929C16.6834 12.9024 17.3166 12.9024 17.7071 13.2929L21 16.5858V3H2C1.44772 3 1 2.55228 1 2ZM17 15.4142L15.4142 17L19.4142 21H21V19.4142L17 15.4142ZM16.5858 21L8 12.4142L3 17.4142V21H16.5858Z" fill="#FF5640"/>
<path fill-rule="evenodd" clip-rule="evenodd" d="M15.5 12C17.433 12 19 10.433 19 8.5C19 6.567 17.433 5 15.5 5C13.567 5 12 6.567 12 8.5C12 10.433 13.567 12 15.5 12ZM15.5 10C16.3284 10 17 9.32843 17 8.5C17 7.67157 16.3284 7 15.5 7C14.6716 7 14 7.67157 14 8.5C14 9.32843 14.6716 10 15.5 10Z" fill="#FF5640"/>
</svg>
