<svg width="24" height="24" viewBox="0 0 24 24" fill="none" xmlns="http://www.w3.org/2000/svg">
<path fill-rule="evenodd" clip-rule="evenodd" d="M10.2927 1.29297C10.4737 1.112 10.7236 1 10.9998 1H16C16.5523 1 17 1.44772 17 2V8C17 8.55228 16.5523 9 16 9H13V11H18C18.5523 11 19 11.4477 19 12V15H22C22.5523 15 23 15.4477 23 16V22C23 22.5523 22.5523 23 22 23H14C13.4477 23 13 22.5523 13 22V16C13 15.4477 13.4477 15 14 15H17V13H7V15H10C10.5523 15 11 15.4477 11 16V22C11 22.5523 10.5523 23 10 23H2C1.44772 23 1 22.5523 1 22V16C1 15.4477 1.44772 15 2 15H5V12C5 11.4477 5.44772 11 6 11H11V9H8C7.44772 9 7 8.55228 7 8V7C7 6.44772 7.44772 6 8 6C8.55228 6 9 6.44772 9 7H15V3H11C10.8284 3 10.667 2.9568 10.5259 2.88069C10.4398 2.83429 10.3613 2.77563 10.2927 2.70703L9.89655 2.30682C9.78702 2.19728 9.64344 2.14278 9.49987 2.14313C9.35629 2.14278 9.21272 2.19728 9.10318 2.30682L8.70703 2.70703C8.52606 2.888 8.27613 2.99982 7.99991 2.99982C7.44766 2.99982 7 2.55216 7 1.99991C7 1.44766 7.44766 1 7.99991 1C8.27613 1 8.52606 1.112 8.70703 1.29297L9.10318 1.69318C9.21272 1.80272 9.35629 1.85722 9.49987 1.85687C9.64344 1.85722 9.78702 1.80272 9.89655 1.69318L10.2927 1.29297ZM15 17V21H21V17H15ZM3 17V21H9V17H3Z" fill="#FF5640"/>
</svg>
