<svg width="24" height="24" viewBox="0 0 24 24" fill="none" xmlns="http://www.w3.org/2000/svg">
<path d="M11.7574 1.02986C11.9167 0.990047 12.0833 0.990047 12.2425 1.02986L20.2425 3.02986C20.6903 3.14182 21.0033 3.54577 20.9999 4.00738V4.01278L20.9998 4.02626L20.9992 4.07673C20.9986 4.1206 20.9977 4.18459 20.9961 4.26678C20.9931 4.43114 20.9876 4.66844 20.978 4.96326C20.9588 5.55249 20.9231 6.37368 20.8569 7.303C20.7259 9.14172 20.4709 11.4777 19.9621 13.2727C19.2123 15.9176 17.3241 18.3121 15.7106 19.9962C14.8922 20.8503 14.1192 21.5475 13.55 22.0319C13.2651 22.2744 13.0302 22.4645 12.8649 22.5951C12.7823 22.6605 12.7169 22.711 12.6714 22.7459L12.6182 22.7863L12.6033 22.7975L12.5974 22.8019C12.5974 22.8019 12.5964 22.8026 12 22L11.4031 22.8023L11.3967 22.7975L11.3817 22.7863L11.3285 22.7459C11.283 22.711 11.2177 22.6605 11.135 22.5951C10.9697 22.4645 10.7348 22.2744 10.4499 22.0319C9.88077 21.5475 9.10774 20.8503 8.28937 19.9962C6.67583 18.3121 4.78761 15.9176 4.03787 13.2727C3.51283 11.4205 3.25769 8.99045 3.1305 7.12303C3.12666 7.06658 3.12758 7.01091 3.13292 6.9564C3.14761 6.72594 3.24098 6.51517 3.38766 6.35226L3.76659 5.93571C3.87024 5.82059 3.91716 5.67436 3.90929 5.531C3.90213 5.3876 3.84019 5.24708 3.72507 5.14343L3.30467 4.76876C3.11448 4.59751 2.98973 4.35377 2.97527 4.07794C2.94637 3.52644 3.36999 3.05597 3.92148 3.02706C4.47298 2.99816 4.94345 3.42178 4.97236 3.97327C4.98681 4.24911 4.88804 4.50456 4.71679 4.69475L4.33786 5.11131C4.23421 5.22643 4.1873 5.37266 4.19517 5.51602C4.20233 5.65941 4.26427 5.79994 4.37938 5.90359L4.79978 6.27826C4.98997 6.44951 5.1149 6.69324 5.12936 6.96907C5.13081 6.99686 5.13112 7.02444 5.13032 7.05177C5.25743 8.88662 5.50281 11.1072 5.96206 12.7273C6.57623 14.8939 8.18801 16.9995 9.7335 18.6125C10.4946 19.4069 11.2159 20.0575 11.7461 20.5089C11.8367 20.5859 11.9216 20.6571 12 20.722C12.0784 20.6571 12.1632 20.5859 12.2538 20.5089C12.7841 20.0575 13.5053 19.4069 14.2664 18.6125C15.8119 16.9995 17.4237 14.8939 18.0379 12.7273C18.4876 11.1408 18.7326 8.9768 18.8619 7.16088C18.9259 6.26289 18.9605 5.46811 18.979 4.8982L18.9829 4.7765L12 3.03078L8.2425 3.97014C7.70671 4.10409 7.16377 3.77833 7.02982 3.24254C6.89587 2.70674 7.22163 2.16381 7.75743 2.02986L11.7574 1.02986Z" fill="#FF5640"/>
<path d="M11.4031 22.8023C11.7572 23.0655 12.2423 23.0658 12.5964 22.8026L12 22C11.4035 22.8026 11.4031 22.8023 11.4031 22.8023Z" fill="#FF5640"/>
<path d="M16.7071 7.29289C17.0976 7.68342 17.0976 8.31658 16.7071 8.70711L11.7071 13.7071C11.3166 14.0976 10.6834 14.0976 10.2929 13.7071L8.29287 11.7071C7.90235 11.3166 7.90235 10.6834 8.29287 10.2929C8.6834 9.90237 9.31656 9.90237 9.70709 10.2929L11 11.5858L15.2929 7.29289C15.6834 6.90237 16.3166 6.90237 16.7071 7.29289Z" fill="#FF5640"/>
</svg>
