<svg width="24" height="24" viewBox="0 0 24 24" fill="none" xmlns="http://www.w3.org/2000/svg">
<path d="M3 5C3 4.44772 3.44772 4 4 4H20C20.5523 4 21 4.44772 21 5V16C21 16.5523 20.5523 17 20 17H7C6.82845 17 6.66699 16.9568 6.5259 16.8807C6.43981 16.8343 6.3613 16.7756 6.29271 16.707L5.89655 16.3068C5.78702 16.1973 5.64344 16.1428 5.49987 16.1431C5.35629 16.1428 5.21272 16.1973 5.10318 16.3068L4.70703 16.707C4.52606 16.888 4.27613 16.9998 3.99991 16.9998C3.44766 16.9998 3 16.5522 3 15.9999C3 15.4477 3.44766 15 3.99991 15C4.27613 15 4.52606 15.112 4.70703 15.293L5.10318 15.6932C5.21272 15.8027 5.35629 15.8572 5.49987 15.8569C5.64344 15.8572 5.78702 15.8027 5.89655 15.6932L6.29271 15.293C6.47367 15.112 6.72361 15 6.99982 15C6.99977 15 6.99988 15 6.99982 15H19V6H5V11C5 11.5523 4.55228 12 4 12C3.44772 12 3 11.5523 3 11V5Z" fill="#FF5640"/>
<path d="M1 19C1 18.4477 1.44772 18 2 18H22C22.5523 18 23 18.4477 23 19C23 19.5523 22.5523 20 22 20H2C1.44772 20 1 19.5523 1 19Z" fill="#FF5640"/>
</svg>
