<svg width="24" height="24" viewBox="0 0 24 24" fill="none" xmlns="http://www.w3.org/2000/svg">
<path fill-rule="evenodd" clip-rule="evenodd" d="M1 2C1 1.44772 1.44772 1 2 1H22C22.5523 1 23 1.44772 23 2V17C23 17.5523 22.5523 18 22 18C21.4477 18 21 17.5523 21 17V3H13V21H18.9083C18.9234 21 18.9384 21.0003 18.9533 21.001C18.9682 21.0003 18.983 21 18.998 21C19.2575 21 19.487 21.1 19.6666 21.26L20.1058 21.7C20.3254 21.92 20.6746 21.92 20.8942 21.7L21.3334 21.26C21.513 21.1 21.7425 21 22.002 21C22.5509 21 23 21.45 23 22C23 22.55 22.5509 23 22.002 23C21.7425 23 21.513 22.9 21.3334 22.74L20.8942 22.3C20.6746 22.08 20.3254 22.08 20.1058 22.3L19.6666 22.74C19.487 22.9 19.2575 23 18.998 23C18.983 23 18.9682 22.9997 18.9533 22.999C18.9384 22.9997 18.9234 23 18.9083 23H2C1.44772 23 1 22.5523 1 22V2ZM3 3H11V10H3V3ZM3 21V12H11V21H3Z" fill="#FF5640"/>
</svg>
