<svg width="24" height="24" viewBox="0 0 24 24" fill="none" xmlns="http://www.w3.org/2000/svg">
<path d="M7.84524 5.92594C7.84524 6.99052 6.9854 7.85185 5.9226 7.85185C4.85984 7.85185 4 6.99052 4 5.92594C4 4.86478 4.85984 4 5.9226 4C6.9854 4 7.84524 4.86478 7.84524 5.92594Z" fill="#FF5640"/>
<path d="M7.58046 9.31268H4.26489V20H7.58046V9.31268Z" fill="#FF5640"/>
<path d="M19.9966 20L20 14.1361C20 11.2593 19.3809 9.04738 16.0241 9.04738C14.7378 8.99914 13.534 9.66408 12.8839 10.7735H12.8392V9.31265H9.66125V20H12.9733V14.7149C12.9733 13.3195 13.2382 11.969 14.9613 11.969C16.6638 11.969 16.6844 13.5642 16.6844 14.8045V20H19.9966Z" fill="#FF5640"/>
</svg>
