<svg width="24" height="24" viewBox="0 0 24 24" fill="none" xmlns="http://www.w3.org/2000/svg">
<path d="M3 12C3 10.3431 4.34315 9 6 9H10C10.5523 9 11 8.55229 11 8C11 7.44772 10.5523 7 10 7H6C3.23858 7 1 9.23858 1 12C1 14.7614 3.23858 17 6 17H10C10.5523 17 11 16.5523 11 16C11 15.4477 10.5523 15 10 15H6C4.34315 15 3 13.6569 3 12Z" fill="#FF5640"/>
<path d="M18 15H14C13.4477 15 13 15.4477 13 16C13 16.5523 13.4477 17 14 17H18C20.7614 17 23 14.7614 23 12C23 9.23858 20.7614 7 18 7H14C13.4477 7 13 7.44771 13 8C13 8.55228 13.4477 9 14 9H18C19.6569 9 21 10.3431 21 12C21 13.6569 19.6569 15 18 15Z" fill="#FF5640"/>
<path d="M8.99982 11C8.72361 11 8.47367 11.112 8.29271 11.293L7.89655 11.6932C7.78702 11.8027 7.64344 11.8572 7.49987 11.8569C7.35629 11.8572 7.21272 11.8027 7.10318 11.6932L6.70703 11.293C6.52606 11.112 6.27613 11 5.99991 11C5.44766 11 5 11.4477 5 11.9999C5 12.5522 5.44766 12.9998 5.99991 12.9998C6.27613 12.9998 6.52606 12.888 6.70703 12.707L7.10318 12.3068C7.21272 12.1973 7.35629 12.1428 7.49987 12.1431C7.64344 12.1428 7.78702 12.1973 7.89655 12.3068L8.29271 12.707C8.3613 12.7756 8.43981 12.8343 8.5259 12.8807C8.66699 12.9568 8.82845 13 9 13H18C18.5523 13 19 12.5523 19 12C19 11.4477 18.5523 11 18 11H8.99982Z" fill="#FF5640"/>
</svg>
