<svg width="24" height="24" viewBox="0 0 24 24" fill="none" xmlns="http://www.w3.org/2000/svg">
<path d="M5.99982 21C5.72361 21 5.47367 21.112 5.29271 21.293L4.89655 21.6932C4.78702 21.8027 4.64344 21.8572 4.49987 21.8569C4.35629 21.8572 4.21272 21.8027 4.10318 21.6932L3.70703 21.293C3.52606 21.112 3.27613 21 2.99991 21C2.44766 21 2 21.4477 2 21.9999C2 22.5522 2.44766 22.9998 2.99991 22.9998C3.27613 22.9998 3.52606 22.888 3.70703 22.707L4.10318 22.3068C4.21272 22.1973 4.35629 22.1428 4.49987 22.1431C4.64344 22.1428 4.78702 22.1973 4.89655 22.3068L5.29271 22.707C5.47367 22.888 5.72361 22.9998 5.99982 22.9998C6.55208 22.9998 6.99973 22.5522 6.99973 21.9999C6.99973 21.4477 6.55208 21 5.99982 21Z" fill="#FF5640"/>
<path fill-rule="evenodd" clip-rule="evenodd" d="M6 9V7C6 3.68629 8.68629 1 12 1C15.3137 1 18 3.68629 18 7V9H21C21.5523 9 22 9.44771 22 10V22C22 22.5523 21.5523 23 21 23L5.99982 22.9998C5.44754 22.9998 5 22.5523 5 22C5 21.4477 5.44754 21 5.99982 21H20V11H4V16.5455C4 17.0977 3.55228 17.5455 3 17.5455C2.44772 17.5455 2 17.0977 2 16.5455V10C2 9.44771 2.44772 9 3 9H6ZM8 7C8 4.79086 9.79086 3 12 3C14.2091 3 16 4.79086 16 7V9H8V7Z" fill="#FF5640"/>
</svg>
