<svg width="24" height="24" viewBox="0 0 24 24" fill="none" xmlns="http://www.w3.org/2000/svg">
<path fill-rule="evenodd" clip-rule="evenodd" d="M10.2333 4.04649C9.4918 4.69124 9 5.6588 9 7C9 7.55228 8.55228 8 8 8C7.44772 8 7 7.55228 7 7C7 6.82601 7.00611 6.65499 7.01815 6.48707C6.60236 6.17304 6.11413 6 5.6 6C4.26056 6 3 7.24143 3 9V10H21V9C21 8.18675 20.4095 7.66667 19.8462 7.66667C19.7601 7.66667 19.6742 7.66917 19.5883 7.67166C19.3283 7.67922 19.0693 7.68676 18.8126 7.62477C18.5478 7.56086 18.2906 7.43137 18.0668 7.21038C17.8375 6.98404 17.6796 6.69849 17.5724 6.39728C17.0036 4.38131 15.3045 3 13.3846 3C12.09 3 10.992 3.38679 10.2333 4.04649ZM23 11V9C23 7.23592 21.6618 5.66667 19.8462 5.66667C19.7111 5.66667 19.5937 5.67109 19.5048 5.67443L19.4447 5.67662C18.6144 3.00389 16.2524 1 13.3846 1C11.7054 1 10.1111 1.50238 8.92095 2.53726C8.31918 3.06052 7.84007 3.70367 7.51084 4.45004C6.93258 4.16298 6.28597 4 5.6 4C2.96299 4 1 6.34029 1 9V11C1 11.5523 1.44772 12 2 12H11V14H5C4.44772 14 4 14.4477 4 15V22C4 22.5523 4.44771 23 5 23C5.55228 23 6 22.5523 6 22V16H11H13H18V19C18 19.2811 18.116 19.5352 18.3028 19.7168L18.6931 20.1032C18.8026 20.2127 18.8571 20.3563 18.8567 20.4999C18.8571 20.6434 18.8026 20.787 18.6931 20.8966L18.2928 21.2927C18.1119 21.4737 18.0001 21.7236 18.0001 21.9998C18.0001 22.5521 18.4477 22.9997 19 22.9997C19.5522 22.9997 19.9999 22.5521 19.9999 21.9998C19.9999 21.7236 19.8879 21.4737 19.7069 21.2927L19.3067 20.8966C19.1972 20.787 19.1427 20.6434 19.143 20.4999C19.1427 20.3563 19.1972 20.2127 19.3067 20.1032L19.6888 19.725C19.8805 19.5428 20 19.2853 20 19V15C20 14.7348 19.8946 14.4804 19.7071 14.2929C19.5196 14.1054 19.2652 14 19 14H13V12H22C22.5523 12 23 11.5523 23 11Z" fill="#FF5640"/>
</svg>
