<svg width="24" height="24" viewBox="0 0 24 24" fill="none" xmlns="http://www.w3.org/2000/svg">
<path fill-rule="evenodd" clip-rule="evenodd" d="M5.00002 10C5.00002 6.13401 8.13403 3 12 3C13.776 3 15.3953 3.66007 16.6299 4.74974C17.044 5.1152 17.6759 5.0758 18.0414 4.66173C18.4069 4.24766 18.3675 3.61573 17.9534 3.25026C16.3675 1.85048 14.2818 1 12 1C7.02946 1 3.00002 5.02944 3.00002 10C3.00002 11.6467 3.44225 13.19 4.21441 14.5178L1.29292 17.4393C1.03214 17.7001 0.936064 18.0833 1.04293 18.4362C1.1498 18.7892 1.44228 19.0547 1.80391 19.127L4.68572 19.7034L5.26209 22.5852C5.33495 22.9495 5.60378 23.2434 5.96018 23.3484C6.31658 23.4533 6.70178 23.352 6.96046 23.0853L10.9788 18.9427C11.314 18.9806 11.6547 19 12 19C12.1958 19 12.3901 18.9937 12.5828 18.9814L16.9598 23.116C17.2242 23.3658 17.6033 23.4523 17.9499 23.342C18.2964 23.2316 18.5557 22.9418 18.6271 22.5852L19.2034 19.7034L22.0852 19.127C22.4469 19.0547 22.7393 18.7892 22.8462 18.4362C22.9531 18.0833 22.857 17.7001 22.5962 17.4393L19.7444 14.5876C20.3607 13.5493 20.7742 12.3765 20.9304 11.1237C20.976 10.7583 20.8183 10.4144 20.5457 10.2055L20.1606 9.87419C20.0437 9.77256 19.9793 9.63314 19.9696 9.48989C19.9593 9.34669 20.0036 9.19966 20.1052 9.08275L20.4768 8.65965C20.6447 8.4665 20.739 8.20936 20.7198 7.93382C20.6813 7.38291 20.2035 6.96757 19.6525 7.00609C19.1016 7.04461 18.6863 7.52241 18.7248 8.07332C18.7441 8.34886 18.8731 8.59038 19.0662 8.75829L19.4931 9.12556C19.61 9.22719 19.6744 9.36661 19.6841 9.50986C19.6944 9.65306 19.6501 9.80009 19.5484 9.917L19.1768 10.3401C19.0259 10.5137 18.9346 10.739 18.9317 10.9829C18.4545 14.3831 15.5321 17 12 17C8.13403 17 5.00002 13.866 5.00002 10ZM4.02837 17.5323L5.42016 16.1405C6.33338 17.1187 7.46213 17.893 8.73073 18.3878L6.85 20.3267L6.51614 18.6574C6.43697 18.2616 6.12754 17.9521 5.73168 17.873L4.02837 17.5323ZM18.5261 16.1976C17.5531 17.2219 16.3415 18.0174 14.9802 18.4949L17.0201 20.4218L17.373 18.6574C17.4522 18.2616 17.7616 17.9521 18.1575 17.873L19.8608 17.5323L18.5261 16.1976Z" fill="#FF5640"/>
</svg>
