<svg width="24" height="24" viewBox="0 0 24 24" fill="none" xmlns="http://www.w3.org/2000/svg">
<path d="M1.99995 3C1.44766 3 0.999945 3.44772 0.999945 4V7C0.999945 7.55228 1.44766 8 1.99995 8C2.55223 8 2.99995 7.55228 2.99995 7V5H20.9999V17H2.99995V15C2.99995 14.7167 2.88218 14.461 2.69294 14.2791L2.30652 13.8966C2.19699 13.787 2.14248 13.6434 2.14284 13.4999C2.14248 13.3563 2.19699 13.2127 2.30652 13.1032L2.70673 12.707C2.8877 12.5261 2.9997 12.2761 2.9997 11.9999C2.9997 11.4477 2.55204 11 1.99979 11C1.44754 11 0.999878 11.4477 0.999878 11.9999C0.999878 12.2761 1.1117 12.5261 1.29267 12.707L1.69288 13.1032C1.80242 13.2127 1.85692 13.3563 1.85657 13.4999C1.85692 13.6434 1.80242 13.787 1.69288 13.8966L1.29267 14.2927C1.1117 14.4737 0.999878 14.7236 0.999878 14.9998L0.999945 15.0116V18C0.999945 18.5523 1.44766 19 1.99995 19H21.9999C22.5522 19 22.9999 18.5523 22.9999 18V4C22.9999 3.44772 22.5522 3 21.9999 3H1.99995Z" fill="#FF5640"/>
<path d="M4.99995 21C4.99995 20.4477 5.44766 20 5.99995 20H17.9999C18.5522 20 18.9999 20.4477 18.9999 21C18.9999 21.5523 18.5522 22 17.9999 22H5.99995C5.44766 22 4.99995 21.5523 4.99995 21Z" fill="#FF5640"/>
<path fill-rule="evenodd" clip-rule="evenodd" d="M10.5144 7.14251C10.2055 6.95715 9.82076 6.95229 9.50725 7.1298C9.19374 7.30731 8.99995 7.63973 8.99995 8V14C8.99995 14.3603 9.19374 14.6927 9.50725 14.8702C9.82076 15.0477 10.2055 15.0429 10.5144 14.8575L15.5144 11.8575C15.8156 11.6768 15.9999 11.3513 15.9999 11C15.9999 10.6487 15.8156 10.3232 15.5144 10.1425L10.5144 7.14251ZM13.0563 11L10.9999 12.2338V9.76619L13.0563 11Z" fill="#FF5640"/>
</svg>
