<svg width="24" height="24" viewBox="0 0 24 24" fill="none" xmlns="http://www.w3.org/2000/svg">
<path d="M15 22C15 21.45 15.4491 21 15.998 21C16.2575 21 16.487 21.1 16.6666 21.26L17.1058 21.7C17.3254 21.92 17.6746 21.92 17.8942 21.7L18.3334 21.26C18.513 21.1 18.7425 21 19.002 21C19.5509 21 20 21.45 20 22C20 22.55 19.5509 23 19.002 23C18.7425 23 18.513 22.9 18.3334 22.74L17.8942 22.3C17.6746 22.08 17.3254 22.08 17.1058 22.3L16.6666 22.74C16.487 22.9 16.2575 23 15.998 23C15.4491 23 15 22.55 15 22Z" fill="#FF5640"/>
<path fill-rule="evenodd" clip-rule="evenodd" d="M9.5 3C5.91015 3 3 5.91015 3 9.5V14.5C3 18.0899 5.91015 21 9.5 21H16V23H9.5C4.80558 23 1 19.1944 1 14.5V9.5C1 4.80558 4.80558 1 9.5 1H14.5C19.1944 1 23 4.80558 23 9.5V14H21V9.5C21 5.91015 18.0899 3 14.5 3H9.5Z" fill="#FF5640"/>
<path fill-rule="evenodd" clip-rule="evenodd" d="M15.693 15.9577C16.2209 16.5909 17.0222 17 17.9972 17H20C21.8569 17 23 15.4754 23 14H21C21 14.5246 20.6046 15 20 15H17.9972C17.3796 15 17 14.5846 17 14.0028V11C17 8.79083 15.2091 7 13 7H11C8.79089 7 7 8.79083 7 11V13C7 15.2092 8.79089 17 11 17H13C14.0372 17 14.9822 16.6052 15.693 15.9577ZM15 11C15 9.89722 14.1028 9 13 9H11C9.89722 9 9 9.89722 9 11V13C9 14.1028 9.89722 15 11 15H13C14.1028 15 15 14.1028 15 13V11Z" fill="#FF5640"/>
</svg>
