<svg width="24" height="24" viewBox="0 0 24 24" fill="none" xmlns="http://www.w3.org/2000/svg">
<path d="M7 12C7 11.4477 7.44772 11 8 11H19C19.5523 11 20 11.4477 20 12C20 12.5523 19.5523 13 19 13H8C7.44772 13 7 12.5523 7 12Z" fill="#FF5640"/>
<path d="M4.99991 11C5.27613 11 5.52606 11.112 5.70703 11.293L6.10318 11.6932C6.21254 11.8025 6.35582 11.857 6.49916 11.8569H6.50057C6.64391 11.857 6.7872 11.8025 6.89655 11.6932L7.29271 11.293C7.47367 11.112 7.72379 11 8 11C8.55225 11 8.99973 11.4477 8.99973 11.9999C8.99973 12.5522 8.55225 13 8 13C7.72379 13 7.47367 12.888 7.29271 12.707L6.89655 12.3068C6.7872 12.1975 6.64391 12.143 6.50057 12.1431H6.49916C6.35582 12.143 6.21254 12.1975 6.10318 12.3068L5.70703 12.707C5.52606 12.888 5.27613 12.9998 4.99991 12.9998C4.44766 12.9998 4 12.5522 4 11.9999C4 11.4477 4.44766 11 4.99991 11Z" fill="#FF5640"/>
</svg>
