<svg width="24" height="24" viewBox="0 0 24 24" fill="none" xmlns="http://www.w3.org/2000/svg">
<path fill-rule="evenodd" clip-rule="evenodd" d="M3 2.03198C3 1.4797 3.44772 1.03198 4 1.03198H16C16.5523 1.03198 17 1.4797 17 2.03198V5.03198C17 5.58427 16.5523 6.03198 16 6.03198C15.4477 6.03198 15 5.58427 15 5.03198V3.03198H5V5.03198C5 5.58427 4.55228 6.03198 4 6.03198C3.44772 6.03198 3 5.58427 3 5.03198V2.03198ZM3.29285 12.3247C3.15464 12.4629 3.05675 12.6413 3.01822 12.841C3.00626 12.9028 3 12.9667 3 13.032V22.032C3 22.5843 3.44772 23.032 4 23.032H16C16.5523 23.032 17 22.5843 17 22.032V19.032C17 18.4797 16.5523 18.032 16 18.032C15.4477 18.032 15 18.4797 15 19.032V21.032H5V13.032C5 12.7517 4.88468 12.4983 4.69889 12.3167L4.3067 11.9285C4.19716 11.819 4.14266 11.6754 4.14301 11.5318C4.14266 11.3883 4.19716 11.2447 4.3067 11.1352L4.70691 10.739C4.88788 10.558 4.99988 10.3081 4.99988 10.0319C4.99988 9.47964 4.55222 9.03198 3.99997 9.03198C3.44771 9.03198 3.00005 9.47964 3.00005 10.0319C3.00005 10.3081 3.11188 10.558 3.29285 10.739L3.69306 11.1352C3.80259 11.2447 3.8571 11.3883 3.85674 11.5318C3.8571 11.6754 3.80259 11.819 3.69306 11.9285L3.29285 12.3247ZM17.5107 16.6909C17.3727 16.9055 17.135 17.0352 16.8799 17.0352H15.1201C14.865 17.0352 14.6273 16.9055 14.4893 16.6909L13.7896 15.603C13.7902 15.6037 13.7898 15.6034 13.7889 15.6019L13.7896 15.603C13.7888 15.6021 13.7867 15.5998 13.7826 15.5961C13.7747 15.5892 13.7613 15.5792 13.7411 15.5681C13.6986 15.5448 13.6763 15.5437 13.674 15.5436L12.706 15.6424C12.4162 15.672 12.1355 15.5311 11.9861 15.281L11.1062 13.8088C10.9502 13.5477 10.9673 13.2182 11.1495 12.9747L11.8225 12.0754L11.8505 12.1027C11.8502 12.0814 11.85 12.0601 11.85 12.0387L11.8225 12.0754L11.8158 12.0689C11.7778 12.032 11.7439 11.9911 11.7145 11.947L11.1256 11.0617C10.9654 10.821 10.9579 10.5097 11.1062 10.2615L11.9861 8.78927C12.1356 8.53923 12.4162 8.39833 12.706 8.4279L13.674 8.52668C13.6763 8.5266 13.6986 8.52554 13.7411 8.50224C13.7613 8.49116 13.7747 8.48115 13.7826 8.47422C13.7867 8.47056 13.7888 8.46818 13.7896 8.4673C13.7896 8.46725 13.7897 8.46714 13.7896 8.4673L14.4893 7.37943C14.6273 7.16485 14.865 7.03516 15.1201 7.03516H16.8799C17.1414 7.03516 17.3839 7.17132 17.5201 7.39451L18.092 8.33175C18.0935 8.33417 18.1109 8.35954 18.1681 8.39153C18.2234 8.42245 18.2526 8.42403 18.2567 8.42403H19.3701C19.634 8.42403 19.8785 8.56274 20.0139 8.78927L20.8938 10.2615C21.0498 10.5226 21.0327 10.8521 20.8505 11.0956L20.1501 12.0316C20.1502 12.0257 20.1509 12.0225 20.151 12.0219L20.15 12.0248L20.1501 12.0316L20.15 12.0352L20.1501 12.039L20.15 12.0455L20.1508 12.0479C20.1507 12.0474 20.1503 12.0449 20.1501 12.039L20.8504 12.9746C21.0327 13.2181 21.0499 13.5477 20.8938 13.8088L20.0139 15.281C19.8645 15.5311 19.5838 15.672 19.294 15.6424L18.326 15.5436C18.3237 15.5437 18.3014 15.5448 18.2589 15.5681C18.2387 15.5792 18.2253 15.5892 18.2174 15.5961C18.2133 15.5998 18.2112 15.6021 18.2104 15.603L17.5107 16.6909ZM16 14.6852C14.5388 14.6852 13.3538 13.5026 13.35 12.0423V12.0352V12.0288C13.3534 10.5682 14.5386 9.38519 16 9.38519C17.4635 9.38519 18.65 10.5716 18.65 12.0352C18.65 13.4987 17.4635 14.6852 16 14.6852Z" fill="#FF5640"/>
</svg>
