<svg width="24" height="24" viewBox="0 0 24 24" fill="none" xmlns="http://www.w3.org/2000/svg">
<path fill-rule="evenodd" clip-rule="evenodd" d="M2 6C1.44772 6 1 6.44772 1 7V12C1 12.5523 1.44772 13 2 13C2.55228 13 3 12.5523 3 12V11C4.65685 11 6 9.65685 6 8H18C18 9.65685 19.3431 11 21 11V13C19.3431 13 18 14.3431 18 16H5.05882C5.04896 16 5.03912 16.0001 5.02932 16.0004C5.01953 16.0001 5.00969 16 4.99982 16C4.72361 16 4.47367 16.112 4.29271 16.293L3.89655 16.6932C3.78702 16.8027 3.64344 16.8572 3.49987 16.8569C3.35629 16.8572 3.21272 16.8027 3.10318 16.6932L2.70703 16.293C2.52606 16.112 2.27613 16 1.99991 16C1.44766 16 1 16.4477 1 16.9999C1 17.5522 1.44766 17.9998 1.99991 17.9998C2.27613 17.9998 2.52606 17.888 2.70703 17.707L3.10318 17.3068C3.21272 17.1973 3.35629 17.1428 3.49987 17.1431C3.64344 17.1428 3.78702 17.1973 3.89655 17.3068L4.29271 17.707C4.47367 17.888 4.72361 17.9998 4.99982 17.9998C5.00867 17.9998 5.01749 17.9997 5.02628 17.9995C5.03708 17.9998 5.04793 18 5.05882 18H22C22.5523 18 23 17.5523 23 17V7C23 6.44772 22.5523 6 22 6H2ZM20 16C20 15.4477 20.4477 15 21 15V16H20ZM20 8C20 8.55228 20.4477 9 21 9V8H20ZM4 8C4 8.55228 3.55228 9 3 9V8H4Z" fill="#FF5640"/>
<path fill-rule="evenodd" clip-rule="evenodd" d="M15 12C15 13.6569 13.6569 15 12 15C10.3431 15 9 13.6569 9 12C9 10.3431 10.3431 9 12 9C13.6569 9 15 10.3431 15 12ZM13 12C13 12.5523 12.5523 13 12 13C11.4477 13 11 12.5523 11 12C11 11.4477 11.4477 11 12 11C12.5523 11 13 11.4477 13 12Z" fill="#FF5640"/>
</svg>
