<svg width="24" height="24" viewBox="0 0 24 24" fill="none" xmlns="http://www.w3.org/2000/svg">
<path fill-rule="evenodd" clip-rule="evenodd" d="M15.3333 1C11.7124 1 8.6778 3.51014 7.87467 6.88523L3.61837 10.9825C3.592 11.0079 3.56733 11.0344 3.54435 11.0618C3.49884 11.094 3.45547 11.1303 3.41482 11.171C3.23134 11.3545 3.13973 11.5875 3.12588 11.8276L3.1265 12.4493C3.12676 12.7601 2.87979 13.0071 2.56897 13.0068L1.94734 13.0062C1.70715 13.02 1.47417 13.1116 1.29068 13.2951C0.902556 13.6833 0.903191 14.319 1.29209 14.7079C1.68099 15.0968 2.31677 15.0975 2.70489 14.7093C2.88838 14.5259 2.97994 14.2928 2.99384 14.0527L2.99322 13.4311C2.99291 13.1202 3.23988 12.8732 3.55074 12.8735L4.17238 12.8741C4.41252 12.8602 4.64555 12.7687 4.82904 12.5852C4.85006 12.5642 4.86995 12.5424 4.88869 12.52C4.92937 12.4912 4.96841 12.459 5.00541 12.4234L7.74743 9.78381C7.94281 11.1221 8.48394 12.3482 9.27725 13.3685L1.29556 21.2903C0.903571 21.6793 0.901184 22.3125 1.29023 22.7045C1.67928 23.0965 2.31244 23.0988 2.70444 22.7098L10.6994 14.7749C11.7323 15.5597 12.9703 16.0886 14.3189 16.2668L9.29289 21.2929C8.90237 21.6834 8.90237 22.3166 9.29289 22.7071C9.68342 23.0976 10.3166 23.0976 10.7071 22.7071L17.3484 16.0657C20.605 15.1809 23 12.2035 23 8.66667C23 4.43248 19.5675 1 15.3333 1ZM15.3333 3C12.5842 3 10.2924 4.9576 9.77566 7.55485C9.77247 7.57443 9.7687 7.59393 9.76434 7.61332C9.70018 7.95463 9.66663 8.30673 9.66663 8.66667C9.66663 11.7963 12.2037 14.3333 15.3333 14.3333C18.4629 14.3333 21 11.7963 21 8.66667C21 5.53705 18.4629 3 15.3333 3Z" fill="#FF5640"/>
</svg>
