<svg width="24" height="24" viewBox="0 0 24 24" fill="none" xmlns="http://www.w3.org/2000/svg">
<path fill-rule="evenodd" clip-rule="evenodd" d="M5 8C5 4.13401 8.13401 1 12 1C15.866 1 19 4.13401 19 8V13.5858L20.7071 15.2929C20.8946 15.4804 21 15.7348 21 16V19C21 19.5523 20.5523 20 20 20H15.874C15.4299 21.7252 13.8638 23 12 23C10.1362 23 8.57006 21.7252 8.12602 20H7C6.82845 20 6.66699 19.9568 6.5259 19.8807C6.43981 19.8343 6.3613 19.7756 6.29271 19.707L5.89655 19.3068C5.78702 19.1973 5.64344 19.1428 5.49987 19.1431C5.35629 19.1428 5.21272 19.1973 5.10318 19.3068L4.70703 19.707C4.52606 19.888 4.27613 19.9998 3.99991 19.9998C3.44766 19.9998 3 19.5522 3 18.9999C3 18.4477 3.44766 18 3.99991 18C4.27613 18 4.52606 18.112 4.70703 18.293L5.10318 18.6932C5.21272 18.8027 5.35629 18.8572 5.49987 18.8569C5.64344 18.8572 5.78702 18.8027 5.89655 18.6932L6.29271 18.293C6.47367 18.112 6.72361 18 6.99982 18C6.99977 18 6.99988 18 6.99982 18H19V16.4142L17.2929 14.7071C17.1054 14.5196 17 14.2652 17 14V8C17 5.23858 14.7614 3 12 3C9.23858 3 7 5.23858 7 8V14C7 14.2652 6.89464 14.5196 6.70711 14.7071L5.70711 15.7071C5.31658 16.0976 4.68342 16.0976 4.29289 15.7071C3.90237 15.3166 3.90237 14.6834 4.29289 14.2929L5 13.5858V8ZM12 21C11.2597 21 10.6134 20.5978 10.2676 20H13.7324C13.3866 20.5978 12.7403 21 12 21Z" fill="#FF5640"/>
</svg>
