<svg width="24" height="24" viewBox="0 0 24 24" fill="none" xmlns="http://www.w3.org/2000/svg">
<path d="M12 5C6.80045 5 3 8.23348 3 12C3 15.7665 6.80045 19 12 19C17.1995 19 21 15.7665 21 12C21 11.7101 20.9785 11.426 20.9368 11.1484C20.9166 10.969 20.9468 10.7905 21.018 10.6306L21.2497 10.1173C21.3127 9.9758 21.3121 9.82223 21.2603 9.68831C21.2092 9.55415 21.1068 9.43964 20.9653 9.37664L20.4497 9.15022C20.2159 9.04612 20.022 8.85286 19.923 8.59499C19.7251 8.07942 19.9826 7.50107 20.4981 7.30316C21.0137 7.10525 21.5921 7.36275 21.79 7.87832C21.889 8.13619 21.874 8.40966 21.7699 8.64346L21.5382 9.15673C21.4752 9.29824 21.4758 9.45181 21.5276 9.58572C21.5787 9.71989 21.681 9.8344 21.8225 9.8974L22.3381 10.1238C22.5719 10.2279 22.7661 10.4211 22.865 10.679C22.8869 10.736 22.9032 10.7938 22.9143 10.8517L22.9165 10.864C22.9203 10.8851 22.9233 10.9062 22.9256 10.9273C22.9748 11.2789 23 11.6369 23 12C23 17.2792 17.8461 21 12 21C6.15385 21 1 17.2792 1 12C1 6.72083 6.15385 3 12 3C13.9587 3 15.8082 3.40654 17.4141 4.13717C17.9168 4.36587 18.1389 4.9588 17.9102 5.4615C17.6815 5.96421 17.0886 6.18632 16.5859 5.95761C15.2501 5.34987 13.6842 5 12 5Z" fill="#FF5640"/>
<path fill-rule="evenodd" clip-rule="evenodd" d="M15.832 7.44528C15.5257 6.98576 14.9048 6.86158 14.4453 7.16793C13.9875 7.47309 13.8626 8.09031 14.1644 8.54929L14.1657 8.55143L14.1705 8.55911L14.1839 8.58113C14.2021 8.61174 14.2319 8.66368 14.2696 8.73599C14.3452 8.88074 14.4518 9.10603 14.5602 9.40423C14.777 10.0005 15 10.8845 15 12C15 13.1154 14.777 13.9995 14.5602 14.5957C14.4518 14.8939 14.3452 15.1192 14.2696 15.264C14.2319 15.3363 14.2021 15.3882 14.1839 15.4188C14.1747 15.4341 14.1685 15.4441 14.1657 15.4485L14.1644 15.4505C13.8625 15.9095 13.9875 16.5268 14.4453 16.832C14.9048 17.1384 15.5257 17.0142 15.832 16.5547L15.8329 16.5534L15.8339 16.5519L15.8361 16.5485L15.8416 16.5401L15.8567 16.5165C15.8685 16.4978 15.8838 16.4731 15.9021 16.4425C15.9385 16.3813 15.9868 16.2965 16.0428 16.1891C16.1548 15.9745 16.2982 15.6685 16.4398 15.2792C16.723 14.5005 17 13.3845 17 12C17 10.6154 16.723 9.49948 16.4398 8.72074C16.2982 8.33143 16.1548 8.02548 16.0428 7.81086C15.9868 7.70347 15.9385 7.6187 15.9021 7.55752C15.8838 7.52691 15.8685 7.50218 15.8567 7.48345L15.8416 7.45984L15.8361 7.45142L15.8339 7.44807L15.8329 7.44661L15.832 7.44528Z" fill="#FF5640"/>
<path d="M10.2929 8.29289C10.6834 7.90237 11.3166 7.90237 11.7071 8.29289L11.7085 8.29432L11.7101 8.29585L11.7134 8.29922L11.7211 8.30713L11.7408 8.32778C11.7557 8.34368 11.7741 8.36387 11.7955 8.38837C11.8384 8.43735 11.8934 8.5037 11.9563 8.5875C12.0818 8.75496 12.2397 8.99328 12.3944 9.30279C12.7056 9.92507 13 10.8272 13 12C13 13.1728 12.7056 14.0749 12.3944 14.6972C12.2397 15.0067 12.0818 15.245 11.9563 15.4125C11.8934 15.4963 11.8384 15.5627 11.7955 15.6116C11.7741 15.6361 11.7557 15.6563 11.7408 15.6722L11.7211 15.6929L11.7134 15.7008L11.7101 15.7041L11.7085 15.7057C11.318 16.0962 10.6834 16.0976 10.2929 15.7071C9.90572 15.3199 9.9024 14.6943 10.2829 14.303L10.2904 14.2946C10.3022 14.2811 10.3253 14.2537 10.3562 14.2125C10.4182 14.13 10.5103 13.9933 10.6056 13.8028C10.7944 13.4251 11 12.8272 11 12C11 11.1728 10.7944 10.5749 10.6056 10.1972C10.5103 10.0067 10.4182 9.87004 10.3562 9.7875C10.3253 9.7463 10.3022 9.7189 10.2904 9.70538L10.2829 9.697C9.9024 9.30573 9.90572 8.68007 10.2929 8.29289Z" fill="#FF5640"/>
<path d="M7.44719 9.10555C6.95321 8.85856 6.35254 9.05878 6.10555 9.55276C5.86292 10.038 6.05185 10.6262 6.52687 10.881C6.53175 10.8841 6.54199 10.8909 6.55623 10.9015C6.59373 10.9297 6.65484 10.9818 6.71911 11.0622C6.83748 11.2101 6.99998 11.4929 6.99998 12C6.99998 12.5071 6.83748 12.7898 6.71911 12.9378C6.65484 13.0181 6.59373 13.0703 6.55622 13.0984C6.54199 13.1091 6.53174 13.1159 6.52687 13.119C6.05185 13.3737 5.86292 13.9619 6.10555 14.4472C6.35254 14.9412 6.95321 15.1414 7.44719 14.8944L7.45158 14.8922L7.44825 14.8939L7.44934 14.8933L7.45158 14.8922L7.45637 14.8898L7.46712 14.8842C7.47479 14.8802 7.48348 14.8755 7.49312 14.8702C7.51239 14.8596 7.53552 14.8464 7.56192 14.8303C7.61464 14.7983 7.68101 14.7548 7.75623 14.6984C7.90622 14.5859 8.09511 14.4193 8.28084 14.1872C8.66247 13.7101 8.99998 12.9929 8.99998 12C8.99998 11.0071 8.66247 10.2898 8.28084 9.81278C8.09511 9.58061 7.90622 9.41403 7.75622 9.30154C7.68101 9.24512 7.61464 9.20161 7.56192 9.1696C7.53552 9.15357 7.51239 9.14034 7.49312 9.12974C7.48348 9.12444 7.47479 9.11979 7.46712 9.11576L7.45637 9.11019L7.45158 9.10776L7.44933 9.10662L7.44825 9.10608L7.44719 9.10555Z" fill="#FF5640"/>
</svg>
