<svg width="24" height="24" viewBox="0 0 24 24" fill="none" xmlns="http://www.w3.org/2000/svg">
<path fill-rule="evenodd" clip-rule="evenodd" d="M2.95209 1.92919C2.67892 1.92287 2.41506 2.02861 2.22185 2.22182C2.02863 2.41503 1.9229 2.67889 1.92922 2.95206C1.94946 3.82651 2.17352 5.14361 2.50451 6.60465C2.8403 8.08693 3.30203 9.78488 3.82784 11.4501C4.35309 13.1136 4.9476 14.7613 5.55178 16.1381C6.13696 17.4717 6.78784 18.6873 7.46449 19.364C8.78149 20.681 10.8283 21.2559 12.8439 21.1583C13.9399 21.1052 15.0722 20.8525 16.136 20.3786L17.9498 22.1924C18.3403 22.5829 18.9735 22.5829 19.364 22.1924L22.1924 19.3639C22.5829 18.9734 22.5829 18.3403 22.1924 17.9497L20.4297 16.187C21.9666 13.0316 21.3592 9.45966 19.364 7.46446C18.6873 6.78781 17.4717 6.13693 16.1382 5.55175C14.7613 4.94757 13.1136 4.35306 11.4502 3.82781C9.78492 3.30199 8.08696 2.84027 6.60469 2.50447C5.14364 2.17349 3.82654 1.94943 2.95209 1.92919ZM19.3273 17.9131C19.1213 18.1674 18.898 18.4158 18.6569 18.6569C18.4178 18.8959 18.1668 19.1168 17.9059 19.3201L18.6569 20.0711L20.0711 18.6568L19.3273 17.9131ZM4.45508 6.16277C4.42607 6.03473 4.3982 5.90899 4.37146 5.78569L11.5808 12.995C11.5824 12.9967 11.584 12.9983 11.5857 12.9999C11.781 13.1953 12.0368 13.2929 12.2927 13.2929L12.8558 13.29C13.0107 13.29 13.1508 13.353 13.2521 13.4548C13.3539 13.5561 13.4168 13.6961 13.4168 13.851L13.414 14.4142C13.414 14.6701 13.5116 14.9259 13.7069 15.1212C14.0974 15.5117 14.7305 15.5117 15.121 15.1212C15.5115 14.7307 15.5115 14.0976 15.121 13.7071C14.9257 13.5118 14.6698 13.4143 14.4139 13.4143L13.8507 13.4171C13.6958 13.4171 13.5558 13.3542 13.4545 13.2524C13.3527 13.1511 13.2897 13.011 13.2897 12.8561L13.2925 12.3215C13.3 12.0561 13.2025 11.7883 13 11.5858L5.78559 4.3714C5.90893 4.39814 6.03471 4.42603 6.1628 4.45505C7.58597 4.77745 9.2303 5.2242 10.848 5.73499C12.4675 6.24636 14.0433 6.8166 15.3345 7.38318C16.669 7.96876 17.5658 8.49466 17.9498 8.87867C19.6479 10.5768 20.0676 14.4177 17.2427 17.2426C16.0291 18.4562 14.3624 19.0824 12.7472 19.1606C11.1111 19.2398 9.68302 18.7541 8.8787 17.9497C8.49469 17.5657 7.96879 16.6689 7.38321 15.3345C6.81663 14.0433 6.24639 12.4674 5.73503 10.8479C5.22424 9.23027 4.77749 7.58593 4.45508 6.16277Z" fill="#FF5640"/>
</svg>
