<svg width="24" height="24" viewBox="0 0 24 24" fill="none" xmlns="http://www.w3.org/2000/svg">
<path fill-rule="evenodd" clip-rule="evenodd" d="M7 6C7 3.23858 9.23858 1 12 1C14.7614 1 17 3.23858 17 6C17 8.76142 14.7614 11 12 11C9.23858 11 7 8.76142 7 6ZM12 3C10.3431 3 9 4.34315 9 6C9 7.65685 10.3431 9 12 9C13.6569 9 15 7.65685 15 6C15 4.34315 13.6569 3 12 3Z" fill="#FF5640"/>
<path d="M12 14C7.58172 14 4 17.5817 4 22C4 22.5523 3.55228 23 3 23C2.44772 23 2 22.5523 2 22C2 16.4772 6.47715 12 12 12C17.5228 12 22 16.4772 22 22C22 22.5523 21.5523 23 21 23H11C10.8284 23 10.667 22.9568 10.5259 22.8807C10.4398 22.8343 10.3613 22.7756 10.2927 22.707L9.89655 22.3068C9.78702 22.1973 9.64344 22.1428 9.49987 22.1431C9.35629 22.1428 9.21272 22.1973 9.10318 22.3068L8.70703 22.707C8.52606 22.888 8.27613 22.9998 7.99991 22.9998C7.44766 22.9998 7 22.5522 7 21.9999C7 21.4477 7.44766 21 7.99991 21C8.27613 21 8.52606 21.112 8.70703 21.293L9.10318 21.6932C9.21272 21.8027 9.35629 21.8572 9.49987 21.8569C9.64344 21.8572 9.78702 21.8027 9.89655 21.6932L10.2927 21.293C10.4737 21.112 10.7236 21 10.9998 21H19.9381C19.446 17.0537 16.0796 14 12 14Z" fill="#FF5640"/>
</svg>
