<svg width="24" height="24" viewBox="0 0 24 24" fill="none" xmlns="http://www.w3.org/2000/svg">
<path d="M11.8237 20.478C10.3514 19.3017 8.63237 17.5287 7.13402 14.9335C5.42137 11.9671 4.78366 9.28898 4.57895 7.33481C4.47672 6.35885 4.48256 5.56462 4.51557 5.00578C4.53208 4.72628 4.55541 4.50536 4.5755 4.34966C4.58555 4.27179 4.59479 4.21019 4.60198 4.16569C4.60558 4.14343 4.60866 4.12545 4.61107 4.11183L4.61417 4.0947L4.61531 4.08861L4.61576 4.08619L4.61597 4.08514C4.69247 3.68774 5.00115 3.37467 5.39764 3.29354L11.5938 2.02559C12.0879 1.92448 12.5799 2.20711 12.7415 2.68484L14.3755 7.51497C14.5283 7.96651 14.3411 8.4631 13.9282 8.70144L11.6585 10.0119C11.6581 10.0227 11.6578 10.0342 11.6577 10.0462C11.6552 10.3103 11.7387 10.909 12.3302 11.9335C12.9216 12.958 13.3985 13.3296 13.6284 13.4595C13.6389 13.4654 13.6489 13.4709 13.6585 13.476L15.9282 12.1655C16.3411 11.9272 16.8647 12.0134 17.1794 12.3714L20.5454 16.2016C20.8783 16.5804 20.8771 17.1478 20.5425 17.5252L18.4444 19.8912C18.078 20.3044 17.4459 20.3423 17.0327 19.9759C16.6195 19.6095 16.5816 18.9775 16.948 18.5643L18.4604 16.8587L16.2183 14.3075L14.3302 15.3976C14.2226 15.4597 14.1043 15.5013 13.9815 15.5201L13.8302 14.5316C13.9815 15.5201 13.9793 15.5204 13.9793 15.5204L13.977 15.5207L13.9725 15.5214L13.963 15.5227L13.9427 15.5253C13.9285 15.5269 13.9131 15.5284 13.8965 15.5297C13.8633 15.5324 13.8253 15.5341 13.7828 15.5341C13.6978 15.5342 13.5956 15.5275 13.4787 15.5079C13.2427 15.4683 12.959 15.3784 12.6448 15.2009C12.0179 14.8469 11.3117 14.1695 10.5981 12.9335C9.88451 11.6975 9.651 10.7472 9.65779 10.0273C9.6612 9.66649 9.7252 9.37583 9.80892 9.15169C9.8504 9.04064 9.89566 8.94877 9.93826 8.87512C9.95952 8.83837 9.98001 8.80634 9.99889 8.77887C10.0083 8.76514 10.0174 8.75256 10.0259 8.74111L10.0382 8.72478L10.0441 8.71725L10.047 8.71364L10.0484 8.71187C10.0484 8.71187 10.0498 8.71013 10.8302 9.33542L10.44 9.02278L10.0498 8.71013C10.1275 8.61316 10.2226 8.53152 10.3302 8.46939L12.2183 7.37929L11.1299 4.16197L6.51311 5.10672L6.51209 5.12372C6.48481 5.58545 6.47835 6.26991 6.56807 7.12644C6.74728 8.83724 7.31054 11.2392 8.86607 13.9335C10.2446 16.3213 11.8137 17.9187 13.121 18.9544C13.1669 18.9908 13.2087 19.0303 13.2464 19.0725C13.3987 19.2216 13.4952 19.4117 13.5306 19.6125L13.6257 20.1676C13.6527 20.3201 13.739 20.4471 13.8569 20.5291C13.9743 20.6117 14.1232 20.6494 14.2757 20.6224L14.8298 20.5217C15.0818 20.4772 15.3508 20.5287 15.5771 20.6871C16.0295 21.0038 16.1396 21.6272 15.823 22.0797C15.5063 22.5321 14.8829 22.6422 14.4304 22.3256C14.2041 22.1672 14.0635 21.9323 14.019 21.6802L13.9239 21.1252C13.8969 20.9727 13.8106 20.8457 13.6927 20.7636C13.5753 20.681 13.4264 20.6434 13.2739 20.6703L12.7198 20.771C12.4678 20.8156 12.1989 20.7639 11.9726 20.6055C11.9179 20.5672 11.8682 20.5244 11.8237 20.478Z" fill="#FF5640"/>
</svg>
