<svg width="24" height="24" viewBox="0 0 24 24" fill="none" xmlns="http://www.w3.org/2000/svg">
<path d="M15.2313 1.69253C14.687 1.61253 14.1922 2.00253 14.113 2.54253C14.0338 3.09253 14.4198 3.59251 14.9542 3.67251C18.2697 4.13251 20.0412 5.31254 20.0412 5.98254C20.0412 6.83254 17.2503 8.48254 12.1237 8.48254C6.99712 8.48254 4.20619 6.83254 4.20619 5.98254C4.20619 5.53254 5.14639 4.59253 7.67011 3.97253C7.75918 3.95253 7.83836 3.90251 7.90764 3.86251C7.93733 3.84251 7.96701 3.84253 7.99671 3.82253C8.03629 3.79253 8.06597 3.76254 8.09566 3.73254C8.15505 3.68254 8.21443 3.64251 8.25402 3.58251L8.58062 3.12252C8.66969 2.99252 8.79835 2.92252 8.9468 2.90252C9.08536 2.88252 9.23382 2.90253 9.36248 3.00253L9.80784 3.33251C10.0157 3.48251 10.273 3.55254 10.5402 3.51254C11.0845 3.42254 11.4507 2.91251 11.3616 2.36251C11.2726 1.81251 10.7678 1.44252 10.2235 1.53252C9.95629 1.57252 9.72865 1.72252 9.5802 1.93252L9.25362 2.39251C9.16454 2.52251 9.03587 2.59251 8.88742 2.61251C8.74886 2.63251 8.60041 2.61254 8.47175 2.51254L8.02639 2.18252C7.81856 2.03252 7.56123 1.96253 7.29402 2.00253C7.26433 2.00253 7.23464 2.02252 7.20495 2.03252C7.20495 2.03252 7.20496 2.03252 7.19506 2.03252C4.03794 2.80252 2.22681 4.24254 2.22681 5.98254V18.4825C2.22681 21.2325 7.3534 22.4825 12.1237 22.4825C16.894 22.4825 22.0206 21.2325 22.0206 18.4825V5.98254C22.0206 3.91254 19.4177 2.27253 15.2313 1.69253ZM12.1237 20.4825C6.92784 20.4825 4.20619 18.9925 4.20619 18.4825V17.0025C6.13608 18.0025 9.19423 18.4825 12.1237 18.4825C15.0532 18.4825 18.1113 18.0125 20.0412 17.0025V18.4825C20.0412 18.9925 17.3196 20.4825 12.1237 20.4825ZM12.1237 16.4825C6.92784 16.4825 4.20619 14.9925 4.20619 14.4825V13.0025C6.13608 14.0025 9.19423 14.4825 12.1237 14.4825C15.0532 14.4825 18.1113 14.0125 20.0412 13.0025V14.4825C20.0412 14.9925 17.3196 16.4825 12.1237 16.4825ZM12.1237 12.4825C6.92784 12.4825 4.20619 10.9925 4.20619 10.4825V8.78252C6.10639 9.90252 9.12495 10.4825 12.1237 10.4825C15.1225 10.4825 18.141 9.90252 20.0412 8.78252V10.4825C20.0412 10.9925 17.3196 12.4825 12.1237 12.4825Z" fill="#FF5640"/>
</svg>
