<svg width="24" height="24" viewBox="0 0 24 24" fill="none" xmlns="http://www.w3.org/2000/svg">
<path d="M11 3.05493C6.50005 3.55237 3 7.36745 3 12C3 13.41 3.32353 14.7416 3.89948 15.9272C3.91916 15.9677 3.93587 16.0089 3.94967 16.0505C4.02357 16.233 4.04007 16.4294 4.00386 16.6157L3.8936 17.1679C3.86404 17.3199 3.89915 17.4694 3.97972 17.5883C4.05972 17.7075 4.18519 17.796 4.33725 17.8256L4.89056 17.9302C5.14179 17.9791 5.37426 18.1237 5.52872 18.3527C5.83753 18.8106 5.71673 19.432 5.2589 19.7408C4.80106 20.0497 4.1796 19.9289 3.87079 19.471C3.71633 19.242 3.66942 18.9722 3.71826 18.721L3.82852 18.1687C3.85808 18.0167 3.82298 17.8672 3.7424 17.7484C3.6624 17.6291 3.53693 17.5406 3.38488 17.511L2.83156 17.4064C2.58033 17.3575 2.34772 17.213 2.19326 16.984C2.14392 16.9108 2.10555 16.8335 2.07777 16.754C1.38666 15.3139 1 13.7007 1 12C1 5.92487 5.92487 1 12 1C12.5523 1 13 1.44772 13 2V11H22C22.5523 11 23 11.4477 23 12C23 18.0751 18.0751 23 12 23C10.4374 23 8.94843 22.6736 7.59963 22.0843C7.09354 21.8631 6.86253 21.2736 7.08365 20.7675C7.30477 20.2615 7.89428 20.0304 8.40037 20.2516C9.50142 20.7326 10.7182 21 12 21C16.6326 21 20.4476 17.5 20.9451 13H12C11.4477 13 11 12.5523 11 12V3.05493Z" fill="#FF5640"/>
<path fill-rule="evenodd" clip-rule="evenodd" d="M15.2996 1.50375C14.9959 1.40835 14.6649 1.46329 14.4082 1.65169C14.1516 1.84008 14 2.13943 14 2.4578V9C14 9.55228 14.4477 10 15 10H21.5422C21.8606 10 22.1599 9.8484 22.3483 9.59176C22.5367 9.33511 22.5916 9.00409 22.4962 8.70035C21.4214 5.27827 18.7217 2.57857 15.2996 1.50375ZM16 8V3.93529C17.7582 4.80922 19.1908 6.24179 20.0647 8H16Z" fill="#FF5640"/>
</svg>
