<svg width="24" height="24" viewBox="0 0 24 24" fill="none" xmlns="http://www.w3.org/2000/svg">
<path d="M12 3C8.68629 3 6 5.68629 6 9C6 9.67485 6.30075 10.6962 6.87326 11.9641C7.43101 13.1994 8.19189 14.5524 8.99164 15.8493L8.9813 15.8557C9.09708 16.0716 9.12561 16.3142 9.07653 16.5398L8.95405 17.0895C8.92113 17.2408 8.95291 17.3911 9.03084 17.5117C9.10817 17.6327 9.23164 17.724 9.38301 17.7569L9.93387 17.8738C10.184 17.9281 10.4133 18.0778 10.5627 18.3102C10.8612 18.7748 10.7267 19.3934 10.2621 19.692C9.79756 19.9906 9.17894 19.856 8.88035 19.3915C8.731 19.1591 8.68994 18.8884 8.74433 18.6383L8.8668 18.0887C8.89972 17.9373 8.86794 17.7871 8.79002 17.6665C8.71269 17.5455 8.58921 17.4542 8.43784 17.4213L7.88698 17.3044C7.6369 17.25 7.40769 17.1002 7.25835 16.8679C7.22814 16.8209 7.20237 16.7723 7.18092 16.7226C6.39598 15.4393 5.63071 14.0722 5.05047 12.7872C4.45833 11.4758 4 10.1256 4 9C4 4.58172 7.58172 1 12 1C16.4183 1 20 4.58172 20 9C20 10.2031 19.4753 11.6711 18.8117 13.0867C18.1305 14.5399 17.2312 16.0835 16.3451 17.4843C15.4569 18.8885 14.5704 20.1676 13.9069 21.0945C13.5748 21.5584 13.2977 21.9353 13.1031 22.1968C13.0058 22.3276 12.9291 22.4296 12.8764 22.4994L12.8158 22.5794L12.7998 22.6004L12.7943 22.6075L12 22C12.7937 22.6083 12.7943 22.6075 12.7943 22.6075C12.4583 23.0459 11.8301 23.1297 11.3917 22.7937C10.9534 22.4578 10.8703 21.8301 11.2063 21.3917L11.2071 21.3907L11.2104 21.3864L11.2244 21.368L11.2808 21.2936C11.3306 21.2276 11.4043 21.1296 11.4984 21.0031C11.6867 20.75 11.9565 20.3831 12.2806 19.9303C12.9296 19.0238 13.7931 17.7777 14.6549 16.4152C15.5188 15.0493 16.3695 13.5845 17.0008 12.2378C17.6497 10.8534 18 9.72991 18 9C18 5.68629 15.3137 3 12 3Z" fill="#FF5640"/>
<path fill-rule="evenodd" clip-rule="evenodd" d="M12 13C14.2091 13 16 11.2091 16 9C16 6.79086 14.2091 5 12 5C9.79086 5 8 6.79086 8 9C8 11.2091 9.79086 13 12 13ZM12 11C13.1046 11 14 10.1046 14 9C14 7.89543 13.1046 7 12 7C10.8954 7 10 7.89543 10 9C10 10.1046 10.8954 11 12 11Z" fill="#FF5640"/>
</svg>
