<svg width="24" height="24" viewBox="0 0 24 24" fill="none" xmlns="http://www.w3.org/2000/svg">
<path fill-rule="evenodd" clip-rule="evenodd" d="M13.5109 11.6557C13.3729 11.8703 13.1353 12 12.8801 12H11.1203C10.8652 12 10.6276 11.8703 10.4896 11.6557L9.78983 10.5679C9.79045 10.5686 9.79009 10.5683 9.78911 10.5667L9.78983 10.5679C9.78942 10.5674 9.78859 10.5664 9.78725 10.5651C9.78614 10.564 9.78467 10.5626 9.7828 10.5609C9.77495 10.554 9.76156 10.544 9.74134 10.5329C9.69885 10.5096 9.67654 10.5086 9.67422 10.5085L8.70628 10.6072C8.41649 10.6368 8.13579 10.4959 7.98635 10.2459L7.10646 8.77364C6.95041 8.51254 6.96752 8.18305 7.14977 7.93951L7.82272 7.04028L7.85076 7.06759C7.85042 7.04627 7.85024 7.02492 7.85022 7.00352L7.82272 7.04028L7.81605 7.03379C7.77808 6.99683 7.74414 6.95595 7.71479 6.91183L7.12582 6.02655C6.96567 5.78584 6.95815 5.47452 7.10646 5.22636L7.98636 3.75411C8.13579 3.50407 8.41649 3.36318 8.70628 3.39275L9.67422 3.49152C9.67655 3.49144 9.69886 3.49039 9.74135 3.46709C9.76156 3.456 9.77495 3.44599 9.7828 3.43906C9.78695 3.4354 9.78908 3.43302 9.78983 3.43215C9.78983 3.43216 9.78989 3.43206 9.78983 3.43215L10.4896 2.34427C10.6276 2.1297 10.8652 2 11.1203 2H12.8801C13.1416 2 13.3842 2.13616 13.5204 2.35935L14.0922 3.29659C14.0937 3.29902 14.1112 3.32439 14.1683 3.35638C14.2236 3.3873 14.2528 3.38888 14.257 3.38888H15.3703C15.6343 3.38888 15.8787 3.52758 16.0141 3.75411L16.894 5.22636C17.0501 5.48746 17.033 5.81696 16.8507 6.06049L16.1503 6.99644C16.1504 6.9931 16.1506 6.99062 16.1509 6.98898C16.151 6.98769 16.1512 6.98693 16.1512 6.98668L16.1509 6.98898L16.1503 6.99644L16.1502 7L16.1503 7.00385L16.1502 7.01038L16.151 7.01272C16.1509 7.01225 16.1505 7.00972 16.1503 7.00385L16.8507 7.93942C17.033 8.18296 17.0501 8.5125 16.894 8.77363L16.0141 10.2459C15.8647 10.4959 15.584 10.6368 15.2942 10.6072L14.3263 10.5085C14.324 10.5086 14.3017 10.5096 14.2592 10.5329C14.2389 10.544 14.2255 10.554 14.2177 10.5609C14.2135 10.5646 14.2114 10.567 14.2107 10.5679L13.5109 11.6557ZM12.0002 9.65004C10.539 9.65004 9.35406 8.46743 9.35023 7.00714L9.35025 7L9.35023 6.99362C9.35369 5.53302 10.5388 4.35004 12.0002 4.35004C13.4638 4.35004 14.6502 5.53648 14.6502 7.00004C14.6502 8.46359 13.4638 9.65004 12.0002 9.65004ZM4.85268 8.87042C5.31574 8.56943 5.44712 7.95005 5.14614 7.48699C4.84515 7.02393 4.22576 6.89254 3.7627 7.19353L1.45501 8.69353C1.17122 8.878 1 9.1935 1 9.53198C1 9.87045 1.17122 10.186 1.45501 10.3704L4.03587 12.048L1.45501 13.7255C1.17122 13.91 1 14.2255 1 14.564C1 14.9025 1.17122 15.218 1.45501 15.4024L11.455 21.9024C11.7864 22.1178 12.2136 22.1178 12.545 21.9024L14.4691 20.6517C14.4948 20.6381 14.5201 20.6232 14.5449 20.607C14.7766 20.4566 14.9252 20.2266 14.9784 19.9762L15.0927 19.4248C15.1249 19.2733 15.2156 19.1494 15.3362 19.0715C15.4564 18.993 15.6065 18.9605 15.7581 18.9927L16.3083 19.1126C16.5586 19.1658 16.8292 19.1236 17.0609 18.9732C17.524 18.6724 17.6557 18.0532 17.3549 17.59C17.0541 17.1268 16.4349 16.9952 15.9717 17.296C15.74 17.4464 15.5913 17.6763 15.5381 17.9267L15.4239 18.4781C15.3916 18.6296 15.3009 18.7535 15.1803 18.8314C15.0601 18.9099 14.91 18.9424 14.7585 18.9102L14.3027 18.8109C14.0272 18.7235 13.7162 18.7557 13.455 18.9255L12 19.8713L3.8349 14.564L5.87077 13.2407L11.455 16.8704C11.7864 17.0858 12.2136 17.0858 12.545 16.8704L18.1292 13.2407L20.1651 14.564L19.455 15.0255C18.992 15.3265 18.8606 15.9459 19.1616 16.409C19.4625 16.872 20.0819 17.0034 20.545 16.7024L22.545 15.4024C22.8288 15.218 23 14.9025 23 14.564C23 14.2255 22.8288 13.91 22.545 13.7255L19.9641 12.048L22.545 10.3704C22.8288 10.186 23 9.87045 23 9.53198C23 9.1935 22.8288 8.878 22.545 8.69353L20.2373 7.19353C19.7742 6.89255 19.1549 7.02393 18.8539 7.48699C18.5529 7.95005 18.6843 8.56943 19.1473 8.87042L20.1651 9.53198L12 14.8393L3.8349 9.53198L4.85268 8.87042Z" fill="#FF5640"/>
</svg>
