<svg width="24" height="24" viewBox="0 0 24 24" fill="none" xmlns="http://www.w3.org/2000/svg">
<path d="M6.58118 1.18627C6.27637 0.968545 5.87543 0.939431 5.54236 1.11084C5.20929 1.28224 4.99995 1.62542 4.99995 2V10C4.99995 10.5523 5.44766 11 5.99995 11C6.55223 11 6.99995 10.5523 6.99995 10V3.94319L18.2795 12L6.99995 20.0568V17C6.99995 16.7168 6.88224 16.4611 6.69308 16.2792L6.30652 15.8966C6.19698 15.787 6.14248 15.6434 6.14284 15.4999C6.14248 15.3563 6.19698 15.2127 6.30652 15.1032L6.70673 14.707C6.8877 14.5261 6.9997 14.2761 6.9997 13.9999C6.9997 13.4477 6.55204 13 5.99979 13C5.44754 13 4.99988 13.4477 4.99988 13.9999C4.99988 14.2761 5.1117 14.5261 5.29267 14.707L5.69288 15.1032C5.80242 15.2127 5.85692 15.3563 5.85657 15.4999C5.85692 15.6434 5.80242 15.787 5.69288 15.8966L5.29267 16.2927C5.1117 16.4737 4.99988 16.7236 4.99988 16.9998C4.99988 17.0037 4.9999 17.0076 4.99995 17.0115V22C4.99995 22.3746 5.20929 22.7178 5.54236 22.8892C5.87543 23.0606 6.27637 23.0315 6.58118 22.8137L20.5812 12.8137C20.844 12.626 20.9999 12.323 20.9999 12C20.9999 11.6771 20.844 11.374 20.5812 11.1863L6.58118 1.18627Z" fill="#FF5640"/>
</svg>
