<svg width="24" height="24" viewBox="0 0 24 24" fill="none" xmlns="http://www.w3.org/2000/svg">
<path d="M12 3C12.5523 3 13 3.44772 13 4V11H20C20.5523 11 21 11.4477 21 12C21 12.5523 20.5523 13 20 13H13V20C13 20.5523 12.5523 21 12 21C11.4477 21 11 20.5523 11 20V13H7C6.82845 13 6.66699 12.9568 6.5259 12.8807C6.43981 12.8343 6.3613 12.7756 6.29271 12.707L5.89655 12.3068C5.78702 12.1973 5.64344 12.1428 5.49987 12.1431C5.35629 12.1428 5.21272 12.1973 5.10318 12.3068L4.70703 12.707C4.52606 12.888 4.27613 12.9998 3.99991 12.9998C3.44766 12.9998 3 12.5522 3 11.9999C3 11.4477 3.44766 11 3.99991 11C4.27613 11 4.52606 11.112 4.70703 11.293L5.10318 11.6932C5.21272 11.8027 5.35629 11.8572 5.49987 11.8569C5.64344 11.8572 5.78702 11.8027 5.89655 11.6932L6.29271 11.293C6.47367 11.112 6.72361 11 6.99982 11C6.99977 11 6.99988 11 6.99982 11H11V4C11 3.44772 11.4477 3 12 3Z" fill="#FF5640"/>
</svg>
