<svg width="24" height="24" viewBox="0 0 24 24" fill="none" xmlns="http://www.w3.org/2000/svg">
<path fill-rule="evenodd" clip-rule="evenodd" d="M12 15C14.2091 15 16 13.2091 16 11V7C16 4.79086 14.2091 3 12 3C10.8808 3 9.87051 3.45831 9.14338 4.20005C8.75676 4.59443 8.12363 4.60072 7.72924 4.2141C7.33485 3.82748 7.32856 3.19434 7.71518 2.79996C8.80297 1.69033 10.3218 1 12 1C15.3137 1 18 3.68629 18 7V11C18 14.3137 15.3137 17 12 17C8.69029 17 6.00648 14.3202 6.00001 11.012C5.99996 11.0079 5.99993 11.0039 5.99993 10.9998C5.99993 10.7236 6.11176 10.4737 6.29273 10.2927L6.69294 9.89655C6.80247 9.78702 6.85697 9.64344 6.85662 9.49987C6.85697 9.35629 6.80247 9.21272 6.69294 9.10318L6.29273 8.70703C6.11176 8.52606 5.99993 8.27613 5.99993 7.99991C5.99993 7.44766 6.44759 7 6.99984 7C7.5521 7 7.99976 7.44766 7.99976 7.99991C7.99976 8.27613 7.88775 8.52606 7.70678 8.70703L7.30657 9.10318C7.19704 9.21272 7.14254 9.35629 7.14289 9.49987C7.14254 9.64344 7.19704 9.78702 7.30657 9.89655L7.69303 10.2791C7.88225 10.461 8 10.7168 8 11C8 13.2091 9.79086 15 12 15ZM4 10C4.55228 10 5 10.4477 5 11C5 14.866 8.13401 18 12 18C15.866 18 19 14.866 19 11C19 10.4477 19.4477 10 20 10C20.5523 10 21 10.4477 21 11C21 15.6326 17.5 19.4476 13 19.9451V21H16C16.5523 21 17 21.4477 17 22C17 22.5523 16.5523 23 16 23H12H8C7.44772 23 7 22.5523 7 22C7 21.4477 7.44772 21 8 21H11V19.9451C6.50005 19.4476 3 15.6326 3 11C3 10.4477 3.44772 10 4 10Z" fill="#FF5640"/>
</svg>
