<svg width="24" height="24" viewBox="0 0 24 24" fill="none" xmlns="http://www.w3.org/2000/svg">
<path d="M2 3C1.44772 3 1 3.44772 1 4V20C1 20.5523 1.44772 21 2 21H18.9287C18.9404 21 18.952 20.9998 18.9635 20.9994C18.975 20.9998 18.9865 21 18.998 21C19.2575 21 19.487 20.9 19.6666 20.74L20.1058 20.3C20.3254 20.08 20.6746 20.08 20.8942 20.3L21.3334 20.74C21.513 20.9 21.7425 21 22.002 21C22.5509 21 23 20.55 23 20C23 19.45 22.5509 19 22.002 19C21.7425 19 21.513 19.1 21.3334 19.26L20.8942 19.7C20.6746 19.92 20.3254 19.92 20.1058 19.7L19.6666 19.26C19.487 19.1 19.2575 19 18.998 19C18.9865 19 18.975 19.0002 18.9635 19.0006C18.952 19.0002 18.9404 19 18.9287 19H3V5H21V15C21 15.5523 21.4477 16 22 16C22.5523 16 23 15.5523 23 15V4C23 3.44772 22.5523 3 22 3H2Z" fill="#FF5640"/>
<path d="M11 10C11 11.6569 9.65685 13 8 13C6.34315 13 5 11.6569 5 10C5 8.34315 6.34315 7 8 7C9.65685 7 11 8.34315 11 10Z" fill="#FF5640"/>
<path d="M13 8C13 7.44772 13.4477 7 14 7H18C18.5523 7 19 7.44772 19 8C19 8.55228 18.5523 9 18 9H14C13.4477 9 13 8.55228 13 8Z" fill="#FF5640"/>
<path d="M14 11C13.4477 11 13 11.4477 13 12C13 12.5523 13.4477 13 14 13H18C18.5523 13 19 12.5523 19 12C19 11.4477 18.5523 11 18 11H14Z" fill="#FF5640"/>
<path d="M5 16C5 15.4477 5.44772 15 6 15H18C18.5523 15 19 15.4477 19 16C19 16.5523 18.5523 17 18 17H6C5.44772 17 5 16.5523 5 16Z" fill="#FF5640"/>
</svg>
