<svg width="24" height="24" viewBox="0 0 24 24" fill="none" xmlns="http://www.w3.org/2000/svg">
<path fill-rule="evenodd" clip-rule="evenodd" d="M16 1C16.5523 1 17 1.44772 17 2V3C18.6569 3 20 4.34315 20 6C20 6.55228 19.5523 7 19 7C18.4477 7 18 6.55228 18 6C18 5.44772 17.5523 5 17 5V7C18.6569 7 20 8.34315 20 10C20 11.6569 18.6569 13 17 13V13.5C17 14.0523 16.5523 14.5 16 14.5C15.4477 14.5 15 14.0523 15 13.5V13C13.3431 13 12 11.6569 12 10C12 9.44772 12.4477 9 13 9C13.5523 9 14 9.44772 14 10C14 10.5523 14.4477 11 15 11V9C13.3431 9 12 7.65685 12 6C12 4.34315 13.3431 3 15 3V2C15 1.44772 15.4477 1 16 1ZM14 6C14 5.44772 14.4477 5 15 5V7C14.4477 7 14 6.55228 14 6ZM18 10C18 10.5523 17.5523 11 17 11V9C17.5523 9 18 9.44772 18 10Z" fill="#FF5640"/>
<path d="M2.70809 20.4365C2.47753 20.5476 2.20463 20.5708 1.9439 20.4796C1.42261 20.2973 1.14783 19.727 1.33014 19.2057C1.51245 18.6844 2.0828 18.4096 2.60409 18.5919C2.86482 18.6831 3.06382 18.8712 3.1749 19.1017L3.41673 19.6103C3.48396 19.7498 3.6015 19.8487 3.73714 19.8957C3.87255 19.9435 4.02607 19.9394 4.16562 19.8722L4.65626 19.6327C4.85031 19.533 5.07819 19.4959 5.30874 19.542L12.4045 20.9611L20.4101 17.7589C20.792 17.6062 20.9617 17.1597 20.7778 16.7919C20.6193 16.4748 20.2494 16.3254 19.9151 16.4433L12.8328 18.943C12.6371 19.0121 12.4247 19.0186 12.2252 18.9615L8.72521 17.9615C8.19418 17.8098 7.88668 17.2563 8.03841 16.7253C8.14243 16.3612 8.43528 16.1022 8.78027 16.0243C8.93852 15.9885 9.10774 15.9908 9.27474 16.0385L10.5947 16.4156C11.0484 16.5452 11.5 16.2045 11.5 15.7327C11.5 15.427 11.3044 15.1556 11.0144 15.0589L8.039 14.0671L2.38463 16.4231C1.87483 16.6355 1.28936 16.3944 1.07694 15.8846C0.864523 15.3748 1.1056 14.7893 1.6154 14.5769L7.6154 12.0769C7.83826 11.9841 8.0872 11.975 8.31624 12.0513L11.6468 13.1615C12.7535 13.5304 13.5 14.5661 13.5 15.7327C13.5 16.0539 13.4452 16.3592 13.3452 16.6412L19.2495 14.5574C20.5349 14.1037 21.957 14.6782 22.5667 15.8974C23.2739 17.3118 22.6212 19.0286 21.1529 19.6159L12.8713 22.9285C12.6912 23.0005 12.494 23.0186 12.3038 22.9806L5.00822 21.5215C4.93056 21.5138 4.85256 21.4969 4.77563 21.47C4.5149 21.3788 4.31595 21.1905 4.20487 20.96L3.96304 20.4514C3.89581 20.3119 3.77828 20.213 3.64264 20.166C3.50723 20.1182 3.35371 20.1223 3.21415 20.1895L2.70809 20.4365Z" fill="#FF5640"/>
</svg>
