<svg width="24" height="24" viewBox="0 0 24 24" fill="none" xmlns="http://www.w3.org/2000/svg">
<path fill-rule="evenodd" clip-rule="evenodd" d="M11 3C10.4477 3 10 3.44772 10 4C10 4.55228 10.4477 5 11 5H17.5194L19.9194 8H4.14654L4.93703 7.05922C4.95178 7.04166 4.96583 7.02374 4.97917 7.00549C4.98137 7.00267 4.98356 6.99982 4.98573 6.99697C5.15302 6.77718 5.21542 6.51057 5.18102 6.25696L5.10249 5.69934C5.08167 5.54584 5.12526 5.39859 5.2125 5.28455C5.29918 5.17009 5.4295 5.08886 5.583 5.06804L6.14139 4.9952C6.395 4.9608 6.63536 4.82965 6.80265 4.60986C7.13712 4.17041 7.05203 3.54307 6.61259 3.2086C6.17315 2.87412 5.54581 2.95921 5.21133 3.39865C5.04404 3.61845 4.98179 3.88516 5.01619 4.13877L5.09471 4.69639C5.11553 4.84988 5.07195 4.99714 4.98471 5.11117C4.89803 5.22563 4.76771 5.30687 4.61421 5.32769L4.05581 5.40053C3.80221 5.43493 3.56171 5.56597 3.39442 5.78576L3.3914 5.78975L1.24478 8.34451C1.10844 8.50145 1.02021 8.70132 1.00306 8.92114C1.00103 8.94716 1 8.97346 1 9C1 9.14069 1.02905 9.2746 1.08149 9.39604C1.14114 9.53475 1.23324 9.662 1.35672 9.76576C1.54429 9.92337 1.77279 10.0003 2 10.0002V12C2 13.0144 2.37764 13.9407 3 14.6458V22C3 22.5523 3.44772 23 4 23H20C20.5523 23 21 22.5523 21 22V14.6458C21.6224 13.9407 22 13.0144 22 12V10C22.0912 10.0001 22.1826 9.98774 22.2717 9.96266C22.3347 9.94491 22.3964 9.92079 22.456 9.89019C22.5285 9.85299 22.5958 9.80722 22.6567 9.75418C22.7623 9.66233 22.8442 9.55268 22.9015 9.43329C22.959 9.31398 22.9934 9.18153 22.9991 9.04166C23.0036 8.93674 22.9916 8.83091 22.9627 8.72835C22.9451 8.66591 22.9212 8.60469 22.891 8.54561C22.8588 8.4826 22.8202 8.42345 22.7759 8.36905L18.7809 3.3753C18.5911 3.13809 18.3038 3 18 3H11ZM5 21V15.874C5.31962 15.9562 5.6547 16 6 16C7.19469 16 8.26706 15.4762 9 14.6458C9.73295 15.4762 10.8053 16 12 16C13.1947 16 14.2671 15.4762 15 14.6458C15.7329 15.4762 16.8053 16 18 16C18.3453 16 18.6804 15.9562 19 15.874V21H5ZM16 10V12C16 13.1046 16.8954 14 18 14C19.1046 14 20 13.1046 20 12V10H16ZM14 10H10V12C10 13.1046 10.8954 14 12 14C13.1046 14 14 13.1046 14 12V10ZM8 10V12C8 13.1046 7.10457 14 6 14C4.89543 14 4 13.1046 4 12V10H8Z" fill="#FF5640"/>
</svg>
