<svg width="24" height="24" viewBox="0 0 24 24" fill="none" xmlns="http://www.w3.org/2000/svg">
<path fill-rule="evenodd" clip-rule="evenodd" d="M15 17C19.4183 17 23 13.4183 23 9C23 4.58172 19.4183 1 15 1C10.5817 1 7.00002 4.58172 7.00002 9C7.00002 10.849 7.62729 12.5515 8.68065 13.9063L7.22567 15.364C6.05084 16.5408 4.59309 18.0005 3.46088 19.1327C3.43333 19.1603 3.40772 19.189 3.38406 19.2188C3.21826 19.4072 3.13545 19.6431 3.13545 19.8789L3.13832 20.442C3.13832 20.5969 3.07533 20.7369 2.97356 20.8382C2.87229 20.94 2.73223 21.003 2.57732 21.003L2.01421 21.0001C1.75828 21.0001 1.50235 21.0976 1.30704 21.293C0.916534 21.6835 0.916534 22.3165 1.30704 22.707C1.69754 23.0975 2.33062 23.0975 2.72113 22.707C2.91644 22.5117 3.0141 22.2559 3.0141 22L3.01123 21.4369C3.01123 21.282 3.07421 21.1419 3.17598 21.0406C3.27726 20.9389 3.41732 20.8759 3.57222 20.8759L4.13534 20.8788C4.39127 20.8788 4.64707 20.7811 4.84238 20.5858C4.86473 20.5634 4.88579 20.5403 4.90558 20.5165C6.034 19.388 7.47668 17.9434 8.64106 16.777L10.095 15.3203C11.4496 16.3731 13.1516 17 15 17ZM15 15C18.3137 15 21 12.3137 21 9C21 5.68629 18.3137 3 15 3C11.6863 3 9.00002 5.68629 9.00002 9C9.00002 12.3137 11.6863 15 15 15Z" fill="#FF5640"/>
</svg>
