<svg width="24" height="24" viewBox="0 0 24 24" fill="none" xmlns="http://www.w3.org/2000/svg">
<path fill-rule="evenodd" clip-rule="evenodd" d="M22.1318 1.36827C22.4126 1.64902 22.5006 2.06926 22.3562 2.4391L14.578 22.3594C14.4267 22.747 14.0512 23.0004 13.6351 22.9956C13.219 22.9909 12.8494 22.729 12.707 22.338L9.62381 13.8763L1.16205 10.7931C0.771102 10.6507 0.509213 10.281 0.50446 9.86497C0.499706 9.44891 0.753084 9.07338 1.14067 8.92204L21.061 1.14387C21.4308 0.999461 21.8511 1.08752 22.1318 1.36827ZM4.33662 9.82119L10.1474 11.9384L11.5165 10.5693C11.5194 10.5663 11.5223 10.5634 11.5252 10.5605C11.7205 10.3652 11.9763 10.2675 12.2322 10.2675L12.7953 10.2704C12.9503 10.2704 13.0903 10.2074 13.1916 10.1057C13.2934 10.0044 13.3563 9.86432 13.3563 9.70942L13.3535 9.1463C13.3535 8.89037 13.4511 8.63457 13.6464 8.43926C14.0369 8.04875 14.67 8.04875 15.0605 8.43926C15.451 8.82976 15.451 9.46284 15.0605 9.85335C14.8652 10.0487 14.6093 10.1462 14.3534 10.1462L13.7902 10.1433C13.6353 10.1433 13.4953 10.2063 13.394 10.3081C13.2922 10.4094 13.2293 10.5494 13.2293 10.7043L13.232 11.2444C13.2381 11.508 13.1406 11.7736 12.9394 11.9749L11.5616 13.3526L13.6789 19.1635L19.6635 3.8366L4.33662 9.82119Z" fill="#FF5640"/>
</svg>
