<svg width="24" height="24" viewBox="0 0 24 24" fill="none" xmlns="http://www.w3.org/2000/svg">
<path fill-rule="evenodd" clip-rule="evenodd" d="M18.8762 12.541C18.6922 12.8271 18.3753 13 18.0352 13H15.9648C15.6247 13 15.3078 12.8271 15.1238 12.541L14.3088 11.2739C14.3043 11.2706 14.2969 11.2656 14.2859 11.2595C14.2732 11.2526 14.2637 11.2486 14.2577 11.2465L13.1367 11.3609C12.7503 11.4003 12.376 11.2124 12.1768 10.879L11.1416 9.14699C10.9336 8.79886 10.9564 8.35953 11.1994 8.03482L11.9318 7.05613C11.9061 7.02603 11.8823 6.99441 11.8603 6.96144L11.1674 5.91993C10.9539 5.59899 10.9439 5.18389 11.1416 4.853L12.1768 3.12095C12.376 2.78757 12.7503 2.59971 13.1367 2.63913L14.2577 2.75353C14.2637 2.75139 14.2732 2.74743 14.2859 2.74048C14.2969 2.73444 14.3043 2.72941 14.3088 2.72614L15.1238 1.45903C15.3078 1.17293 15.6247 1 15.9648 1H18.0352C18.3838 1 18.7072 1.18155 18.8888 1.47914L19.5578 2.57565L19.5604 2.57799C19.5678 2.58475 19.583 2.59663 19.6081 2.61071C19.6328 2.6245 19.6498 2.63071 19.6583 2.6332L19.6612 2.63397H20.9648C21.3167 2.63397 21.6427 2.81891 21.8232 3.12096L22.8584 4.85301C23.0664 5.20115 23.0436 5.64047 22.8006 5.96518L22.0261 7.00015L22.8005 8.0347C23.0436 8.35942 23.0665 8.79881 22.8584 9.14698L21.8232 10.879C21.624 11.2124 21.2497 11.4003 20.8633 11.3609L19.7423 11.2465C19.7363 11.2486 19.7268 11.2526 19.7141 11.2595C19.7031 11.2656 19.6957 11.2706 19.6912 11.2739L18.8762 12.541ZM20 7.00215C19.9988 8.65801 18.6561 10 17 10C15.3431 10 14 8.65685 14 7C14 5.34315 15.3431 4 17 4C18.6569 4 20 5.34315 20 7V7.00215Z" fill="#FF5640"/>
<path d="M7.6154 11.0769C7.83826 10.9841 8.0872 10.975 8.31624 11.0513L11.6468 12.1615C12.7535 12.5304 13.5 13.5661 13.5 14.7327C13.5 15.0539 13.4452 15.3592 13.3452 15.6413L19.2496 13.5574C20.5351 13.1037 21.9572 13.6782 22.5668 14.8974C23.274 16.3118 22.6213 18.0286 21.153 18.6159L12.8714 21.9285C12.6913 22.0005 12.4942 22.0186 12.3039 21.9806L4.96598 20.513C4.93027 20.5073 4.89452 20.4996 4.85884 20.4898C4.54561 20.4079 4.30292 20.1835 4.18712 19.9013L3.97767 19.5284C3.90112 19.3937 3.77715 19.3031 3.63863 19.2653C3.5003 19.2269 3.34741 19.2413 3.21273 19.3179L2.72459 19.5986C2.50209 19.7251 2.2314 19.7667 1.96508 19.6935C1.43262 19.5469 1.11979 18.9965 1.26633 18.4641C1.41286 17.9316 1.96325 17.6188 2.49571 17.7653C2.76202 17.8386 2.97333 18.0127 3.09979 18.2352L3.37556 18.7262C3.4521 18.8609 3.57607 18.9515 3.71459 18.9893C3.85292 19.0277 4.00581 19.0133 4.14049 18.9367L4.51223 18.7229C4.73195 18.558 5.01829 18.4839 5.30886 18.542L12.4047 19.9611L20.4103 16.7589C20.7921 16.6062 20.9619 16.1597 20.7779 15.7919C20.6194 15.4748 20.2495 15.3254 19.9152 15.4433L12.8329 17.943C12.6372 18.0121 12.4249 18.0186 12.2253 17.9615L8.72533 16.9615C8.65791 16.9423 8.59409 16.9165 8.53436 16.8852C8.12359 16.6696 7.90603 16.1889 8.03849 15.7253C8.19022 15.1942 8.7437 14.8868 9.27474 15.0385L10.5947 15.4156C11.0484 15.5452 11.5 15.2045 11.5 14.7327C11.5 14.427 11.3044 14.1556 11.0144 14.0589L8.039 13.0671L2.38463 15.4231C1.87483 15.6355 1.28936 15.3944 1.07694 14.8846C0.864523 14.3748 1.1056 13.7893 1.6154 13.5769L7.6154 11.0769Z" fill="#FF5640"/>
</svg>
