<svg width="24" height="24" viewBox="0 0 24 24" fill="none" xmlns="http://www.w3.org/2000/svg">
<path fill-rule="evenodd" clip-rule="evenodd" d="M11 2C11 1.44772 11.4477 1 12 1C16.9706 1 21 5.02944 21 10V14V16C21 16.385 20.7824 16.7192 20.4635 16.8863C19.4209 19.5803 16.9619 21.5688 14 21.9381V22C14 22.5523 13.5523 23 13 23H10C9.44772 23 9 22.5523 9 22V20C9 19.4477 9.44772 19 10 19H13C13.5245 19 13.9548 19.4039 13.9967 19.9176C15.7927 19.6173 17.3185 18.5192 18.1973 17H17C16.4477 17 16 16.5523 16 16V10C16 9.44771 16.4477 9 17 9H18.9291C18.4439 5.60771 15.5265 3 12 3C11.4477 3 11 2.55228 11 2ZM19 14C19 14.3407 18.9716 14.6748 18.917 15H18V11H19V14ZM6.06128 6.29038C6.05427 6.30289 6.04696 6.31531 6.03935 6.32763C5.54639 7.12582 5.2093 8.03028 5.07077 9H7C7.55228 9 8 9.44771 8 10V16C8 16.5523 7.55228 17 7 17H4C3.44772 17 3 16.5523 3 16V10C3 8.26955 3.48936 6.65034 4.33772 5.2767C4.36503 5.23248 4.39523 5.19113 4.42792 5.15274C4.46354 5.0893 4.50668 5.02878 4.55741 4.97244C4.74223 4.76717 4.99257 4.65626 5.24815 4.64287L5.81065 4.61626C5.96534 4.60815 6.10191 4.53793 6.19772 4.43099C6.29405 4.32453 6.34962 4.18136 6.34151 4.02667L6.30918 3.46448C6.29578 3.2089 6.37992 2.94834 6.56474 2.74307C6.93427 2.33267 7.56649 2.29953 7.97689 2.66906C8.3873 3.03859 8.42043 3.67081 8.0509 4.08121C7.86608 4.28648 7.6156 4.39727 7.36003 4.41067L6.79753 4.43727C6.64284 4.44538 6.50627 4.51561 6.41046 4.62254C6.31413 4.729 6.25856 4.87217 6.26666 5.02686L6.299 5.58906C6.31196 5.83632 6.23375 6.08836 6.06128 6.29038ZM5 15V11H6V15H5Z" fill="#FF5640"/>
</svg>
