<svg width="24" height="24" viewBox="0 0 24 24" fill="none" xmlns="http://www.w3.org/2000/svg">
<path fill-rule="evenodd" clip-rule="evenodd" d="M23 5C23 7.20914 21.2091 9 19 9C17.7961 9 16.7164 8.46811 15.9831 7.62651L8.91208 11.162C8.96969 11.4322 9 11.7126 9 12C9 12.2874 8.96969 12.5677 8.91209 12.838L10.1237 13.4438C10.17 13.4669 10.2138 13.4932 10.2548 13.5222C10.2689 13.5284 10.283 13.5349 10.2969 13.5418C10.5447 13.6638 10.7194 13.8747 10.8018 14.117L10.9804 14.6511C11.0303 14.7978 11.135 14.9101 11.264 14.9732C11.3926 15.037 11.5455 15.0515 11.6921 15.0016L12.2244 14.8176C12.4667 14.7352 12.7404 14.7452 12.9882 14.8672C13.4836 15.1112 13.6874 15.7106 13.4434 16.206C13.1994 16.7015 12.6 16.9053 12.1046 16.6613C11.8568 16.5392 11.682 16.3285 11.5996 16.0862L11.421 15.5521C11.3712 15.4055 11.2664 15.2931 11.1375 15.23C11.0088 15.1663 10.8559 15.1517 10.7093 15.2016L10.1771 15.3856C9.93477 15.468 9.66115 15.4579 9.41335 15.3358C9.36528 15.3122 9.31996 15.2851 9.27752 15.2552C9.26133 15.2481 9.24524 15.2406 9.22926 15.2326L8.01697 14.6265C7.28366 15.4681 6.20395 16 5 16C2.79086 16 1 14.2091 1 12C1 9.79086 2.79086 8 5 8C6.20393 8 7.28364 8.53189 8.01694 9.3735L15.0879 5.83801C15.0303 5.56777 15 5.28742 15 5C15 2.79086 16.7909 1 19 1C21.2091 1 23 2.79086 23 5ZM21 5C21 6.10457 20.1046 7 19 7C17.8954 7 17 6.10457 17 5C17 3.89543 17.8954 3 19 3C20.1046 3 21 3.89543 21 5ZM7 12C7 13.1046 6.10457 14 5 14C3.89543 14 3 13.1046 3 12C3 10.8954 3.89543 10 5 10C6.10457 10 7 10.8954 7 12Z" fill="#FF5640"/>
<path fill-rule="evenodd" clip-rule="evenodd" d="M19 23C21.2091 23 23 21.2091 23 19C23 16.7909 21.2091 15 19 15C16.7909 15 15 16.7909 15 19C15 21.2091 16.7909 23 19 23ZM19 21C20.1046 21 21 20.1046 21 19C21 17.8954 20.1046 17 19 17C17.8954 17 17 17.8954 17 19C17 20.1046 17.8954 21 19 21Z" fill="#FF5640"/>
</svg>
