<svg width="24" height="24" viewBox="0 0 24 24" fill="none" xmlns="http://www.w3.org/2000/svg">
<path fill-rule="evenodd" clip-rule="evenodd" d="M16.5 3C15.6716 3 15 3.67157 15 4.5C15 5.05228 14.5523 5.5 14 5.5C13.4477 5.5 13 5.05228 13 4.5C13 2.567 14.567 1 16.5 1C18.433 1 20 2.567 20 4.5C20 6.26324 18.6961 7.72194 17 7.96456V10C17 10.5523 16.5523 11 16 11C15.4477 11 15 10.5523 15 10V7C15 6.44772 15.4477 6 16 6H16.5C17.3284 6 18 5.32843 18 4.5C18 3.67157 17.3284 3 16.5 3ZM7.6154 12.0769C7.83826 11.9841 8.0872 11.975 8.31624 12.0513L11.6468 13.1615C12.7535 13.5304 13.5 14.5661 13.5 15.7327C13.5 16.0539 13.4452 16.3592 13.3452 16.6412L19.2495 14.5574C20.5349 14.1037 21.957 14.6782 22.5667 15.8974C23.2739 17.3118 22.6212 19.0286 21.1529 19.6159L12.8713 22.9285C12.6912 23.0005 12.494 23.0186 12.3038 22.9806L5.30382 21.5806L5.00762 21.5214C4.93016 21.5137 4.85236 21.4967 4.77563 21.4699C4.5149 21.3787 4.31595 21.1905 4.20487 20.9599L3.96304 20.4514C3.89581 20.3118 3.77828 20.213 3.64264 20.1659C3.50723 20.1182 3.35371 20.1222 3.21415 20.1894L2.70809 20.4364C2.47753 20.5475 2.20463 20.5707 1.9439 20.4795C1.42261 20.2972 1.14783 19.7269 1.33014 19.2056C1.51245 18.6843 2.0828 18.4095 2.60409 18.5918C2.86482 18.683 3.06382 18.8711 3.1749 19.1017L3.41673 19.6102C3.48396 19.7498 3.6015 19.8486 3.73714 19.8957C3.87255 19.9434 4.02607 19.9394 4.16562 19.8721L4.65882 19.6314C4.85232 19.5327 5.07921 19.4961 5.30874 19.542L12.4045 20.9611L20.4101 17.7589C20.792 17.6062 20.9617 17.1597 20.7778 16.7919C20.6193 16.4748 20.2494 16.3254 19.9151 16.4433L12.8328 18.943C12.6371 19.0121 12.4247 19.0186 12.2252 18.9615L8.72521 17.9615C8.19418 17.8098 7.88668 17.2563 8.03841 16.7253C8.14243 16.3612 8.43528 16.1022 8.78027 16.0243C8.93852 15.9885 9.10774 15.9908 9.27474 16.0385L10.5947 16.4156C11.0484 16.5452 11.5 16.2045 11.5 15.7327C11.5 15.427 11.3044 15.1556 11.0144 15.0589L8.039 14.0671L2.38463 16.4231C1.87483 16.6355 1.28936 16.3944 1.07694 15.8846C0.864523 15.3748 1.1056 14.7893 1.6154 14.5769L7.6154 12.0769ZM17 13C17 13.5523 16.5523 14 16 14C15.4477 14 15 13.5523 15 13C15 12.4477 15.4477 12 16 12C16.5523 12 17 12.4477 17 13Z" fill="#FF5640"/>
</svg>
