<svg width="24" height="24" viewBox="0 0 24 24" fill="none" xmlns="http://www.w3.org/2000/svg">
<path fill-rule="evenodd" clip-rule="evenodd" d="M2.00001 2.03198C1.44772 2.03198 1.00001 2.4797 1.00001 3.03198V8.03198C1.00001 8.58427 1.44772 9.03198 2.00001 9.03198C2.55229 9.03198 3.00001 8.58427 3.00001 8.03198V4.03198H21V18H3.00001V16.032C3.00001 15.7499 2.88324 15.4952 2.6954 15.3134L2.30664 14.9285C2.19711 14.819 2.1426 14.6754 2.14296 14.5318C2.1426 14.3883 2.19711 14.2447 2.30664 14.1352L2.70685 13.739C2.88782 13.558 2.99982 13.3081 2.99982 13.0319C2.99982 12.4796 2.55216 12.032 1.99991 12.032C1.44766 12.032 1 12.4796 1 13.0319C1 13.3081 1.11183 13.558 1.29279 13.739L1.69301 14.1352C1.80254 14.2447 1.85704 14.3883 1.85669 14.5318C1.85704 14.6754 1.80254 14.819 1.69301 14.9285L1.29279 15.3247C1.11183 15.5057 1 15.7556 1 16.0318L1.00001 16.0354V19C1.00001 19.5523 1.44772 20 2.00001 20H22C22.5523 20 23 19.5523 23 19V3.03198C23 2.4797 22.5523 2.03198 22 2.03198H2.00001ZM5 22C5 21.4477 5.44772 21 6 21H18C18.5523 21 19 21.4477 19 22C19 22.5523 18.5523 23 18 23H6C5.44772 23 5 22.5523 5 22ZM7 10.6517C7 9.74085 7.73984 9 8.65552 9C9.57121 9 10.311 9.74085 10.311 10.6517C10.311 11.5625 9.57121 12.3034 8.65552 12.3034C7.73984 12.3034 7 11.5625 7 10.6517ZM8.65552 7C6.638 7 5 8.63355 5 10.6517C5 12.6698 6.638 14.3034 8.65552 14.3034C10.5556 14.3034 12.119 12.8545 12.2946 11H14V13C14 13.5523 14.4477 14 15 14C15.5523 14 16 13.5523 16 13V11H17V13C17 13.5523 17.4477 14 18 14C18.5523 14 19 13.5523 19 13V10C19 9.44772 18.5523 9 18 9H11.9167C11.3129 7.81278 10.0786 7 8.65552 7Z" fill="#FF5640"/>
</svg>
