<svg width="24" height="24" viewBox="0 0 24 24" fill="none" xmlns="http://www.w3.org/2000/svg">
<path d="M7.71407 1.29985C7.68867 1.27395 7.66187 1.24943 7.63379 1.2264C7.5662 1.17089 7.49302 1.12558 7.41633 1.09049C7.28959 1.03239 7.14861 1 7.00007 1L6.9908 1.00004C6.86932 1.00114 6.75302 1.02391 6.64557 1.06465C6.51699 1.11329 6.39641 1.18937 6.29289 1.29289L1.29289 6.29289C0.90237 6.68342 0.90237 7.31658 1.29289 7.70711C1.68342 8.09763 2.31658 8.09763 2.70711 7.70711L6.00007 4.41415V18.9882L6 18.9999C6 19.2761 6.11183 19.5261 6.29279 19.707L6.69301 20.1032C6.80254 20.2127 6.85704 20.3563 6.85669 20.4999C6.85704 20.6434 6.80254 20.787 6.69301 20.8966L6.29279 21.2927C6.11183 21.4737 6 21.7236 6 21.9998C6 22.5521 6.44766 22.9997 6.99991 22.9997C7.55216 22.9997 7.99982 22.5521 7.99982 21.9998C7.99982 21.7236 7.88782 21.4737 7.70685 21.2927L7.30664 20.8966C7.19711 20.787 7.1426 20.6434 7.14296 20.4999C7.1426 20.3563 7.19711 20.2127 7.30664 20.1032L7.68603 19.7276C7.87938 19.5453 8.00007 19.2867 8.00007 19V4.41428L11.2929 7.70711C11.6834 8.09763 12.3166 8.09763 12.7071 7.70711C13.0976 7.31658 13.0976 6.68342 12.7071 6.29289L7.71407 1.29985Z" fill="#FF5640"/>
<path fill-rule="evenodd" clip-rule="evenodd" d="M19.432 1.63755C19.2826 1.25318 18.9124 1 18.5 1C18.0876 1 17.7175 1.25318 17.568 1.63755L14.068 10.6376C13.8678 11.1523 14.1228 11.7318 14.6376 11.932C15.1523 12.1322 15.7319 11.8772 15.932 11.3624L16.4621 9.9993C16.4747 9.99976 16.4873 10 16.5 10H20.5C20.5127 10 20.5253 9.99976 20.5379 9.9993L21.068 11.3624C21.2682 11.8772 21.8477 12.1322 22.3625 11.932C22.8772 11.7318 23.1322 11.1523 22.932 10.6376L19.432 1.63755ZM19.7604 8L18.5 4.75903L17.2396 8H19.7604Z" fill="#FF5640"/>
<path d="M14 14C14 13.4477 14.4477 13 15 13H22C22.3924 13 22.7485 13.2295 22.9106 13.5868C23.0728 13.9441 23.011 14.3632 22.7526 14.6585L17.2038 21H22C22.5523 21 23 21.4477 23 22C23 22.5523 22.5523 23 22 23H15C14.6076 23 14.2515 22.7705 14.0894 22.4132C13.9272 22.0559 13.9891 21.6368 14.2474 21.3415L19.7962 15H15C14.4477 15 14 14.5523 14 14Z" fill="#FF5640"/>
</svg>
