<svg width="24" height="24" viewBox="0 0 24 24" fill="none" xmlns="http://www.w3.org/2000/svg">
<path d="M6.29322 2.70703C6.11225 2.52606 6.00024 2.27613 6.00024 1.99991C6.00024 1.44766 6.4479 1 7.00016 1C7.55241 1 8.00007 1.44766 8.00007 1.99991C8.00007 2.27613 7.88824 2.52606 7.70727 2.70703L7.30706 3.10318C7.19753 3.21272 7.14303 3.35629 7.14338 3.49987C7.14303 3.64344 7.19753 3.78702 7.30706 3.89655L7.70727 4.29271C7.88824 4.47367 8.00007 4.72361 8.00007 4.99982L8 5.01142V19.5855L11.2929 16.2926C11.6834 15.9021 12.3166 15.9021 12.7071 16.2926C13.0976 16.6832 13.0976 17.3163 12.7071 17.7069L7.70711 22.7069C7.60436 22.8096 7.48481 22.8853 7.35731 22.934C7.26472 22.9694 7.16553 22.9915 7.06209 22.9978C7.02074 23.0004 6.97926 23.0004 6.93791 22.9978C6.83447 22.9915 6.73527 22.9694 6.64269 22.934C6.51519 22.8853 6.39564 22.8096 6.29289 22.7069L1.29289 17.7069C0.90237 17.3163 0.90237 16.6832 1.29289 16.2926C1.68342 15.9021 2.31658 15.9021 2.70711 16.2926L6 19.5855V4.99973C6 4.71299 6.12069 4.45443 6.31404 4.27209L6.69343 3.89655C6.80296 3.78702 6.85746 3.64344 6.85711 3.49987C6.85746 3.35629 6.80296 3.21272 6.69343 3.10318L6.29322 2.70703Z" fill="#FF5640"/>
<path fill-rule="evenodd" clip-rule="evenodd" d="M19.432 1.63755C19.2826 1.25318 18.9124 1 18.5 1C18.0876 1 17.7175 1.25318 17.568 1.63755L14.068 10.6376C13.8678 11.1523 14.1228 11.7318 14.6376 11.932C15.1523 12.1322 15.7319 11.8772 15.932 11.3624L16.4621 9.9993C16.4747 9.99976 16.4873 10 16.5 10H20.5C20.5127 10 20.5253 9.99976 20.5379 9.9993L21.068 11.3624C21.2682 11.8772 21.8477 12.1322 22.3625 11.932C22.8772 11.7318 23.1322 11.1523 22.932 10.6376L19.432 1.63755ZM19.7604 8L18.5 4.75903L17.2396 8H19.7604Z" fill="#FF5640"/>
<path d="M14 14C14 13.4477 14.4477 13 15 13H22C22.3924 13 22.7485 13.2295 22.9106 13.5868C23.0728 13.9441 23.011 14.3632 22.7526 14.6585L17.2038 21H22C22.5523 21 23 21.4477 23 22C23 22.5523 22.5523 23 22 23H15C14.6076 23 14.2515 22.7705 14.0894 22.4132C13.9272 22.0559 13.9891 21.6368 14.2474 21.3415L19.7962 15H15C14.4477 15 14 14.5523 14 14Z" fill="#FF5640"/>
</svg>
