<svg width="24" height="24" viewBox="0 0 24 24" fill="none" xmlns="http://www.w3.org/2000/svg">
<path d="M11.2932 2.70703C11.1122 2.52606 11.0002 2.27613 11.0002 1.99991C11.0002 1.44766 11.4479 1 12.0002 1C12.5524 1 13.0001 1.44766 13.0001 1.99991C13.0001 2.27613 12.8882 2.52606 12.7073 2.70703L12.3071 3.10318C12.1975 3.21272 12.143 3.35629 12.1434 3.49987C12.143 3.64344 12.1975 3.78702 12.3071 3.89655L12.7073 4.29271C12.8882 4.47367 13.0001 4.72361 13.0001 4.99982C13.0001 5.00372 13 5.00761 13 5.0115V22C13 22.5523 12.5523 23 12 23C11.4477 23 11 22.5523 11 22V5.00001C11 4.71692 11.1176 4.46131 11.3067 4.27938L11.6934 3.89655C11.803 3.78702 11.8575 3.64344 11.8571 3.49987C11.8575 3.35629 11.803 3.21272 11.6934 3.10318L11.2932 2.70703Z" fill="#FF5640"/>
<path d="M22 11C22 10.4477 21.5523 10 21 10C20.4477 10 20 10.4477 20 11V13C20 13.5523 20.4477 14 21 14C21.5523 14 22 13.5523 22 13V11Z" fill="#FF5640"/>
<path d="M15 4.00002C15.5523 4.00002 16 4.44773 16 5.00002V19C16 19.5523 15.5523 20 15 20C14.4477 20 14 19.5523 14 19V5.00002C14 4.44773 14.4477 4.00002 15 4.00002Z" fill="#FF5640"/>
<path d="M19 8.00001C19 7.44772 18.5523 7.00002 18 7.00002C17.4477 7.00002 17 7.44772 17 8.00001V16C17 16.5523 17.4477 17 18 17C18.5523 17 19 16.5523 19 16V8.00001Z" fill="#FF5640"/>
<path d="M3 10C3.55229 10 4 10.4477 4 11V13C4 13.5523 3.55228 14 3 14C2.44772 14 2 13.5523 2 13V11C2 10.4477 2.44772 10 3 10Z" fill="#FF5640"/>
<path d="M7 8.00001C7 7.44772 6.55229 7.00002 6 7.00002C5.44772 7.00002 5 7.44772 5 8.00001V16C5 16.5523 5.44772 17 6 17C6.55228 17 7 16.5523 7 16V8.00001Z" fill="#FF5640"/>
<path d="M9 4.00002C9.55229 4.00002 10 4.44773 10 5.00002V19C10 19.5523 9.55228 20 9 20C8.44772 20 8 19.5523 8 19V5.00002C8 4.44773 8.44772 4.00002 9 4.00002Z" fill="#FF5640"/>
</svg>
