<svg width="24" height="24" viewBox="0 0 24 24" fill="none" xmlns="http://www.w3.org/2000/svg">
<path d="M12.8642 2.4967C12.6851 2.18916 12.356 2 12.0001 2C11.6442 2 11.3151 2.18916 11.136 2.4967L8.12494 7.66632L2.27788 8.93248C1.93004 9.00781 1.64844 9.26233 1.53846 9.60081C1.42848 9.9393 1.50669 10.3107 1.74383 10.5761L3.25439 12.2667C3.62238 12.6785 4.25454 12.7141 4.66638 12.3461C5.07821 11.9781 5.11376 11.3459 4.74578 10.9341L4.37916 10.5238L8.97891 9.52775C9.2533 9.46834 9.49008 9.29631 9.63138 9.05371L12.0001 4.98689L14.3688 9.05371C14.5101 9.29631 14.7469 9.46834 15.0213 9.52775L19.621 10.5238L16.4852 14.0333C16.2981 14.2427 16.2077 14.521 16.236 14.8003L16.7101 19.4827L12.4033 17.5849C12.1464 17.4717 11.8537 17.4717 11.5968 17.5849L7.2901 19.4827L7.42759 18.1248C7.434 18.0968 7.43927 18.0684 7.44333 18.0394C7.48177 17.7659 7.40565 17.5028 7.25162 17.2984L6.91044 16.8504C6.81722 16.7267 6.78323 16.5769 6.80356 16.4348C6.82319 16.2926 6.89715 16.158 7.02086 16.0648L7.47231 15.7282C7.6767 15.5741 7.8224 15.3422 7.86084 15.0687C7.9377 14.5218 7.5567 14.0162 7.00982 13.9394C6.46294 13.8625 5.95734 14.2435 5.88048 14.7904C5.84204 15.0639 5.91799 15.327 6.07201 15.5314L6.41319 15.9794C6.50642 16.1031 6.54041 16.2528 6.52008 16.395C6.50044 16.5372 6.42649 16.6718 6.30278 16.765L5.95947 17.021C5.68374 17.1747 5.48505 17.4562 5.45084 17.7941L5.12732 20.9894C5.09147 21.3435 5.24652 21.69 5.53445 21.8992C5.82238 22.1084 6.1998 22.1488 6.52548 22.0053L12.0001 19.5928L17.4747 22.0053C17.8004 22.1488 18.1778 22.1084 18.4657 21.8992C18.7537 21.69 18.9087 21.3435 18.8729 20.9894L18.2702 15.0373L22.2563 10.5761C22.4935 10.3107 22.5717 9.9393 22.4617 9.60081C22.3517 9.26233 22.0701 9.00781 21.7223 8.93248L15.8752 7.66632L12.8642 2.4967Z" fill="#FF5640"/>
</svg>
