<svg width="24" height="24" viewBox="0 0 24 24" fill="none" xmlns="http://www.w3.org/2000/svg">
<path fill-rule="evenodd" clip-rule="evenodd" d="M19 6.5C19 7.91824 18.4632 9.21111 17.5817 10.1865C17.835 10.3679 18 10.6647 18 11V13.5858L21.2929 10.2929C21.5789 10.0069 22.009 9.92134 22.3827 10.0761C22.7564 10.2309 23 10.5955 23 11V22C23 22.4045 22.7564 22.7691 22.3827 22.9239C22.009 23.0787 21.5789 22.9931 21.2929 22.7071L18 19.4142V22C18 22.5523 17.5523 23 17 23H5C4.82845 23 4.66699 22.9568 4.5259 22.8807C4.43981 22.8343 4.3613 22.7756 4.29271 22.707L3.89655 22.3068C3.78702 22.1973 3.64344 22.1428 3.49987 22.1431C3.35629 22.1428 3.21272 22.1973 3.10318 22.3068L2.70703 22.707C2.52606 22.888 2.27613 22.9998 1.99991 22.9998C1.44766 22.9998 1 22.5522 1 21.9999C1 21.4477 1.44766 21 1.99991 21C2.27613 21 2.52606 21.112 2.70703 21.293L3.10318 21.6932C3.21272 21.8027 3.35629 21.8572 3.49987 21.8569C3.64344 21.8572 3.78702 21.8027 3.89655 21.6932L4.29271 21.293C4.47367 21.112 4.72361 21 4.99982 21C4.99977 21 4.99988 21 4.99982 21H16V12H3V17C3 17.5523 2.55228 18 2 18C1.44772 18 1 17.5523 1 17V11C1 10.4477 1.44772 10 2 10H2.53513C2.19479 9.41165 2 8.72857 2 8C2 5.79086 3.79086 4 6 4C6.8533 4 7.64419 4.26719 8.29358 4.72247C9.03263 2.55718 11.0845 1 13.5 1C16.5376 1 19 3.46243 19 6.5ZM13.5 3C11.567 3 10 4.567 10 6.5C10 8.433 11.567 10 13.5 10C15.433 10 17 8.433 17 6.5C17 4.567 15.433 3 13.5 3ZM4 8C4 6.89543 4.89543 6 6 6C7.10457 6 8 6.89543 8 8C8 9.10457 7.10457 10 6 10C4.89543 10 4 9.10457 4 8ZM21 19.5858L18 16.5858V16.4142L21 13.4142V19.5858Z" fill="#FF5640"/>
</svg>
