<svg width="24" height="24" viewBox="0 0 24 24" fill="none" xmlns="http://www.w3.org/2000/svg">
<path fill-rule="evenodd" clip-rule="evenodd" d="M22 3C22 4.10457 21.1046 5 20 5C19.2597 5 18.6134 4.5978 18.2676 4H17V6C17.5523 6 18 6.44772 18 7V12H19.2676C19.6134 11.4022 20.2597 11 21 11C22.1046 11 23 11.8954 23 13C23 14.1046 22.1046 15 21 15C20.2597 15 19.6134 14.5978 19.2676 14H18V17C18 17.5523 17.5523 18 17 18H16V20H18.2676C18.6134 19.4022 19.2597 19 20 19C21.1046 19 22 19.8954 22 21C22 22.1046 21.1046 23 20 23C19.2597 23 18.6134 22.5978 18.2676 22H15C14.4477 22 14 21.5523 14 21V18H11V21C11 21.5523 10.5523 22 10 22H7.73244C7.38663 22.5978 6.74028 23 6 23C4.89543 23 4 22.1046 4 21C4 19.8954 4.89543 19 6 19C6.74028 19 7.38663 19.4022 7.73244 20H9V18H7C6.44772 18 6 17.5523 6 17V11H4V13.2676C4.5978 13.6134 5 14.2597 5 15C5 16.1046 4.10457 17 3 17C1.89543 17 1 16.1046 1 15C1 14.2597 1.4022 13.6134 2 13.2676V10C2 9.44771 2.44772 9 3 9H6V7C6 6.44772 6.44772 6 7 6H9V4H5C4.99994 4 5.00006 4 5 4C4.72378 4 4.47367 3.888 4.29271 3.70703L3.89655 3.30682C3.78702 3.19728 3.64344 3.14278 3.49987 3.14313C3.35629 3.14278 3.21272 3.19728 3.10318 3.30682L2.70703 3.70703C2.52606 3.888 2.27613 3.99982 1.99991 3.99982C1.44766 3.99982 1 3.55216 1 2.99991C1 2.44766 1.44766 2 1.99991 2C2.27613 2 2.52606 2.112 2.70703 2.29297L3.10318 2.69318C3.21272 2.80272 3.35629 2.85722 3.49987 2.85687C3.64344 2.85722 3.78702 2.80272 3.89655 2.69318L4.29271 2.29297C4.47367 2.112 4.72361 2 4.99982 2C4.99976 2 4.99988 2 4.99982 2H10C10.5523 2 11 2.44772 11 3V6H15V3C15 2.44772 15.4477 2 16 2H18.2676C18.6134 1.4022 19.2597 1 20 1C21.1046 1 22 1.89543 22 3ZM8 8V16H16V8H8Z" fill="#FF5640"/>
</svg>
