<svg width="24" height="24" viewBox="0 0 24 24" fill="none" xmlns="http://www.w3.org/2000/svg">
<path d="M3.84567 8.18563C5.28247 5.11992 8.39469 3 12 3C15.6053 3 18.7176 5.11992 20.1544 8.18563C20.3887 8.68572 20.9841 8.90112 21.4842 8.66674C21.9843 8.43237 22.1997 7.83697 21.9653 7.33688C20.2116 3.59499 16.4099 1 12 1C7.59014 1 3.7884 3.59499 2.03469 7.33688C1.80032 7.83697 2.01572 8.43237 2.51581 8.66674C3.01589 8.90112 3.61129 8.68572 3.84567 8.18563Z" fill="#FF5640"/>
<path d="M12 6C9.78038 6 7.84099 7.20471 6.80205 9.00073C6.52551 9.47879 5.91378 9.64215 5.43572 9.36561C4.95766 9.08906 4.7943 8.47733 5.07084 7.99927C6.45257 5.61068 9.03758 4 12 4C14.9624 4 17.5474 5.61068 18.9291 7.99927C19.2056 8.47733 19.0423 9.08906 18.5642 9.36561C18.0862 9.64215 17.4744 9.47879 17.1979 9.00073C16.1589 7.20471 14.2196 6 12 6Z" fill="#FF5640"/>
<path fill-rule="evenodd" clip-rule="evenodd" d="M12.7073 7.29268C12.6176 7.203 12.5126 7.13236 12.3988 7.08293C12.2694 7.02649 12.1338 6.99965 12 6.99976C11.8662 6.99965 11.7306 7.02649 11.6011 7.08293C11.4873 7.13236 11.3823 7.203 11.2927 7.29268C11.2134 7.3719 11.149 7.46311 11.101 7.56178L5.1138 19.5363C5.10785 19.5476 5.10211 19.5591 5.09659 19.5707L4.10555 21.5528C3.85856 22.0467 4.05878 22.6474 4.55276 22.8944C5.04674 23.1414 5.64741 22.9412 5.8944 22.4472L6.618 21H8C8.55228 21 9 20.5523 9 20C9 19.4477 8.55228 19 8 19H7.618L9.118 16H14.882L16.382 19H15C14.731 19 14.4868 19.1062 14.307 19.279L14.2927 19.293L13.8966 19.6932C13.787 19.8027 13.6434 19.8572 13.4999 19.8569C13.3563 19.8572 13.2127 19.8027 13.1032 19.6932L12.707 19.293C12.5261 19.112 12.2761 19 11.9999 19C11.4477 19 11 19.4477 11 19.9999C11 20.5522 11.4477 20.9998 11.9999 20.9998C12.2761 20.9998 12.5261 20.888 12.707 20.707L13.1032 20.3068C13.2127 20.1973 13.3563 20.1428 13.4999 20.1431C13.6434 20.1428 13.787 20.1973 13.8966 20.3068L14.2927 20.707L14.3035 20.7176C14.4836 20.8924 14.7292 21 15 21H17.382L18.1055 22.4472C18.3525 22.9412 18.9532 23.1414 19.4472 22.8944C19.9412 22.6474 20.1414 22.0467 19.8944 21.5528L18.9043 19.5726C18.8982 19.5597 18.8918 19.5469 18.8852 19.5343L12.8989 7.56177C12.8509 7.4631 12.7865 7.3719 12.7073 7.29268ZM13.882 14L12 10.236L10.118 14H13.882Z" fill="#FF5640"/>
</svg>
