<svg width="24" height="24" viewBox="0 0 24 24" fill="none" xmlns="http://www.w3.org/2000/svg">
<path fill-rule="evenodd" clip-rule="evenodd" d="M1 5C1 4.44772 1.44772 4 2 4H16C16.5523 4 17 4.44772 17 5V9H19C19.1974 9 19.3904 9.05844 19.5547 9.16795L22.5547 11.1679C22.8329 11.3534 23 11.6656 23 12V17C23 17.5523 22.5523 18 22 18H19.8293C19.4175 19.1652 18.3062 20 17 20C15.6938 20 14.5825 19.1652 14.1707 18H9.82929C9.41746 19.1652 8.30622 20 7 20C5.69378 20 4.58254 19.1652 4.17071 18H2C1.44772 18 1 17.5523 1 17V15L1.00001 14.9967C1.00086 14.7217 1.11269 14.473 1.29297 14.2927L1.69318 13.8966C1.80272 13.787 1.85722 13.6435 1.85687 13.4999C1.85722 13.3563 1.80272 13.2127 1.69318 13.1032L1.29297 12.707C1.112 12.5261 1 12.2761 1 11.9999C1 11.4477 1.44766 11 1.99991 11C2.55217 11 2.99982 11.4477 2.99982 11.9999C2.99982 12.2761 2.888 12.5261 2.70703 12.7071L2.30682 13.1032C2.19728 13.2127 2.14278 13.3563 2.14313 13.4999C2.14278 13.6435 2.19728 13.787 2.30682 13.8966L2.70703 14.2927C2.76855 14.3543 2.82209 14.4237 2.86595 14.4995C2.9512 14.6467 3 14.8177 3 15V16H4.17071C4.58254 14.8348 5.69378 14 7 14C8.30622 14 9.41746 14.8348 9.82929 16H14.1707C14.3403 15.5202 14.6285 15.0964 15 14.7639V6H3V7C3 7.55228 2.55228 8 2 8C1.44772 8 1 7.55228 1 7V5ZM17 11V14C18.3062 14 19.4175 14.8348 19.8293 16H21V12.5352L18.6972 11H17ZM6 17C6 17.5523 6.44772 18 7 18C7.55228 18 8 17.5523 8 17C8 16.4477 7.55228 16 7 16C6.44772 16 6 16.4477 6 17ZM18 17C18 16.4477 17.5523 16 17 16C16.4477 16 16 16.4477 16 17C16 17.5523 16.4477 18 17 18C17.5523 18 18 17.5523 18 17Z" fill="#FF5640"/>
</svg>
