<svg width="24" height="24" viewBox="0 0 24 24" fill="none" xmlns="http://www.w3.org/2000/svg">
<path d="M7 2C7 1.44772 7.44772 1 8 1H16C16.5523 1 17 1.44772 17 2C17 2.55228 16.5523 3 16 3H8C7.44772 3 7 2.55228 7 2Z" fill="#FF5640"/>
<path d="M2 5C2 4.44772 2.44772 4 3 4H21C21.5523 4 22 4.44772 22 5C22 5.55228 21.5523 6 21 6H19V22C19 22.5523 18.5523 23 18 23H9C8.82845 23 8.66699 22.9568 8.5259 22.8807C8.43981 22.8343 8.3613 22.7756 8.29271 22.707L7.89655 22.3068C7.78702 22.1973 7.64344 22.1428 7.49987 22.1431C7.35629 22.1428 7.21272 22.1973 7.10318 22.3068L6.70703 22.707C6.52606 22.888 6.27613 22.9998 5.99991 22.9998C5.44766 22.9998 5 22.5522 5 21.9999C5 21.4477 5.44766 21 5.99991 21C6.27613 21 6.52606 21.112 6.70703 21.293L7.10318 21.6932C7.21272 21.8027 7.35629 21.8572 7.49987 21.8569C7.64344 21.8572 7.78702 21.8027 7.89655 21.6932L8.29271 21.293C8.47367 21.112 8.72361 21 8.99982 21C8.99977 21 8.99988 21 8.99982 21H17V6H7V17C7 17.5523 6.55228 18 6 18C5.44772 18 5 17.5523 5 17V6H3C2.44772 6 2 5.55228 2 5Z" fill="#FF5640"/>
<path d="M11 9C11 8.44772 10.5523 8 10 8C9.44772 8 9 8.44772 9 9V17C9 17.5523 9.44772 18 10 18C10.5523 18 11 17.5523 11 17V9Z" fill="#FF5640"/>
<path d="M14 8C14.5523 8 15 8.44772 15 9V17C15 17.5523 14.5523 18 14 18C13.4477 18 13 17.5523 13 17V9C13 8.44772 13.4477 8 14 8Z" fill="#FF5640"/>
</svg>
