<svg width="24" height="24" viewBox="0 0 24 24" fill="none" xmlns="http://www.w3.org/2000/svg">
<path d="M21.4855 2.51471C19.9234 0.952616 17.3907 0.952616 15.8286 2.51471L12.6243 5.71906L5.31254 5.05435C4.76253 5.00435 4.27612 5.40969 4.22611 5.95971C4.17611 6.50973 4.58145 6.99614 5.13147 7.04614L12.9096 7.75325C13.2052 7.78012 13.4974 7.67431 13.7073 7.46446L17.2428 3.92893C18.0239 3.14788 19.2902 3.14788 20.0712 3.92893C20.8523 4.70997 20.8523 5.9763 20.0712 6.75735L16.5357 10.2929C16.3259 10.5027 16.2201 10.795 16.2469 11.0905L16.9116 18.4023L15.9241 19.3898L15.4103 13.7379C15.3775 13.3769 15.1519 13.0619 14.8206 12.9146C14.4894 12.7674 14.1044 12.8109 13.8144 13.0284L8.15754 17.2711C7.96071 17.4187 7.82521 17.6337 7.77696 17.8749L7.4363 19.5782L4.42193 16.5639L6.12523 16.2232C6.36649 16.175 6.58149 16.0395 6.72911 15.8426L10.9718 10.1858C11.1893 9.89578 11.2328 9.51079 11.0855 9.17956C10.9383 8.84832 10.6233 8.62271 10.2623 8.58989L5.59072 8.1652C5.55691 8.16213 5.52334 8.16077 5.4901 8.16107L5.48451 8.16056C5.20936 8.13636 4.95057 8.22603 4.75444 8.39044L4.32474 8.7544C4.20603 8.85392 4.05823 8.89563 3.91524 8.8827C3.77219 8.87047 3.63394 8.8036 3.53443 8.68489L3.17486 8.2515C3.01045 8.05537 2.77129 7.9219 2.49614 7.8977C1.94601 7.84931 1.46085 8.25602 1.41245 8.80615C1.36406 9.35628 1.77078 9.84144 2.3209 9.88983C2.59606 9.91403 2.85483 9.82454 3.05096 9.66012L3.48066 9.29616C3.59937 9.19665 3.74717 9.15493 3.89016 9.16787C4.03321 9.1801 4.17146 9.24697 4.27097 9.36568L4.63054 9.79906C4.79495 9.99519 5.03413 10.1285 5.30928 10.1527C5.34151 10.1555 5.37352 10.1568 5.40524 10.1566L5.40965 10.157L8.29652 10.4194L5.35835 14.337L2.19746 14.9692C1.83583 15.0415 1.54336 15.307 1.43649 15.66C1.32962 16.0129 1.4257 16.3961 1.68647 16.6568L7.34333 22.3137C7.6041 22.5745 7.98725 22.6706 8.34022 22.5637C8.69319 22.4568 8.95869 22.1643 9.03102 21.8027L9.66319 18.6418L13.5807 15.7037L14.1256 21.6971C14.1607 22.0836 14.4162 22.4148 14.7811 22.5469C15.1459 22.679 15.5542 22.5881 15.8286 22.3137L18.657 19.4853C18.8669 19.2754 18.9727 18.9832 18.9458 18.6876L18.2811 11.3759L21.4855 8.17157C23.0476 6.60947 23.0476 4.07681 21.4855 2.51471Z" fill="#FF5640"/>
</svg>
