<svg width="24" height="24" viewBox="0 0 24 24" fill="none" xmlns="http://www.w3.org/2000/svg">
<path d="M3 2C3 1.44772 2.55228 1 2 1C1.44772 1 1 1.44772 1 2V22C1 22.5523 1.44772 23 2 23H22C22.5523 23 23 22.5523 23 22C23 21.4477 22.5523 21 22 21H3V2Z" fill="#FF5640"/>
<path d="M17 7C16.4477 7 16 7.44772 16 8C16 8.55228 16.4477 9 17 9H19.5858L16 12.5858L13.7071 10.2929C13.3166 9.90237 12.6834 9.90237 12.2929 10.2929L8.42182 14.164C8.35764 14.2282 8.30401 14.2989 8.26092 14.374C8.16919 14.5299 8.12336 14.7054 8.12336 14.8808L8.12623 15.4439C8.12623 15.5988 8.06325 15.7389 7.96148 15.8401C7.8602 15.9419 7.72014 16.0049 7.56524 16.0049L7.00212 16.002C6.74619 16.002 6.49026 16.0996 6.29495 16.2949C5.90445 16.6854 5.90445 17.3185 6.29495 17.709C6.68545 18.0995 7.31854 18.0995 7.70904 17.709C7.90435 17.5137 8.00201 17.2579 8.00201 17.0019L7.99914 16.4388C7.99914 16.2839 8.06213 16.1438 8.1639 16.0426C8.26517 15.9408 8.40523 15.8778 8.56014 15.8778L9.12325 15.8807C9.37918 15.8807 9.63498 15.783 9.8303 15.5877C9.84781 15.5702 9.86455 15.5522 9.88049 15.5337L13 12.4142L15.2929 14.7071C15.4804 14.8946 15.7348 15 16 15C16.2652 15 16.5196 14.8946 16.7071 14.7071L21 10.4142V13C21 13.5523 21.4477 14 22 14C22.5523 14 23 13.5523 23 13V8C23 7.73281 22.8952 7.4901 22.7245 7.31072C22.7138 7.29947 22.7028 7.28847 22.6916 7.27773C22.6002 7.1901 22.4962 7.1232 22.3856 7.07705C22.2669 7.02742 22.1363 7 21.9996 7H17Z" fill="#FF5640"/>
</svg>
