<svg width="24" height="24" viewBox="0 0 24 24" fill="none" xmlns="http://www.w3.org/2000/svg">
<path d="M3 2C3 1.44772 2.55228 1 2 1C1.44772 1 1 1.44772 1 2V22C1 22.5523 1.44772 23 2 23H22C22.5523 23 23 22.5523 23 22C23 21.4477 22.5523 21 22 21H3V2Z" fill="#FF5640"/>
<path d="M9.8353 9.41728C9.63999 9.22196 9.38406 9.12443 9.12813 9.12443L8.56502 9.1273C8.41011 9.1273 8.27005 9.06432 8.16878 8.96254C8.06701 8.86127 8.00402 8.72121 8.00402 8.56631L8.00689 8.00319C8.00689 7.74726 7.90936 7.49133 7.71405 7.29602C7.32354 6.90552 6.69046 6.90552 6.29996 7.29602C5.90945 7.68652 5.90945 8.31961 6.29996 8.71011C6.49527 8.90542 6.75107 9.00308 7.007 9.00308L7.57012 9.00021C7.72502 9.00021 7.86508 9.06319 7.96636 9.16497C8.06813 9.26624 8.13111 9.4063 8.13111 9.56121L8.12824 10.1243C8.12824 10.3801 8.22582 10.6358 8.42097 10.8311C8.43717 10.8499 8.45418 10.8682 8.47201 10.8861L12.293 14.7071C12.4807 14.8948 12.7352 15.0001 13.0006 15C13.266 14.9999 13.5205 14.8942 13.7079 14.7064L15.9949 12.4149L19.58 16H16.9942C16.4419 16 15.9942 16.4477 15.9942 17C15.9942 17.5523 16.4419 18 16.9942 18H21.9942C22.1255 18 22.2509 17.9747 22.3657 17.9287C22.4879 17.8799 22.6024 17.806 22.7013 17.7071C22.798 17.6105 22.8707 17.499 22.9195 17.38C22.9677 17.2628 22.9942 17.1345 22.9942 17V12C22.9942 11.4477 22.5465 11 21.9942 11C21.4419 11 20.9942 11.4477 20.9942 12V14.5858L16.7013 10.2929C16.5137 10.1052 16.2591 9.99987 15.9937 10C15.7284 10.0001 15.4739 10.1057 15.2864 10.2936L12.9994 12.5851L9.88478 9.47042C9.86905 9.45226 9.85256 9.43453 9.8353 9.41728Z" fill="#FF5640"/>
</svg>
