<svg width="24" height="24" viewBox="0 0 24 24" fill="none" xmlns="http://www.w3.org/2000/svg">
<path d="M11.9995 1C12.3781 0.999826 12.7244 1.21348 12.894 1.55196L21.5726 18.8694C21.7286 19.1807 21.7069 19.5346 21.5458 19.8156L21.4261 20.1705C21.3267 20.4651 21.4821 20.7779 21.7768 20.8766L22.3663 21.0742C22.5895 21.1639 22.7812 21.3249 22.8966 21.5573C23.1408 22.0489 22.9376 22.6513 22.445 22.896C21.9525 23.1407 21.3496 22.9387 21.1054 22.4471C20.99 22.2147 20.9774 21.9647 21.0408 21.7326L21.2395 21.1436C21.3388 20.8491 21.1834 20.5362 20.8887 20.4375L20.455 20.2921C20.3445 20.2667 20.2387 20.2227 20.1424 20.1617C19.9872 20.0676 19.8563 19.9326 19.769 19.7568C19.7481 19.7149 19.7306 19.6722 19.7162 19.6289L12.001 4.23401L7.61801 13H13C13.5523 13 14 13.4477 14 14C14 14.5523 13.5523 15 13 15H6.61801L2.8944 22.4472C2.64741 22.9412 2.04674 23.1414 1.55276 22.8944C1.05878 22.6474 0.858558 22.0468 1.10555 21.5528L5.09635 13.5712C5.10203 13.5592 5.10793 13.5474 5.11406 13.5358L11.1055 1.55279C11.2749 1.21415 11.6209 1.00017 11.9995 1Z" fill="#FF5640"/>
</svg>
