<svg width="24" height="24" viewBox="0 0 24 24" fill="none" xmlns="http://www.w3.org/2000/svg">
<path d="M2.91887 12.3946C2.70108 12.9018 2.1135 13.1366 1.60609 12.9191C1.09846 12.7016 0.863311 12.1137 1.08087 11.6061C1.08087 11.6061 1.08255 11.607 1.1997 11.6572C1.31593 11.7069 1.54573 11.8053 2.00001 12L1.08087 11.6061L1.08166 11.6042L1.08273 11.6018L1.08572 11.5949L1.09511 11.5736C1.10288 11.5561 1.11369 11.5321 1.12758 11.5021C1.15535 11.4419 1.19545 11.3574 1.24816 11.252C1.35351 11.0413 1.50966 10.7462 1.71884 10.3948C2.1361 9.69378 2.77058 8.75824 3.64222 7.81955C5.38491 5.9428 8.13187 4 12 4C15.8682 4 18.6151 5.9428 20.3578 7.81955C21.2294 8.75824 21.8639 9.69378 22.2812 10.3948C22.4904 10.7462 22.6465 11.0413 22.7519 11.252C22.8046 11.3574 22.8447 11.4419 22.8724 11.5021C22.8863 11.5321 22.8971 11.5561 22.9049 11.5736L22.9143 11.5949L22.9173 11.6018L22.9188 11.6052L22 12C22.9615 12.2747 22.9612 12.2758 22.9612 12.2758L22.9609 12.277L22.96 12.28L22.9577 12.2878L22.9508 12.3111C22.945 12.3299 22.9372 12.3552 22.927 12.3867C22.9066 12.4496 22.877 12.5371 22.8371 12.6456C22.7574 12.8625 22.6363 13.1646 22.4654 13.5237C22.1243 14.2398 21.5793 15.194 20.7593 16.1508C19.1015 18.0849 16.338 20 12 20C9.77755 20 7.95376 19.4964 6.47429 18.7289C6.44886 18.7157 6.42423 18.7015 6.40043 18.6865C6.37318 18.6704 6.34646 18.6528 6.32034 18.6338C6.09705 18.4712 5.96082 18.2337 5.92105 17.9809L5.83638 17.4242C5.81231 17.2711 5.72832 17.1426 5.61205 17.0583C5.49619 16.9735 5.34804 16.9331 5.19502 16.9572L4.63919 17.0475C4.38637 17.0873 4.1185 17.0305 3.89521 16.868C3.44877 16.5429 3.35038 15.9175 3.67546 15.471C4.00053 15.0246 4.62593 14.9262 5.07237 15.2513C5.29566 15.4139 5.43178 15.6516 5.47155 15.9044L5.55622 16.4611C5.5803 16.6141 5.66428 16.7427 5.78055 16.8269C5.89641 16.9117 6.04456 16.9522 6.19758 16.9281L6.75341 16.8378C6.97903 16.8023 7.21672 16.8435 7.42395 16.9683C8.60876 17.5774 10.107 18 12 18C15.662 18 17.8985 16.4151 19.2408 14.8492C19.9207 14.056 20.3757 13.2602 20.6597 12.6638C20.7737 12.4244 20.8592 12.2191 20.92 12.0615C20.8349 11.8957 20.7161 11.6757 20.5626 11.4177C20.1986 10.8062 19.6456 9.99176 18.8922 9.18045C17.3849 7.55719 15.1319 6 12 6C8.86816 6 6.61511 7.55719 5.10781 9.18045C4.35445 9.99176 3.80143 10.8062 3.43743 11.4177C3.25599 11.7225 3.12308 11.9743 3.03702 12.1464C2.99402 12.2324 2.96284 12.2983 2.94325 12.3407C2.93345 12.3619 2.92656 12.3772 2.92256 12.3863L2.91887 12.3946Z" fill="#FF5640"/>
<path d="M22 12L22.9615 12.2747C23.0247 12.0536 23.0094 11.8166 22.9188 11.6052C22.9188 11.6052 22.9192 11.6061 22 12Z" fill="#FF5640"/>
<path fill-rule="evenodd" clip-rule="evenodd" d="M12 8C9.79086 8 8 9.79086 8 12C8 14.2091 9.79086 16 12 16C14.2091 16 16 14.2091 16 12C16 9.79086 14.2091 8 12 8ZM10 12C10 10.8954 10.8954 10 12 10C13.1046 10 14 10.8954 14 12C14 13.1046 13.1046 14 12 14C10.8954 14 10 13.1046 10 12Z" fill="#FF5640"/>
</svg>
