<svg width="24" height="24" viewBox="0 0 24 24" fill="none" xmlns="http://www.w3.org/2000/svg">
<path fill-rule="evenodd" clip-rule="evenodd" d="M6.4527 5H4C3.5503 5 3.23796 5.30734 3.00776 5.65804C2.87701 5.85723 2.72053 6.13929 2.57034 6.51831C2.26921 7.27818 2 8.41057 2 10.0234C2 11.636 2.26913 12.7592 2.57274 13.5111C2.7242 13.8862 2.8825 14.1645 3.01577 14.3613C3.25016 14.7074 3.54782 15 4 15H5.26666V16.1247C5.26666 17.0369 5.66758 17.7923 6.30797 18.2962C6.92532 18.782 7.7155 19 8.5 19H10.0039V22C10.0039 22.5523 10.4516 23 11.0039 23H14C14.5523 23 15 22.5523 15 22C15 21.4477 14.5523 21 14 21H12.0039V18C12.0039 17.4477 11.5562 17 11.0039 17H8.5C8.06593 17 7.73944 16.8777 7.54477 16.7245C7.37313 16.5894 7.26666 16.4071 7.26666 16.1247V15H10.382C11.1395 15 11.832 14.572 12.1708 13.8944L12.618 13H18.9321C18.7503 13.2536 18.5446 13.4892 18.3148 13.7055C18.1139 13.8945 18 14.158 18 14.4338V19.0039C18 19.0479 18.0028 19.0913 18.0084 19.1339C18.0384 19.365 18.1473 19.5713 18.3072 19.725L18.6932 20.1071C18.8027 20.2166 18.8572 20.3602 18.8569 20.5038C18.8572 20.6474 18.8027 20.7909 18.6932 20.9005L18.293 21.2966C18.112 21.4776 18 21.7275 18 22.0037C18 22.556 18.4477 23.0037 18.9999 23.0037C19.5522 23.0037 19.9998 22.556 19.9998 22.0037C19.9998 21.7275 19.888 21.4776 19.707 21.2966L19.3068 20.9005C19.1973 20.7909 19.1428 20.6474 19.1431 20.5038C19.1428 20.3602 19.1973 20.2166 19.3068 20.1071L19.6931 19.7248C19.8823 19.5428 20 19.2871 20 19.0039V14.8463C21.4221 13.3236 22 11.3136 22 9.22222C22 4.66264 18.2354 1 13.6333 1C10.5888 1 7.91689 2.59973 6.4527 5ZM8.95675 5H10.382C11.1395 5 11.832 5.428 12.1708 6.10557L12.618 7H19.5813C18.6682 4.66847 16.36 3 13.6333 3C11.7811 3 10.1181 3.77201 8.95675 5ZM19.996 9H12C11.6212 9 11.275 8.786 11.1056 8.44721L10.382 7H4.54218C4.50686 7.07179 4.46874 7.15652 4.42966 7.25513C4.23079 7.75698 4 8.6363 4 10.0234C4 11.4109 4.23087 12.2759 4.42726 12.7623C4.4643 12.854 4.50038 12.933 4.53386 13H10.382L11.1056 11.5528C11.275 11.214 11.6212 11 12 11H19.8103C19.9375 10.447 20 9.85215 20 9.22222C20 9.14785 19.9987 9.07377 19.996 9Z" fill="#FF5640"/>
</svg>
