<svg width="24" height="24" viewBox="0 0 24 24" fill="none" xmlns="http://www.w3.org/2000/svg">
<path fill-rule="evenodd" clip-rule="evenodd" d="M1 4C1 3.44772 1.44772 3 2 3H20C20.5523 3 21 3.44772 21 4V8H22C22.5523 8 23 8.44772 23 9V15C23 15.5523 22.5523 16 22 16H21V20C21 20.5523 20.5523 21 20 21H5C4.82845 21 4.66699 20.9568 4.5259 20.8807C4.43981 20.8343 4.3613 20.7756 4.29271 20.707L3.89655 20.3068C3.78702 20.1973 3.64344 20.1428 3.49987 20.1431C3.35629 20.1428 3.21272 20.1973 3.10318 20.3068L2.70703 20.707C2.52606 20.888 2.27613 20.9998 1.99991 20.9998C1.44766 20.9998 1 20.5522 1 19.9999C1 19.4477 1.44766 19 1.99991 19C2.27613 19 2.52606 19.112 2.70703 19.293L3.10318 19.6932C3.21272 19.8027 3.35629 19.8572 3.49987 19.8569C3.64344 19.8572 3.78702 19.8027 3.89655 19.6932L4.29271 19.293C4.47367 19.112 4.72361 19 4.99982 19C4.99977 19 4.99988 19 4.99982 19H19V16H16C15.4477 16 15 15.5523 15 15V9C15 8.44772 15.4477 8 16 8H19V5H3V15C3 15.5523 2.55228 16 2 16C1.44772 16 1 15.5523 1 15V4ZM17 10H19V14H17V10Z" fill="#FF5640"/>
</svg>
