<svg width="24" height="24" viewBox="0 0 24 24" fill="none" xmlns="http://www.w3.org/2000/svg">
<path d="M2 3C1.44772 3 1 3.44772 1 4V16C1 16.5523 1.44772 17 2 17H22C22.5523 17 23 16.5523 23 16C23 15.4477 22.5523 15 22 15H3V5H8.93304C8.94395 5 8.95483 4.99983 8.96566 4.99948C8.9764 4.99983 8.98718 5 8.998 5C9.25749 5 9.48701 4.90002 9.66665 4.73999L10.1058 4.29999C10.3254 4.08002 10.6746 4.08002 10.8942 4.29999L11.3334 4.73999C11.513 4.90003 11.7425 5 12.002 5C12.5509 5 13 4.54999 13 4C13 3.45001 12.5509 3 12.002 3C11.7425 3 11.513 3.10004 11.3334 3.26001L10.8942 3.70001C10.6746 3.92004 10.3254 3.92004 10.1058 3.70001L9.66665 3.26001C9.48701 3.10004 9.25749 3 8.998 3C8.98718 3 8.9764 3.00017 8.96566 3.00052C8.95483 3.00017 8.94395 3 8.93304 3H2Z" fill="#FF5640"/>
<path fill-rule="evenodd" clip-rule="evenodd" d="M17.2929 11.2929C17.6834 10.9024 18.3166 10.9024 18.7071 11.2929L22.7071 15.2929C23.0976 15.6834 23.0976 16.3166 22.7071 16.7071L18.7071 20.7071C18.3166 21.0976 17.6834 21.0976 17.2929 20.7071C16.9024 20.3166 16.9024 19.6834 17.2929 19.2929L20.5858 16L17.2929 12.7071C16.9024 12.3166 16.9024 11.6834 17.2929 11.2929Z" fill="#FF5640"/>
</svg>
