<svg width="24" height="24" viewBox="0 0 24 24" fill="none" xmlns="http://www.w3.org/2000/svg">
<path d="M16.7356 1.05075C16.5308 0.982889 16.3095 0.983089 16.1048 1.05132C15.0286 1.41005 13.5384 1.60534 12 1.60534C10.4616 1.60534 8.9714 1.41006 7.89519 1.05132C7.6909 0.983224 7.47008 0.982891 7.26559 1.05037L2.48432 2.62815C2.46916 2.63315 2.45412 2.63851 2.43922 2.64424C1.57223 2.97715 1 3.80985 1 4.73856V10C1 10.5523 1.44772 11 2 11H5V22C5 22.5523 5.44772 23 6 23H15C15.314 23 15.5943 22.8552 15.7776 22.6288L16.1058 22.3C16.3254 22.08 16.6746 22.08 16.8942 22.3L17.3334 22.74C17.513 22.9 17.7425 23 18.002 23C18.5509 23 19 22.55 19 22C19 21.45 18.5509 21 18.002 21C17.7425 21 17.513 21.1 17.3334 21.26L16.8942 21.7C16.6746 21.92 16.3254 21.92 16.1058 21.7L15.7776 21.3712C15.5943 21.1448 15.314 21 15 21H7V10C7 9.44772 6.55228 9 6 9H3V4.73856C3 4.64272 3.05616 4.55631 3.14258 4.51701L7.5875 3.05023C8.87866 3.4286 10.4598 3.60534 12 3.60534C13.54 3.60534 15.1208 3.42865 16.4119 3.05041L20.855 4.5225C20.9427 4.56126 21 4.64839 21 4.74516V9H18C17.4477 9 17 9.44772 17 10V17C17 17.5523 17.4477 18 18 18C18.5523 18 19 17.5523 19 17V11H22C22.5523 11 23 10.5523 23 10V4.74516C23 3.81298 22.4235 2.97793 21.5519 2.64746C21.5387 2.64244 21.5253 2.6377 21.5119 2.63325L16.7356 1.05075Z" fill="#FF5640"/>
</svg>
