<svg width="24" height="24" viewBox="0 0 24 24" fill="none" xmlns="http://www.w3.org/2000/svg">
<path d="M10.6699 14.67L14.6699 12L10.6699 9.32996V14.67Z" fill="#FF5640"/>
<path fill-rule="evenodd" clip-rule="evenodd" d="M11.7068 6.16888C9.04367 6.16888 7.29663 6.26255 6.33361 6.34393L6.33092 6.34416C5.58806 6.41099 4.96256 6.64328 4.49651 7.07512C4.02907 7.50824 3.77326 8.09462 3.68148 8.77158C3.61082 9.25501 3.55716 10.1815 3.53053 10.9106C3.48982 11.6324 3.48982 12.3675 3.53053 13.0894C3.55716 13.8184 3.61082 14.7449 3.68148 15.2284C3.77326 15.9054 4.02907 16.4917 4.49651 16.9248C4.96256 17.3567 5.58805 17.5889 6.33089 17.6558L6.33361 17.6561C7.29663 17.7374 9.04367 17.8311 11.7068 17.8311H11.7202C14.3792 17.8311 16.7005 17.7377 17.6664 17.6561L17.6691 17.6558C18.4119 17.5889 19.0374 17.3567 19.5035 16.9248C19.9709 16.4917 20.2267 15.9054 20.3185 15.2285C20.3892 14.745 20.4428 13.8184 20.4695 13.0893C20.5102 12.3675 20.5102 11.6324 20.4695 10.9106C20.4428 10.1815 20.3892 9.25491 20.3185 8.77149C20.2267 8.09457 19.9709 7.50823 19.5035 7.07512C19.0374 6.64328 18.4119 6.41099 17.6691 6.34416L17.6664 6.34393C16.7005 6.2623 14.3791 6.16888 11.72 6.16888H11.7068ZM5.17618 7.80864C5.43631 7.5676 5.83001 7.39347 6.41921 7.34026C7.34896 7.26174 9.06687 7.16888 11.7068 7.16888H11.7202C14.3642 7.16888 16.6534 7.26199 17.5808 7.34026C18.17 7.39348 18.5637 7.5676 18.8238 7.80864C19.0821 8.04795 19.2594 8.40014 19.3278 8.90813L19.3287 8.91397C19.3907 9.33645 19.4435 10.2171 19.4702 10.952L19.4708 10.9621C19.5097 11.6496 19.5096 12.3503 19.4707 13.0379L19.4703 13.048C19.4436 13.7828 19.3907 14.6635 19.3287 15.086L19.3279 15.0919C19.2594 15.5999 19.0821 15.952 18.8238 16.1913C18.5637 16.4323 18.17 16.6065 17.5808 16.6597C16.6535 16.738 14.3642 16.8311 11.72 16.8311H11.7068C9.06682 16.8311 7.34889 16.7382 6.41916 16.6597C5.82998 16.6065 5.4363 16.4323 5.17617 16.1913C4.9179 15.952 4.74064 15.5998 4.67215 15.0919L4.6713 15.086C4.60925 14.6635 4.55653 13.7828 4.52979 13.048L4.52922 13.0379C4.49026 12.3503 4.49036 11.6496 4.52932 10.9621L4.52969 10.952C4.55643 10.2171 4.60929 9.33645 4.67133 8.91397L4.67212 8.90813C4.74061 8.40013 4.91791 8.04795 5.17618 7.80864Z" fill="#FF5640"/>
</svg>
