<svg width="1080" height="1080" viewBox="0 0 1080 1080" fill="none" xmlns="http://www.w3.org/2000/svg">
<g clip-path="url(#clip0_321_29372)">
<path d="M405.009 223.879C454.083 223.879 493.86 184.102 493.86 135.028C493.86 85.9548 454.083 46.1777 405.009 46.1777C355.936 46.1777 316.159 85.9548 316.159 135.028C316.159 184.102 355.936 223.879 405.009 223.879Z" fill="#758087"/>
<path d="M405.009 493.86C454.083 493.86 493.86 454.083 493.86 405.01C493.86 355.936 454.083 316.159 405.009 316.159C355.936 316.159 316.159 355.936 316.159 405.01C316.159 454.083 355.936 493.86 405.009 493.86Z" fill="#BABFC3"/>
<path d="M674.99 223.879C724.064 223.879 763.841 184.102 763.841 135.028C763.841 85.9548 724.064 46.1777 674.99 46.1777C625.917 46.1777 586.14 85.9548 586.14 135.028C586.14 184.102 625.917 223.879 674.99 223.879Z" fill="#E8EAEA"/>
<path d="M945.047 223.879C994.121 223.879 1033.9 184.102 1033.9 135.028C1033.9 85.9548 994.121 46.1777 945.047 46.1777C895.974 46.1777 856.197 85.9548 856.197 135.028C856.197 184.102 895.974 223.879 945.047 223.879Z" fill="#BABFC3"/>
<path d="M134.876 763.231C183.95 763.231 223.727 723.454 223.727 674.381C223.727 625.307 183.95 585.53 134.876 585.53C85.8024 585.53 46.0254 625.307 46.0254 674.381C46.0254 723.454 85.8024 763.231 134.876 763.231Z" fill="#F15844"/>
<path d="M405.009 763.231C454.083 763.231 493.86 723.454 493.86 674.381C493.86 625.307 454.083 585.53 405.009 585.53C355.936 585.53 316.159 625.307 316.159 674.381C316.159 723.454 355.936 763.231 405.009 763.231Z" fill="#E8EAEA"/>
<path d="M674.99 763.231C724.064 763.231 763.841 723.454 763.841 674.381C763.841 625.307 724.064 585.53 674.99 585.53C625.917 585.53 586.14 625.307 586.14 674.381C586.14 723.454 625.917 763.231 674.99 763.231Z" fill="#758087"/>
<path d="M134.876 1034.05C183.95 1034.05 223.727 994.274 223.727 945.2C223.727 896.127 183.95 856.35 134.876 856.35C85.8024 856.35 46.0254 896.127 46.0254 945.2C46.0254 994.274 85.8024 1034.05 134.876 1034.05Z" fill="#758087"/>
<path d="M945.047 763.231C994.121 763.231 1033.9 723.454 1033.9 674.381C1033.9 625.307 994.121 585.53 945.047 585.53C895.974 585.53 856.197 625.307 856.197 674.381C856.197 723.454 895.974 763.231 945.047 763.231Z" fill="#E8EAEA"/>
<path d="M945.047 1034.05C994.121 1034.05 1033.9 994.274 1033.9 945.2C1033.9 896.127 994.121 856.35 945.047 856.35C895.974 856.35 856.197 896.127 856.197 945.2C856.197 994.274 895.974 1034.05 945.047 1034.05Z" fill="#F15844"/>
<path d="M134.952 46.1777C85.8786 46.1777 46.0254 86.2596 46.0254 135.638C46.0254 158.803 54.3313 179.606 68.6572 195.456L107.672 234.7C127.104 254.207 127.104 285.907 107.672 305.49L68.6572 344.734C54.4837 360.584 46.0254 381.387 46.0254 404.323C46.0254 453.702 85.8786 493.784 134.952 493.784H135.333C184.254 493.784 224.031 453.702 224.031 404.323C224.031 381.311 215.497 360.584 201.4 344.734L162.308 305.49C142.877 285.983 142.877 254.283 162.308 234.7L201.324 195.456C215.649 179.606 223.955 158.651 223.955 135.638C223.955 86.2596 184.102 46.1777 135.028 46.1777H134.952Z" fill="#E8EAEA"/>
<path d="M1033.82 404.934C1033.82 355.86 993.74 316.007 944.362 316.007C921.196 316.007 900.394 324.313 884.544 338.639L845.3 377.654C825.793 397.085 794.093 397.085 774.509 377.654L735.265 338.639C719.416 324.465 698.613 316.007 675.676 316.007C626.298 316.007 586.216 355.86 586.216 404.934V405.315C586.216 454.236 626.298 494.013 675.676 494.013C698.689 494.013 719.416 485.478 735.265 471.381L774.509 432.366C794.017 412.935 825.716 412.935 845.3 432.366L884.544 471.381C900.394 485.707 921.349 494.013 944.362 494.013C993.74 494.013 1033.82 454.16 1033.82 405.086V404.934Z" fill="#F15844"/>
<path d="M763.841 944.972C763.841 895.898 723.759 856.045 674.381 856.045C651.216 856.045 630.413 864.351 614.563 878.677L575.32 917.692C555.812 937.123 524.112 937.123 504.529 917.692L465.285 878.677C449.435 864.503 428.632 856.045 405.696 856.045C356.317 856.045 316.235 895.898 316.235 944.972V945.353C316.235 994.274 356.317 1034.05 405.696 1034.05C428.708 1034.05 449.435 1025.52 465.285 1011.42L504.529 972.404C524.036 952.973 555.736 952.973 575.32 972.404L614.563 1011.42C630.413 1025.75 651.368 1034.05 674.381 1034.05C723.759 1034.05 763.841 994.198 763.841 945.124V944.972Z" fill="#BABFC3"/>
</g>
<defs>
<clipPath id="clip0_321_29372">
<rect width="1080" height="1080" fill="white"/>
</clipPath>
</defs>
</svg>
