<svg width="520" height="520" viewBox="0 0 520 520" fill="none" xmlns="http://www.w3.org/2000/svg">
<g clip-path="url(#clip0_321_26873)">
<rect width="520" height="520" fill="#192B37"/>
<path d="M389.921 365.32C373.939 348.817 280.75 250.017 280.75 250.017L167.956 199.67C167.956 199.67 163.151 221.917 178.61 232.675C186.073 237.907 204.872 249.397 225.702 258.718L225.527 259.32C225.005 260.648 223.5 263.612 223.5 266.267L223.5 324.392L215.25 353.985L303.25 402.017L303.25 594.016C371.875 594.015 408.875 594.016 440 594.016L389.921 365.32Z" fill="url(#paint0_linear_321_26873)"/>
<path d="M266.016 396.843C266.016 402.366 270.493 406.843 276.016 406.843C281.539 406.843 286.016 402.366 286.016 396.843H266.016ZM276.016 176H266.016V396.843H276.016H286.016V176H276.016Z" fill="#FF5640"/>
<path d="M276.016 50C309.905 50 337.363 77.4464 337.363 111.284C337.363 145.122 309.905 172.567 276.016 172.567C242.127 172.567 214.669 145.122 214.669 111.284C214.669 77.4466 242.126 50.0002 276.016 50Z" fill="#192B37" stroke="#FF5640" stroke-width="20"/>
<path d="M271.268 162.414L271.018 162.414L208.911 162.097C193.032 162.124 178.115 168.324 166.89 179.559C143.665 202.806 143.665 240.636 166.89 263.883L94.7904 336.049C31.8083 273.009 31.8083 170.439 94.7904 107.399C125.297 76.8641 165.863 60.0481 209.01 60.0415L209.273 60.0415L271.354 60.3578" fill="url(#paint1_linear_321_26873)"/>
<path d="M272.736 199.128L326.099 248.355C326.099 248.355 360.286 281.856 365.992 288.541C395.654 323.428 390.671 370.8 390.671 370.8C390.671 370.8 350.063 373.538 323.905 334.554C313.981 319.742 311.913 303.835 313.151 289.684C302.593 277.332 290.335 262.84 279.148 249.28C251.933 216.39 272.84 199.137 272.84 199.137L272.736 199.128Z" fill="url(#paint2_linear_321_26873)"/>
<path d="M272.736 199.128L326.099 248.355C326.099 248.355 360.286 281.856 365.992 288.541C395.654 323.428 390.671 370.8 390.671 370.8C390.671 370.8 350.063 373.538 323.905 334.554C313.981 319.742 311.913 303.835 313.151 289.684C302.593 277.332 290.335 262.84 279.148 249.28C251.933 216.39 272.84 199.137 272.84 199.137L272.736 199.128Z" fill="url(#paint3_radial_321_26873)" fill-opacity="0.1"/>
<path d="M216.323 289.078C206.916 285.998 203.202 277.45 205.784 269.155C208.366 260.861 216.779 255.625 226.186 258.705L306.362 283.713C306.362 283.713 300.085 301.422 277.862 302.508C276.462 302.577 271.791 302.196 270.312 302.003C268.833 301.811 216.323 289.078 216.323 289.078Z" fill="url(#paint4_linear_321_26873)"/>
<path d="M216.323 289.078C206.916 285.998 203.202 277.45 205.784 269.155C208.366 260.861 216.779 255.625 226.186 258.705L306.362 283.713C306.362 283.713 300.085 301.422 277.862 302.508C276.462 302.577 271.791 302.196 270.312 302.003C268.833 301.811 216.323 289.078 216.323 289.078Z" fill="url(#paint5_radial_321_26873)" fill-opacity="0.1"/>
<path d="M216.323 321.972C206.916 318.892 203.202 310.344 205.784 302.049C208.366 293.755 216.779 288.519 226.186 291.599L306.362 316.607C306.362 316.607 300.085 334.316 277.862 335.402C276.462 335.471 271.791 335.09 270.312 334.898C268.833 334.705 216.323 321.972 216.323 321.972Z" fill="url(#paint6_linear_321_26873)"/>
<path d="M216.323 321.972C206.916 318.892 203.202 310.344 205.784 302.049C208.366 293.755 216.779 288.519 226.186 291.599L306.362 316.607C306.362 316.607 300.085 334.316 277.862 335.402C276.462 335.471 271.791 335.09 270.312 334.898C268.833 334.705 216.323 321.972 216.323 321.972Z" fill="url(#paint7_radial_321_26873)" fill-opacity="0.1"/>
<path d="M216.323 354.866C206.916 351.786 203.202 343.238 205.784 334.943C208.366 326.649 216.779 321.413 226.186 324.493L306.362 349.501C306.362 349.501 300.085 367.21 277.862 368.296C276.462 368.365 271.791 367.984 270.312 367.792C268.833 367.599 216.323 354.866 216.323 354.866Z" fill="url(#paint8_linear_321_26873)"/>
<path d="M216.323 354.866C206.916 351.786 203.202 343.238 205.784 334.943C208.366 326.649 216.779 321.413 226.186 324.493L306.362 349.501C306.362 349.501 300.085 367.21 277.862 368.296C276.462 368.365 271.791 367.984 270.312 367.792C268.833 367.599 216.323 354.866 216.323 354.866Z" fill="url(#paint9_radial_321_26873)" fill-opacity="0.1"/>
<ellipse cx="276.016" cy="111.284" rx="51.2874" ry="51.242" fill="#192B37"/>
</g>
<defs>
<linearGradient id="paint0_linear_321_26873" x1="535" y1="182.366" x2="277.951" y2="577.306" gradientUnits="userSpaceOnUse">
<stop stop-color="#192B37"/>
<stop offset="0.0001" stop-color="#192B37"/>
<stop offset="1" stop-color="#68B5E8"/>
</linearGradient>
<linearGradient id="paint1_linear_321_26873" x1="47.6459" y1="314.143" x2="260.003" y2="91.8952" gradientUnits="userSpaceOnUse">
<stop stop-color="#192B37"/>
<stop offset="0.4" stop-color="#192C38"/>
<stop offset="0.55" stop-color="#1C313F"/>
<stop offset="0.65" stop-color="#223A4B"/>
<stop offset="0.73" stop-color="#29485C"/>
<stop offset="0.8" stop-color="#335972"/>
<stop offset="0.87" stop-color="#3F6E8D"/>
<stop offset="0.92" stop-color="#4E87AD"/>
<stop offset="0.97" stop-color="#5EA4D2"/>
<stop offset="1" stop-color="#68B5E8"/>
</linearGradient>
<linearGradient id="paint2_linear_321_26873" x1="530.239" y1="751.247" x2="700.95" y2="328.289" gradientUnits="userSpaceOnUse">
<stop offset="0.1841" stop-color="#1C313F"/>
<stop offset="0.773493" stop-color="#62A7D6"/>
<stop offset="1" stop-color="white"/>
</linearGradient>
<radialGradient id="paint3_radial_321_26873" cx="0" cy="0" r="1" gradientUnits="userSpaceOnUse" gradientTransform="translate(410.273 255.889) rotate(160.187) scale(86.4921 100.687)">
<stop stop-color="white"/>
<stop offset="1" stop-color="white" stop-opacity="0"/>
</radialGradient>
<linearGradient id="paint4_linear_321_26873" x1="-40.5627" y1="369.362" x2="355.662" y2="263.827" gradientUnits="userSpaceOnUse">
<stop offset="0.1841" stop-color="#1C313F"/>
<stop offset="0.731853" stop-color="#62A7D6"/>
<stop offset="1" stop-color="white"/>
</linearGradient>
<radialGradient id="paint5_radial_321_26873" cx="0" cy="0" r="1" gradientUnits="userSpaceOnUse" gradientTransform="translate(291.284 286.681) rotate(-175.444) scale(44.8654 24.4432)">
<stop stop-color="white"/>
<stop offset="1" stop-color="white" stop-opacity="0"/>
</radialGradient>
<linearGradient id="paint6_linear_321_26873" x1="-40.7495" y1="481.017" x2="376.146" y2="280.023" gradientUnits="userSpaceOnUse">
<stop offset="0.1841" stop-color="#1C313F"/>
<stop offset="0.742029" stop-color="#62A7D6"/>
<stop offset="1" stop-color="white"/>
</linearGradient>
<radialGradient id="paint7_radial_321_26873" cx="0" cy="0" r="1" gradientUnits="userSpaceOnUse" gradientTransform="translate(291.284 319.575) rotate(-175.444) scale(44.8654 24.4432)">
<stop stop-color="white"/>
<stop offset="1" stop-color="white" stop-opacity="0"/>
</radialGradient>
<linearGradient id="paint8_linear_321_26873" x1="-47.7495" y1="488.017" x2="382.216" y2="282.211" gradientUnits="userSpaceOnUse">
<stop offset="0.1841" stop-color="#1C313F"/>
<stop offset="0.731853" stop-color="#62A7D6"/>
<stop offset="1" stop-color="white"/>
</linearGradient>
<radialGradient id="paint9_radial_321_26873" cx="0" cy="0" r="1" gradientUnits="userSpaceOnUse" gradientTransform="translate(291.284 352.469) rotate(-175.444) scale(44.8654 24.4432)">
<stop stop-color="white"/>
<stop offset="1" stop-color="white" stop-opacity="0"/>
</radialGradient>
<clipPath id="clip0_321_26873">
<rect width="520" height="520" fill="white"/>
</clipPath>
</defs>
</svg>
