<svg width="520" height="520" viewBox="0 0 520 520" fill="none" xmlns="http://www.w3.org/2000/svg">
<g clip-path="url(#clip0_321_26872)">
<rect width="520" height="520" fill="#192B37"/>
<path d="M164.595 151.007L255.5 126.997L321.59 183.996L306.487 198.047L240.503 155.504C214.303 161.207 182.114 164.785 182.114 164.785C166.468 164.548 164.595 151.007 164.595 151.007Z" fill="url(#paint0_linear_321_26872)"/>
<path d="M244.501 230.5C246.762 227.523 252.002 217.485 246.002 206.485C239.733 195.077 227.943 194.717 227.943 194.717C222.025 207.85 195.173 237.421 179.794 215.685L199.095 194.001C189.879 203.217 176.558 211.948 163.811 197.981C163.811 197.981 185.333 173.497 198.999 162.996L261.501 159.996L292.5 189.496V232.496L244.501 230.5Z" fill="url(#paint1_linear_321_26872)"/>
<path d="M328.46 285.357C305.717 251.667 341.656 198.398 319.999 181.68L251.499 138.496L172.499 153.996C172.499 153.996 173.856 166.746 188.236 166.297C204.465 166.297 238.499 165.996 238.499 165.996L272.907 193.737C272.907 193.737 276.766 210.51 260.937 221.141C249.992 227.985 232.526 227.17 223.442 211.568C223.174 211.103 207.891 186.977 205.501 183.196C188.236 161.162 165.35 172.239 165.35 172.239L251.499 310.058L407 635L536.696 547.205L328.46 285.357Z" fill="url(#paint2_linear_321_26872)"/>
<path d="M125.5 145.5C126 143.5 141 145.5 141 145.5L370.695 233.64C370.695 233.64 377.314 235.922 375.2 243.073C372.004 250.375 365.133 247.367 365.133 247.367L136 156C136 156 125 147.5 125.5 145.5Z" fill="#FF5640"/>
<path d="M205.502 183.199C188.237 161.166 165.351 172.243 165.351 172.243L251.5 310.061L223.443 211.571C223.174 211.106 207.892 186.981 205.502 183.199Z" fill="url(#paint3_linear_321_26872)"/>
</g>
<defs>
<linearGradient id="paint0_linear_321_26872" x1="224.16" y1="261.53" x2="351.12" y2="172.728" gradientUnits="userSpaceOnUse">
<stop stop-color="#68B2E5"/>
<stop offset="1" stop-color="#192B37"/>
</linearGradient>
<linearGradient id="paint1_linear_321_26872" x1="347.507" y1="159.996" x2="161.661" y2="293.092" gradientUnits="userSpaceOnUse">
<stop stop-color="#68B2E5"/>
<stop offset="1" stop-color="#192B37"/>
</linearGradient>
<linearGradient id="paint2_linear_321_26872" x1="213.05" y1="203.544" x2="499.451" y2="499.304" gradientUnits="userSpaceOnUse">
<stop stop-color="#68B2E5"/>
<stop offset="1" stop-color="#192B37"/>
</linearGradient>
<linearGradient id="paint3_linear_321_26872" x1="213.05" y1="203.55" x2="499.451" y2="499.31" gradientUnits="userSpaceOnUse">
<stop stop-color="#68B2E5"/>
<stop offset="1" stop-color="#192B37"/>
</linearGradient>
<clipPath id="clip0_321_26872">
<rect width="520" height="520" fill="white"/>
</clipPath>
</defs>
</svg>
