<svg width="520" height="520" viewBox="0 0 520 520" fill="none" xmlns="http://www.w3.org/2000/svg">
<g clip-path="url(#clip0_321_26869)">
<rect width="520" height="520" fill="#192B37"/>
<path d="M235.78 233.989C234.782 240.915 238.817 247.052 244.888 247.917C250.958 248.783 256.789 243.862 257.787 236.936L280.714 110.578C280.714 110.578 263.742 108.129 258.684 125.359L235.7 234.05L235.78 233.989Z" fill="url(#paint0_linear_321_26869)"/>
<path d="M262.18 198.034C261.177 204.959 265.134 211.081 271.111 211.928C277.087 212.776 282.845 207.84 283.848 200.915L308.91 80.4697C308.91 80.4697 289.598 75.3818 283.776 94.8779L262.101 198.095L262.18 198.034Z" fill="url(#paint1_linear_321_26869)"/>
<path d="M286.385 183.395C285.429 190.329 290.118 196.592 296.97 197.609C303.821 198.625 310.264 193.822 311.219 186.888L339.043 62.5038C338.347 62.014 316.09 54.7246 309.483 77.956L286.385 183.395Z" fill="url(#paint2_linear_321_26869)"/>
<path d="M337.632 94.371C351.708 77.4311 368.309 88.9558 368.309 88.9558L314.24 209.039C305.175 225.946 248.847 279.178 248.847 279.178L221.495 243.126L204.223 216.874L290.592 181.967C304.514 161.769 322.062 113.351 337.632 94.371Z" fill="url(#paint3_linear_321_26869)"/>
<path d="M204.223 216.874L221.495 243.126L248.847 279.178C248.847 279.178 245.795 317.291 272.469 399.073C299.143 480.855 339.045 539.87 339.045 539.87L180.647 539.871C180.647 539.871 173.194 296.719 174.01 274.713C174.826 252.706 186.559 225.774 204.223 216.874Z" fill="url(#paint4_linear_321_26869)"/>
<path d="M335.312 142.314L295.87 196.462C295.87 196.462 268.202 232.525 262.533 238.569C224.647 281.144 174.033 274.865 174.033 274.865C174.033 274.865 173.342 235.586 209.471 209.093C226.392 196.685 244.407 197.389 256.578 189.145C271.262 179.074 274.763 165.313 286.199 153.369C307.716 131.505 335.312 142.314 335.312 142.314Z" fill="url(#paint5_linear_321_26869)"/>
</g>
<defs>
<linearGradient id="paint0_linear_321_26869" x1="272.993" y1="133.859" x2="249.278" y2="130.364" gradientUnits="userSpaceOnUse">
<stop stop-color="#4C80A3"/>
<stop offset="1" stop-color="#68B2E5"/>
</linearGradient>
<linearGradient id="paint1_linear_321_26869" x1="299.122" y1="97.8512" x2="275.778" y2="94.3945" gradientUnits="userSpaceOnUse">
<stop stop-color="#4C80A3"/>
<stop offset="1" stop-color="#68B2E5"/>
</linearGradient>
<linearGradient id="paint2_linear_321_26869" x1="325.839" y1="83.6942" x2="299.029" y2="79.9006" gradientUnits="userSpaceOnUse">
<stop stop-color="#4C80A3"/>
<stop offset="1" stop-color="#68B2E5"/>
</linearGradient>
<linearGradient id="paint3_linear_321_26869" x1="404.793" y1="544.572" x2="249.731" y2="192.674" gradientUnits="userSpaceOnUse">
<stop stop-color="#192B37"/>
<stop offset="0.920448" stop-color="#68B2E5"/>
</linearGradient>
<linearGradient id="paint4_linear_321_26869" x1="404.793" y1="544.572" x2="249.731" y2="192.674" gradientUnits="userSpaceOnUse">
<stop stop-color="#192B37"/>
<stop offset="0.920448" stop-color="#68B2E5"/>
</linearGradient>
<linearGradient id="paint5_linear_321_26869" x1="278.52" y1="-87.8497" x2="65.0004" y2="156.088" gradientUnits="userSpaceOnUse">
<stop stop-color="white"/>
<stop offset="0.87471" stop-color="#68B2E5"/>
</linearGradient>
<clipPath id="clip0_321_26869">
<rect width="520" height="520" fill="white"/>
</clipPath>
</defs>
</svg>
