<svg width="520" height="520" viewBox="0 0 520 520" fill="none" xmlns="http://www.w3.org/2000/svg">
<g clip-path="url(#clip0_321_26880)">
<rect width="520" height="520" fill="#192B37"/>
<path d="M212.827 280.728L231.549 261.631L288.091 242.159L277.083 276.309L246.789 272.827L224.21 284.398C216.201 287.314 212.827 280.728 212.827 280.728Z" fill="url(#paint0_linear_321_26880)"/>
<path d="M178.73 251.28L208.595 235.382L257.611 219.767L291.761 230.776L284.422 253.543L261.989 245.719L225.052 250.112L198.904 259.354C184.068 265.175 178.73 251.28 178.73 251.28Z" fill="url(#paint1_linear_321_26880)"/>
<path d="M253.566 193.331L299.099 208.009L288.091 242.16L257.61 219.767L227.317 216.285L204.738 227.856C189.214 235.811 181.971 220.517 181.971 220.517L215.746 193.706L253.566 193.331Z" fill="url(#paint2_linear_321_26880)"/>
<path d="M351.971 199.921C351.971 199.921 374.074 257.103 409.825 312.818C480.689 428.702 571.664 496.56 571.664 496.56L442.67 564.42L352.693 359.867C338.032 351.63 299.206 325.55 277.081 276.309C277.081 276.309 286.257 229.75 293.906 214.105L268.618 185.617L219.357 176.413C199.677 170.461 205.169 152.205 205.169 152.205L283.484 158.993L351.971 199.921Z" fill="url(#paint3_linear_321_26880)"/>
<path d="M351.972 199.92C351.972 199.92 374.075 257.103 409.826 312.817C465.827 404.396 388.672 288.79 352.693 359.867C338.032 351.63 299.206 325.549 277.082 276.309C277.082 276.309 286.258 229.75 293.907 214.105L268.619 185.617L219.357 176.413C199.677 170.461 205.17 152.204 205.17 152.204L283.485 158.993L351.972 199.92Z" fill="url(#paint4_linear_321_26880)"/>
<path d="M317.748 321.755L257.555 97.1115C255.766 90.4333 248.898 86.4579 242.216 88.2322L154.897 111.418C148.215 113.192 144.248 120.044 146.038 126.723L206.231 351.366C208.02 358.044 214.888 362.02 221.57 360.245L308.889 337.06C315.572 335.285 319.538 328.433 317.748 321.755Z" fill="white"/>
<path d="M343.633 246.957C343.633 246.957 371.295 267.355 381.253 281.205C391.212 295.055 387.855 309.662 383.416 317.688C373.133 338.137 334.532 345.346 321.707 311.458C307.499 269.706 295.926 257.764 283.543 253.215C274.627 249.908 258.872 247.105 244.992 236.332C234.171 227.933 230.445 216.156 231.115 204.959L343.633 246.957Z" fill="url(#paint5_linear_321_26880)"/>
</g>
<defs>
<linearGradient id="paint0_linear_321_26880" x1="198.684" y1="249.073" x2="282.522" y2="276.492" gradientUnits="userSpaceOnUse">
<stop stop-color="#192B37"/>
<stop offset="1" stop-color="#68B5E8"/>
</linearGradient>
<linearGradient id="paint1_linear_321_26880" x1="126.815" y1="284.417" x2="277.454" y2="245.882" gradientUnits="userSpaceOnUse">
<stop stop-color="#192B37"/>
<stop offset="0.920448" stop-color="#68B2E5"/>
</linearGradient>
<linearGradient id="paint2_linear_321_26880" x1="325.1" y1="207.752" x2="24.6134" y2="336.951" gradientUnits="userSpaceOnUse">
<stop stop-color="#68B5E8"/>
<stop offset="0.920448" stop-color="#192B37"/>
</linearGradient>
<linearGradient id="paint3_linear_321_26880" x1="248.676" y1="294.741" x2="178.52" y2="429.533" gradientUnits="userSpaceOnUse">
<stop stop-color="#68B5E8"/>
<stop offset="1" stop-color="#192B37"/>
</linearGradient>
<linearGradient id="paint4_linear_321_26880" x1="423.778" y1="194.008" x2="411.118" y2="61.5411" gradientUnits="userSpaceOnUse">
<stop stop-color="#68B5E8"/>
<stop offset="1" stop-color="#192B37"/>
</linearGradient>
<linearGradient id="paint5_linear_321_26880" x1="134.982" y1="142.164" x2="407.099" y2="342.424" gradientUnits="userSpaceOnUse">
<stop stop-color="white"/>
<stop offset="0.87471" stop-color="#68B2E5"/>
</linearGradient>
<clipPath id="clip0_321_26880">
<rect width="520" height="520" fill="white"/>
</clipPath>
</defs>
</svg>
