<svg width="520" height="520" viewBox="0 0 520 520" fill="none" xmlns="http://www.w3.org/2000/svg">
<g clip-path="url(#clip0_321_26881)">
<rect width="520" height="520" fill="#192B37"/>
<path d="M145.215 322.404L145.215 89.8359C145.215 82.9221 150.82 77.3047 157.733 77.2891L248.078 77.085C254.992 77.0694 260.597 82.6614 260.597 89.5752L260.597 322.143C260.597 329.057 254.992 334.674 248.078 334.69L157.733 334.894C150.82 334.91 145.215 329.318 145.215 322.404Z" fill="white"/>
<path d="M298.771 223.747L344.486 300.75C344.486 300.75 357.047 294.247 361.953 280.743C353.718 268.259 346.922 259.257 332.079 236.754C324.646 224.866 311.358 220.216 298.771 223.747Z" fill="url(#paint0_linear_321_26881)"/>
<path d="M266.546 210.342L340.373 341.712C347.891 321.02 354.379 319.206 359.285 305.702C351.051 293.218 314.807 245.814 299.964 223.31C292.531 211.423 279.132 206.81 266.546 210.342Z" fill="url(#paint1_linear_321_26881)"/>
<path d="M241.148 200.331L298.471 340.151C308.345 320.474 315 319.427 321.444 306.586C314.717 293.228 282.524 239.91 270.399 215.832C263.883 204.192 251.931 198.992 241.148 200.331Z" fill="url(#paint2_linear_321_26881)"/>
<path d="M199.238 157.114C201.012 156.437 222.338 152.081 231.112 173.47C231.195 173.673 264.334 254.519 270.192 269.731L361.944 280.731L389.204 372.132L582.185 530.9L382.095 520.143C356.403 459.485 324.569 429.575 299.843 408.915L299.842 408.914C299.481 408.91 267.902 408.481 246.321 375.288L187.596 288.708C187.596 288.708 206.218 278.396 222.59 295.546C231.382 305.876 244.632 321.226 253.303 331.679L243.336 300.228L243.327 300.238L199.238 157.114Z" fill="url(#paint3_linear_321_26881)"/>
</g>
<defs>
<linearGradient id="paint0_linear_321_26881" x1="323.596" y1="292.394" x2="340.567" y2="187.196" gradientUnits="userSpaceOnUse">
<stop stop-color="#68B5E8"/>
<stop offset="0.268723" stop-color="#5390B8"/>
<stop offset="1" stop-color="#192B37"/>
</linearGradient>
<linearGradient id="paint1_linear_321_26881" x1="291.648" y1="278.79" x2="308.619" y2="173.592" gradientUnits="userSpaceOnUse">
<stop stop-color="#68B5E8"/>
<stop offset="0.268723" stop-color="#5390B8"/>
<stop offset="1" stop-color="#192B37"/>
</linearGradient>
<linearGradient id="paint2_linear_321_26881" x1="267.348" y1="276.381" x2="287.877" y2="102.281" gradientUnits="userSpaceOnUse">
<stop stop-color="#68B5E8"/>
<stop offset="1" stop-color="#192B37"/>
</linearGradient>
<linearGradient id="paint3_linear_321_26881" x1="297.053" y1="401.084" x2="552.052" y2="576.845" gradientUnits="userSpaceOnUse">
<stop stop-color="#68B5E8"/>
<stop offset="1" stop-color="#192B37"/>
</linearGradient>
<clipPath id="clip0_321_26881">
<rect width="520" height="520" fill="white"/>
</clipPath>
</defs>
</svg>
