<svg width="520" height="520" viewBox="0 0 520 520" fill="none" xmlns="http://www.w3.org/2000/svg">
<g clip-path="url(#clip0_321_26871)">
<rect width="520" height="520" fill="#192B37"/>
<path d="M184.568 370.903L245.789 405.494L224.483 359.775L185.122 336.393C177.773 329.638 165.155 316.746 156.236 309.561C143.7 299.462 131.484 307.523 127.846 313.437L184.568 370.903Z" fill="url(#paint0_linear_321_26871)"/>
<path d="M203.609 332.586C202.704 341.711 211.377 344.837 215.388 343.868L227.646 323.528C214.615 323.411 205.955 321.52 203.609 332.586Z" fill="url(#paint1_linear_321_26871)"/>
<path d="M395.844 427.244L564.33 558.892L615.469 419.495C532.213 419.817 456.438 386.509 397.89 341.593C371.023 319.786 342.44 324.489 330.642 324.581L228.642 323.483L234.122 357.321L274.192 394.634L395.844 427.244Z" fill="url(#paint2_linear_321_26871)"/>
<path d="M319.546 377.654L317.513 375.745C310.291 368.99 305.523 364.52 305.605 359.158C305.673 354.764 309.168 351.389 313.549 351.457C316.023 351.495 318.381 352.683 319.903 354.513C321.481 352.731 323.874 351.616 326.349 351.654C330.729 351.721 334.119 355.202 334.051 359.597C333.968 364.959 329.065 369.279 321.638 375.808L319.546 377.654Z" fill="#FF5640"/>
<path d="M296.521 370.989L295.736 368.312C292.933 358.829 291.088 352.56 293.877 347.979C296.162 344.225 300.885 343.087 304.627 345.365C306.741 346.652 308.171 348.872 308.556 351.221C310.82 350.484 313.448 350.735 315.562 352.022C319.304 354.301 320.462 359.019 318.176 362.773C315.388 367.354 308.971 368.593 299.259 370.457L296.521 370.989Z" fill="#FF5640"/>
<path d="M279.99 366.278L279.205 363.601C276.402 354.118 274.557 347.849 277.345 343.268C279.631 339.514 284.354 338.376 288.096 340.654C290.21 341.941 291.64 344.161 292.025 346.51C294.289 345.773 296.917 346.024 299.031 347.311C302.773 349.59 303.931 354.308 301.645 358.062C298.856 362.643 292.44 363.882 282.728 365.746L279.99 366.278Z" fill="#FF5640"/>
<path d="M285.968 349.811L284.886 347.241C281.03 338.134 278.489 332.113 280.743 327.247C282.59 323.259 287.154 321.595 291.13 323.436C293.376 324.476 295.047 326.52 295.695 328.811C297.861 327.823 300.5 327.776 302.746 328.816C306.722 330.658 308.404 335.215 306.557 339.203C304.304 344.069 298.068 346.025 288.629 348.974L285.968 349.811Z" fill="#FF5640"/>
<path d="M262.964 336.987L260.391 335.909C251.262 332.107 245.232 329.587 243.435 324.535C241.961 320.394 244.055 316.01 248.183 314.541C250.514 313.712 253.139 314.001 255.205 315.183C256.06 312.961 257.912 311.079 260.244 310.25C264.371 308.781 268.764 310.857 270.237 314.998C272.035 320.05 268.952 325.812 264.277 334.526L262.964 336.987Z" fill="#FF5640"/>
<path d="M284.631 313.291L282.059 312.214C272.93 308.411 266.9 305.892 265.103 300.839C263.629 296.698 265.723 292.315 269.851 290.846C272.182 290.016 274.807 290.305 276.873 291.488C277.728 289.266 279.58 287.384 281.912 286.554C286.039 285.086 290.432 287.161 291.905 291.302C293.703 296.355 290.62 302.117 285.945 310.831L284.631 313.291Z" fill="#FF5640"/>
<path d="M308.483 337.245L305.91 336.167C296.782 332.364 290.752 329.845 288.954 324.793C287.481 320.652 289.575 316.268 293.702 314.799C296.034 313.969 298.658 314.259 300.725 315.441C301.58 313.219 303.431 311.337 305.763 310.507C309.891 309.039 314.283 311.114 315.757 315.255C317.554 320.308 314.471 326.07 309.797 334.784L308.483 337.245Z" fill="#FF5640"/>
<path d="M314.252 351.864L313.466 349.187C310.664 339.704 308.818 333.435 311.607 328.854C313.893 325.1 318.616 323.962 322.358 326.24C324.472 327.527 325.902 329.747 326.287 332.096C328.55 331.359 331.178 331.61 333.293 332.897C337.035 335.176 338.192 339.894 335.907 343.648C333.118 348.229 326.701 349.468 316.99 351.332L314.252 351.864Z" fill="#FF5640"/>
<path d="M208.631 355.227L257.925 428.24C270.639 444.752 286.32 442.174 288.931 441.699L297.852 405.658L263.921 375.313L240.777 352.709L249.402 319.556C251.868 317.571 262.016 307.622 273.789 296.865C284.818 286.789 276.947 274.973 271.72 272.448L237.69 297.311L208.631 355.227Z" fill="url(#paint3_linear_321_26871)"/>
<path d="M208.631 355.227L257.925 428.24C270.639 444.752 286.32 442.174 288.931 441.699L297.852 405.658L263.921 375.313L240.777 352.709L249.402 319.556C251.868 317.571 262.016 307.622 273.789 296.865C284.818 286.789 276.947 274.973 271.72 272.448L237.69 297.311L208.631 355.227Z" fill="url(#paint4_linear_321_26871)"/>
<path d="M266.574 436.834C277.583 443.852 286.611 442.608 294.922 440.462L282.598 378.068L272.214 352.839L291.644 322.615C291.644 322.615 308.812 312.372 313.346 309.91C325.075 303.54 321.753 290.626 316.983 286.166L281.129 303.473L239.768 346.681C247.091 381.174 250.321 402.773 253.031 416.683C256.132 429.551 262.679 433.835 266.574 436.834Z" fill="url(#paint5_linear_321_26871)"/>
<path d="M395.824 427.27L405.34 381.232C381.691 357.575 340.849 355.151 315.371 384.926L305.69 381.363L305.73 358.154L326.247 338.723C334.214 335.043 338.039 323.872 330.914 315.499L308.166 324.344L283.641 350.104L276.36 396.601L288.707 441.644L395.824 427.27Z" fill="url(#paint6_linear_321_26871)"/>
<path d="M168.257 224.834L185.198 204.943L199.19 148.22L166.926 161.924L172.969 191.095L163.689 214.08C161.553 222.128 168.257 224.834 168.257 224.834Z" fill="url(#paint7_linear_321_26871)"/>
<path d="M199.894 255.43L212.746 224.977L223.645 175.915L209.94 143.651L188.431 152.787L198.009 173.929L196.971 210.255L190.27 236.508C185.907 251.453 199.894 255.43 199.894 255.43Z" fill="url(#paint8_linear_321_26871)"/>
<path d="M249.73 177.53L231.457 134.511L199.193 148.216L223.652 175.912L229.695 205.083L220.415 228.067C214.035 243.869 229.551 249.577 229.551 249.577L252.679 214.362L249.73 177.53Z" fill="url(#paint9_linear_321_26871)"/>
<path d="M234.693 82.3588C234.693 82.3588 177.116 65.8633 119.771 35.9593C0.80207 -22.838 -73.198 -105.412 -73.198 -105.412L-282.538 4.63037L78.9978 95.6739C88.2966 109.218 117.077 144.711 166.928 161.923C166.928 161.923 211.427 148.914 225.979 140.101L255.915 162.21L269.188 209.337C276.704 227.964 293.987 221.02 293.987 221.02L280.518 145.412L234.693 82.3588Z" fill="url(#paint10_linear_321_26871)"/>
<path d="M234.689 82.3718C234.689 82.3718 177.112 65.8763 119.767 35.9723C25.7508 -10.4927 145 54.4501 78.9936 95.6869C88.2924 109.231 117.072 144.724 166.923 161.936C166.923 161.936 211.423 148.927 225.975 140.114L255.911 162.223L269.184 209.349C276.7 227.977 293.983 221.033 293.983 221.033L280.514 145.425L234.689 82.3718Z" fill="url(#paint11_linear_321_26871)"/>
<path d="M189.657 94.5958C189.657 94.5958 167.385 69.4678 153.035 60.9915C138.686 52.5153 124.768 57.0615 117.347 62.0844C98.3509 73.8816 94.7188 112.074 128.817 121.583C170.688 131.748 183.322 141.963 188.833 153.614C192.833 161.999 196.941 177.083 208.64 189.645C217.76 199.438 229.546 202.031 240.382 200.398L189.657 94.5958Z" fill="url(#paint12_linear_321_26871)"/>
<path d="M243.292 234.594L242.859 231.741C241.304 221.629 240.284 214.945 243.779 210.637C246.644 207.106 251.644 206.595 255.164 209.451C257.153 211.065 258.31 213.539 258.378 216.001C260.801 215.56 263.461 216.183 265.449 217.796C268.969 220.652 269.5 225.65 266.635 229.181C263.139 233.49 256.389 233.868 246.173 234.43L243.292 234.594Z" fill="#FF5640"/>
<path d="M295.91 268.795L292.76 267.378C281.581 262.376 274.197 259.062 272.134 252.749C270.444 247.575 273.177 242.215 278.335 240.53C281.248 239.578 284.488 240.02 287.008 241.551C288.138 238.828 290.492 236.558 293.405 235.606C298.563 233.92 303.934 236.632 305.624 241.806C307.687 248.119 303.684 255.153 297.616 265.791L295.91 268.795Z" fill="#FF5640"/>
</g>
<defs>
<linearGradient id="paint0_linear_321_26871" x1="17.7688" y1="242.007" x2="20.5497" y2="378.501" gradientUnits="userSpaceOnUse">
<stop stop-color="#192B37"/>
<stop offset="0.920448" stop-color="#68B2E5"/>
</linearGradient>
<linearGradient id="paint1_linear_321_26871" x1="378.681" y1="387.39" x2="383.834" y2="366.693" gradientUnits="userSpaceOnUse">
<stop stop-color="#417191"/>
<stop offset="0.920448" stop-color="#68B2E5"/>
</linearGradient>
<linearGradient id="paint2_linear_321_26871" x1="402.307" y1="395.997" x2="646.813" y2="540.411" gradientUnits="userSpaceOnUse">
<stop stop-color="#68B5E8"/>
<stop offset="1" stop-color="#192B37"/>
</linearGradient>
<linearGradient id="paint3_linear_321_26871" x1="286.526" y1="412.541" x2="245.527" y2="255.558" gradientUnits="userSpaceOnUse">
<stop stop-color="#417191"/>
<stop offset="0.920448" stop-color="#68B2E5"/>
</linearGradient>
<linearGradient id="paint4_linear_321_26871" x1="210.041" y1="132.529" x2="387.92" y2="282.932" gradientUnits="userSpaceOnUse">
<stop stop-color="white"/>
<stop offset="0.87471" stop-color="#68B2E5"/>
</linearGradient>
<linearGradient id="paint5_linear_321_26871" x1="297.905" y1="184.869" x2="425.421" y2="289.908" gradientUnits="userSpaceOnUse">
<stop stop-color="white"/>
<stop offset="0.87471" stop-color="#68B2E5"/>
</linearGradient>
<linearGradient id="paint6_linear_321_26871" x1="210.216" y1="251.208" x2="428.623" y2="292.225" gradientUnits="userSpaceOnUse">
<stop offset="0.0489253" stop-color="white"/>
<stop offset="0.87471" stop-color="#68B2E5"/>
</linearGradient>
<linearGradient id="paint7_linear_321_26871" x1="200.298" y1="235.822" x2="166.272" y2="156.648" gradientUnits="userSpaceOnUse">
<stop stop-color="#192B37"/>
<stop offset="1" stop-color="#68B5E8"/>
</linearGradient>
<linearGradient id="paint8_linear_321_26871" x1="172.201" y1="308.849" x2="196.495" y2="158.895" gradientUnits="userSpaceOnUse">
<stop stop-color="#192B37"/>
<stop offset="0.920448" stop-color="#68B2E5"/>
</linearGradient>
<linearGradient id="paint9_linear_321_26871" x1="229.429" y1="109.189" x2="130.048" y2="412.893" gradientUnits="userSpaceOnUse">
<stop stop-color="#68B5E8"/>
<stop offset="0.920448" stop-color="#192B37"/>
</linearGradient>
<linearGradient id="paint10_linear_321_26871" x1="151.483" y1="191.177" x2="-3.69882" y2="317.311" gradientUnits="userSpaceOnUse">
<stop stop-color="#68B5E8"/>
<stop offset="1" stop-color="#192B37"/>
</linearGradient>
<linearGradient id="paint11_linear_321_26871" x1="234.149" y1="11.9849" x2="364.152" y2="12.6943" gradientUnits="userSpaceOnUse">
<stop stop-color="#68B5E8"/>
<stop offset="1" stop-color="#192B37"/>
</linearGradient>
<linearGradient id="paint12_linear_321_26871" x1="309.908" y1="288.435" x2="91.2032" y2="41.2075" gradientUnits="userSpaceOnUse">
<stop stop-color="white"/>
<stop offset="0.87471" stop-color="#68B2E5"/>
</linearGradient>
<clipPath id="clip0_321_26871">
<rect width="520" height="520" fill="white"/>
</clipPath>
</defs>
</svg>
