<svg width="520" height="520" viewBox="0 0 520 520" fill="none" xmlns="http://www.w3.org/2000/svg">
<g clip-path="url(#clip0_321_26874)">
<rect width="520" height="520" fill="#192B37"/>
<path d="M309.8 370.184C315.428 374.394 316.92 381.619 313.224 386.544C309.527 391.47 301.891 392.117 296.263 387.907L190.24 314.449C190.24 314.449 200.554 300.656 216.382 309.3L309.9 370.171L309.8 370.184Z" fill="url(#paint0_linear_321_26874)"/>
<path d="M265.514 363.396C271.145 367.602 272.682 374.761 269.04 379.607C265.397 384.454 257.802 385.038 252.172 380.832L148.831 313.09C148.831 313.09 158.933 295.761 176.914 305.472L265.614 363.384L265.514 363.396Z" fill="url(#paint1_linear_321_26874)"/>
<path d="M237.928 370.201C243.531 374.447 244.649 382.226 240.505 387.813C236.361 393.401 228.374 394.565 222.77 390.319L114.671 321.741C114.817 320.899 125.447 299.915 146.639 311.722L237.928 370.201Z" fill="url(#paint2_linear_321_26874)"/>
<path d="M138.305 343.36C116.278 341.326 112.672 361.302 112.672 361.302L236.357 408.185C254.802 413.755 332.613 411.556 332.613 411.556L326.434 366.526L320.057 335.615L233.925 372.163C209.693 367.706 162.843 345.782 138.305 343.36Z" fill="url(#paint3_linear_321_26874)"/>
<path d="M320.057 335.615L326.434 366.526L332.613 411.556C332.613 411.556 361.849 436.457 400.987 513.484C440.126 590.51 472.583 707.355 472.583 707.355L579.441 574.853C579.441 574.853 398.801 370.284 382.592 355.235C366.383 340.185 338.923 329.391 320.057 335.615Z" fill="url(#paint4_linear_321_26874)"/>
<path d="M174.003 375.768L240.471 386.213C240.471 386.213 285.735 392.175 294.053 392.441C351.198 395.771 382.685 355.366 382.685 355.366C382.685 355.366 355.279 326.978 310.805 333.822C289.974 337.027 277.68 350.322 263.18 353.111C245.599 356.386 233.34 349.099 216.735 348.739C185.925 348.493 174.003 375.768 174.003 375.768Z" fill="url(#paint5_linear_321_26874)"/>
<path d="M222.704 242.419L241.393 224.16L260.513 168.953L227.131 179.65L230.481 209.252L219.138 231.291C216.276 239.11 222.704 242.419 222.704 242.419Z" fill="url(#paint6_linear_321_26874)"/>
<path d="M251.413 275.784L266.996 246.634L282.334 198.774L271.637 165.392L249.383 172.523L256.988 194.452L252.633 230.531L243.559 256.061C237.848 270.545 251.413 275.784 251.413 275.784Z" fill="url(#paint7_linear_321_26874)"/>
<path d="M308.16 202.762L293.897 158.252L260.515 168.949L282.34 198.766L285.69 228.367L274.347 250.407C266.549 265.559 281.479 272.661 281.479 272.661L307.73 239.71L308.16 202.762Z" fill="url(#paint8_linear_321_26874)"/>
<path d="M301.89 106.619C301.89 106.619 246.062 84.9277 191.692 49.9056C78.5977 -19.5236 12.4578 -108.518 12.4578 -108.518L-206.067 -18.0779L145.63 105.642C153.651 119.979 179.065 157.955 227.133 179.653C227.133 179.653 272.636 170.768 287.933 163.322L315.722 188.076L324.63 236.219C330.411 255.455 348.257 250.12 348.257 250.12L341.758 173.598L301.89 106.619Z" fill="url(#paint9_linear_321_26874)"/>
<path d="M301.883 106.631C301.883 106.631 246.056 84.9396 191.686 49.9174C102.312 -4.94939 215.124 70.6251 145.623 105.654C153.645 119.991 179.059 157.967 227.127 179.665C227.127 179.665 272.629 170.78 287.927 163.334L315.716 188.088L324.624 236.231C330.405 255.467 348.25 250.132 348.25 250.132L341.751 173.61L301.883 106.631Z" fill="url(#paint10_linear_321_26874)"/>
<path d="M215.653 201.925L336.09 283.042C344.418 288.645 355.781 286.452 361.389 278.129C366.998 269.807 364.804 258.453 356.476 252.85L236.039 171.733C227.711 166.13 216.348 168.323 210.74 176.646C205.131 184.968 207.325 196.322 215.653 201.925ZM338.166 277.558C332.783 273.09 331.951 265.083 336.422 259.703C340.894 254.324 348.908 253.491 354.291 257.959C359.674 262.427 360.507 270.434 356.035 275.813C351.563 281.193 343.549 282.025 338.166 277.558Z" fill="#FF5640"/>
<path d="M255.923 114.689C255.923 114.689 236.042 87.6295 222.527 77.8767C209.013 68.1238 194.738 71.3784 186.889 75.7017C166.893 85.7126 159.784 123.413 192.87 136C233.636 149.951 245.284 161.278 249.706 173.384C252.922 182.1 255.634 197.496 266.135 211.075C274.322 221.661 285.821 225.321 296.761 224.686L255.923 114.689Z" fill="url(#paint11_linear_321_26874)"/>
</g>
<defs>
<linearGradient id="paint0_linear_321_26874" x1="212.257" y1="325.499" x2="226.618" y2="306.174" gradientUnits="userSpaceOnUse">
<stop stop-color="#4C80A3"/>
<stop offset="1" stop-color="#68B2E5"/>
</linearGradient>
<linearGradient id="paint1_linear_321_26874" x1="168.126" y1="318.483" x2="182.251" y2="299.448" gradientUnits="userSpaceOnUse">
<stop stop-color="#4C80A3"/>
<stop offset="1" stop-color="#68B2E5"/>
</linearGradient>
<linearGradient id="paint2_linear_321_26874" x1="139.098" y1="327.414" x2="155.445" y2="305.678" gradientUnits="userSpaceOnUse">
<stop stop-color="#4C80A3"/>
<stop offset="1" stop-color="#68B2E5"/>
</linearGradient>
<linearGradient id="paint3_linear_321_26874" x1="297.412" y1="667.555" x2="279.006" y2="363.651" gradientUnits="userSpaceOnUse">
<stop stop-color="#192B37"/>
<stop offset="0.920448" stop-color="#68B2E5"/>
</linearGradient>
<linearGradient id="paint4_linear_321_26874" x1="297.412" y1="667.555" x2="279.006" y2="363.651" gradientUnits="userSpaceOnUse">
<stop stop-color="#192B37"/>
<stop offset="0.920448" stop-color="#68B2E5"/>
</linearGradient>
<linearGradient id="paint5_linear_321_26874" x1="50.8724" y1="171.969" x2="375.764" y2="193.573" gradientUnits="userSpaceOnUse">
<stop stop-color="white"/>
<stop offset="0.87471" stop-color="#68B2E5"/>
</linearGradient>
<linearGradient id="paint6_linear_321_26874" x1="253.606" y1="256.29" x2="226.962" y2="174.337" gradientUnits="userSpaceOnUse">
<stop stop-color="#192B37"/>
<stop offset="1" stop-color="#68B5E8"/>
</linearGradient>
<linearGradient id="paint7_linear_321_26874" x1="218.951" y1="326.447" x2="256.854" y2="179.343" gradientUnits="userSpaceOnUse">
<stop stop-color="#192B37"/>
<stop offset="0.920448" stop-color="#68B2E5"/>
</linearGradient>
<linearGradient id="paint8_linear_321_26874" x1="294.193" y1="132.851" x2="167.459" y2="426.196" gradientUnits="userSpaceOnUse">
<stop stop-color="#68B5E8"/>
<stop offset="0.920448" stop-color="#192B37"/>
</linearGradient>
<linearGradient id="paint9_linear_321_26874" x1="209.078" y1="207.373" x2="43.0136" y2="318.789" gradientUnits="userSpaceOnUse">
<stop stop-color="#68B5E8"/>
<stop offset="1" stop-color="#192B37"/>
</linearGradient>
<linearGradient id="paint10_linear_321_26874" x1="307.781" y1="36.4892" x2="437.176" y2="49.0827" gradientUnits="userSpaceOnUse">
<stop stop-color="#68B5E8"/>
<stop offset="1" stop-color="#192B37"/>
</linearGradient>
<linearGradient id="paint11_linear_321_26874" x1="357.947" y1="318.711" x2="162.763" y2="52.5218" gradientUnits="userSpaceOnUse">
<stop stop-color="white"/>
<stop offset="0.87471" stop-color="#68B2E5"/>
</linearGradient>
<clipPath id="clip0_321_26874">
<rect width="520" height="520" fill="white"/>
</clipPath>
</defs>
</svg>
