<svg width="520" height="520" viewBox="0 0 520 520" fill="none" xmlns="http://www.w3.org/2000/svg">
<g clip-path="url(#clip0_321_26882)">
<rect width="520" height="520" fill="#192B37"/>
<path d="M0.00024249 510.399L-0.000971977 0.301419C-0.00097451 -0.762242 0.861289 -1.62646 1.92495 -1.62886L306.682 -2.31741C307.745 -2.31982 308.608 -1.45949 308.608 -0.395833L308.608 315.967C308.608 316.626 308.271 317.24 307.715 317.594L2.95938 512.018C1.67721 512.836 0.000246107 511.919 0.00024249 510.399Z" fill="url(#paint0_linear_321_26882)"/>
<path d="M192.907 160.491L290.455 134.726L361.374 195.89L345.167 210.967L274.362 165.316C246.248 171.436 211.707 175.275 211.707 175.275C194.917 175.021 192.907 160.491 192.907 160.491Z" fill="url(#paint1_linear_321_26882)"/>
<path d="M278.651 245.791C281.078 242.597 286.701 231.825 280.262 220.022C273.535 207.78 260.884 207.394 260.884 207.394C254.534 221.487 225.72 253.218 209.217 229.894L229.929 206.626C220.039 216.515 205.744 225.885 192.066 210.896C192.066 210.896 215.16 184.624 229.825 173.355L296.894 170.136L330.158 201.792V247.934L278.651 245.791Z" fill="url(#paint2_linear_321_26882)"/>
<path d="M368.745 304.656C344.34 268.506 382.906 211.344 359.667 193.404L286.162 147.065L201.389 163.698C201.389 163.698 202.845 177.38 218.276 176.897C235.691 176.897 272.212 176.575 272.212 176.575L309.134 206.342C309.134 206.342 313.274 224.341 296.289 235.749C284.545 243.092 265.802 242.218 256.054 225.476C255.766 224.977 239.367 199.089 236.802 195.031C218.276 171.388 193.718 183.274 193.718 183.274L286.162 331.163L477.345 678.922L592.197 585.637L368.745 304.656Z" fill="url(#paint3_linear_321_26882)"/>
<path d="M150.956 154.581C151.493 152.435 167.589 154.581 167.589 154.581L414.066 249.161C414.066 249.161 421.169 251.609 418.901 259.283C415.471 267.119 408.099 263.891 408.099 263.891L162.223 165.848C162.223 165.848 150.42 156.727 150.956 154.581Z" fill="#FF5640"/>
<path d="M236.804 195.035C218.277 171.392 193.72 183.278 193.72 183.278L286.163 331.167L256.055 225.48C255.768 224.981 239.368 199.093 236.804 195.035Z" fill="url(#paint4_linear_321_26882)"/>
</g>
<defs>
<linearGradient id="paint0_linear_321_26882" x1="418.592" y1="301.61" x2="291.583" y2="-137.053" gradientUnits="userSpaceOnUse">
<stop stop-color="#192B37"/>
<stop offset="1" stop-color="#68B5E8"/>
</linearGradient>
<linearGradient id="paint1_linear_321_26882" x1="256.825" y1="279.088" x2="393.061" y2="183.798" gradientUnits="userSpaceOnUse">
<stop stop-color="#68B2E5"/>
<stop offset="1" stop-color="#192B37"/>
</linearGradient>
<linearGradient id="paint2_linear_321_26882" x1="389.184" y1="170.136" x2="189.76" y2="312.957" gradientUnits="userSpaceOnUse">
<stop stop-color="#68B2E5"/>
<stop offset="1" stop-color="#192B37"/>
</linearGradient>
<linearGradient id="paint3_linear_321_26882" x1="244.903" y1="216.866" x2="552.23" y2="534.237" gradientUnits="userSpaceOnUse">
<stop stop-color="#68B2E5"/>
<stop offset="1" stop-color="#192B37"/>
</linearGradient>
<linearGradient id="paint4_linear_321_26882" x1="244.904" y1="216.873" x2="552.231" y2="534.243" gradientUnits="userSpaceOnUse">
<stop stop-color="#68B2E5"/>
<stop offset="1" stop-color="#192B37"/>
</linearGradient>
<clipPath id="clip0_321_26882">
<rect width="520" height="520" fill="white"/>
</clipPath>
</defs>
</svg>
