<svg width="520" height="520" viewBox="0 0 520 520" fill="none" xmlns="http://www.w3.org/2000/svg">
<g clip-path="url(#clip0_321_26877)">
<rect width="520" height="520" fill="#192B37"/>
<path d="M230.804 388.772L291.233 140.784" stroke="#FF5640" stroke-width="6" stroke-linecap="round" stroke-linejoin="round"/>
<path d="M351.725 603.166L226.237 325.462" stroke="#FF5640" stroke-width="6" stroke-linecap="round" stroke-linejoin="round"/>
<path d="M-73.5253 577.418C-73.5253 577.418 -178.355 426.339 -81.6776 425.67C15 425 111.417 423.435 111.417 423.435C111.417 423.435 145.345 414.759 158.017 380.483L176.315 328.128L285.12 322.318C285.12 322.318 292.226 342.968 279.765 372.174C267.305 401.38 276.002 423.449 276.002 423.449C276.002 423.449 264.993 435.963 210.752 470.405L-73.5253 577.418Z" fill="url(#paint0_linear_321_26877)"/>
<path d="M626.954 -11.9904C626.954 -11.9904 708.879 140.155 612.439 139.282C516 138.408 437.723 111.601 421.161 112.764C421.161 112.764 386.32 116.296 368.69 148.305L342.806 197.355L234.348 186.913C234.348 186.913 230.393 165.435 247.06 138.408C263.727 111.381 258.41 88.264 258.41 88.264C258.41 88.264 271.158 77.5273 329.919 51.538L626.954 -11.9904Z" fill="url(#paint1_linear_321_26877)"/>
<path d="M282.951 356.095C282.951 356.095 253.108 369.205 211.747 372.916C170.386 376.627 160.945 368.619 160.945 368.619" stroke="#FF5640" stroke-width="6" stroke-linecap="round" stroke-linejoin="round"/>
<path d="M225.361 395.335C196.846 432.216 210.581 470.83 210.581 470.83C226.574 466.101 266.921 449.949 292.721 400.955L340.398 298.794C340.436 298.817 340.456 298.829 340.456 298.829L340.43 298.724L340.398 298.794C339.18 298.076 319.018 286.658 303.433 308.366C293.803 323.759 273.549 353.564 264.897 367.947C250.623 371.367 236.632 380.768 225.361 395.335Z" fill="url(#paint2_linear_321_26877)"/>
<path d="M225.361 395.335C196.846 432.216 210.581 470.83 210.581 470.83C226.574 466.101 266.921 449.949 292.721 400.955L340.398 298.794C340.436 298.817 340.456 298.829 340.456 298.829L340.43 298.724L340.398 298.794C339.18 298.076 319.018 286.658 303.433 308.366C293.803 323.759 273.549 353.564 264.897 367.947C250.623 371.367 236.632 380.768 225.361 395.335Z" fill="url(#paint3_linear_321_26877)"/>
<path d="M304.3 123.593C337.984 91.3651 330.147 51.1373 330.147 51.1373C313.628 53.434 271.327 63.4038 238.525 108.014L176.18 201.945C176.145 201.917 176.128 201.903 176.128 201.903L176.137 202.01L176.18 201.945C177.277 202.836 195.516 217.127 214.157 197.98C225.97 184.19 250.433 157.73 261.128 144.795C275.753 143.536 290.987 136.321 304.3 123.593Z" fill="url(#paint4_linear_321_26877)"/>
<path d="M304.3 123.593C337.984 91.3651 330.147 51.1373 330.147 51.1373C313.628 53.434 271.327 63.4038 238.525 108.014L176.18 201.945C176.145 201.917 176.128 201.903 176.128 201.903L176.137 202.01L176.18 201.945C177.277 202.836 195.516 217.127 214.157 197.98C225.97 184.19 250.433 157.73 261.128 144.795C275.753 143.536 290.987 136.321 304.3 123.593Z" fill="url(#paint5_linear_321_26877)"/>
<g filter="url(#filter0_i_321_26877)">
<path d="M200.755 330.933C200.439 323.092 196.567 315.912 187.418 316.281C178.27 316.65 174.954 326.302 175.182 331.965L178.033 374.401C181.12 402.192 198.178 395.783 198.178 395.783L200.755 330.933Z" fill="url(#paint6_linear_321_26877)"/>
</g>
<g filter="url(#filter1_i_321_26877)">
<path d="M286.422 334.837C289.525 326.389 288.57 317.083 278.714 313.463C268.858 309.843 261.112 318.616 258.871 324.718L242 369.232C237.668 390.463 257.344 392.896 257.344 392.896L286.422 334.837Z" fill="url(#paint7_linear_321_26877)"/>
</g>
<g filter="url(#filter2_i_321_26877)">
<path d="M234.93 174.33C230.605 182.222 230.164 191.567 239.372 196.613C248.579 201.66 257.545 194.136 260.669 188.436L283.975 146.927C291.417 126.577 272.322 121.244 272.322 121.244L234.93 174.33Z" fill="url(#paint8_linear_321_26877)"/>
</g>
<g filter="url(#filter3_i_321_26877)">
<path d="M259.326 326.031C261.16 317.22 258.855 308.154 248.575 306.014C238.296 303.874 231.916 313.686 230.591 320.05L222.691 369.929C220.868 389.604 238.87 391.494 238.87 391.494L259.326 326.031Z" fill="url(#paint9_linear_321_26877)"/>
</g>
<g filter="url(#filter4_i_321_26877)">
<path d="M260.415 187.076C257.291 195.516 258.221 204.825 268.068 208.47C277.915 212.115 285.684 203.362 287.94 197.266L303.173 149.117C307.904 129.932 290.383 125.385 290.383 125.385L260.415 187.076Z" fill="url(#paint10_linear_321_26877)"/>
</g>
<g filter="url(#filter5_i_321_26877)">
<path d="M229.565 326.232C230.216 317.255 226.73 308.574 216.257 307.815C205.785 307.056 200.761 317.627 200.291 324.11L198.834 378.897C199.685 397.839 216.589 398.625 219.163 397.924L229.565 326.232Z" fill="url(#paint11_linear_321_26877)"/>
</g>
<path d="M476.323 465.13L300.978 59.7438" stroke="#FF5640" stroke-width="6" stroke-linecap="round" stroke-linejoin="round"/>
<g filter="url(#filter6_i_321_26877)">
<path d="M319.059 190.944C318.205 198.745 320.965 206.421 330.067 207.417C339.168 208.414 343.884 199.363 344.5 193.728L347.995 151.341C349.076 123.399 331.255 127.199 331.255 127.199L319.059 190.944Z" fill="url(#paint12_linear_321_26877)"/>
</g>
<g filter="url(#filter7_i_321_26877)">
<path d="M289.869 191.305C287.89 200.085 290.046 209.188 300.289 211.497C310.532 213.806 317.072 204.1 318.502 197.759L328.094 143.798C330.07 124.941 313.472 121.649 310.822 121.958L289.869 191.305Z" fill="url(#paint13_linear_321_26877)"/>
</g>
</g>
<defs>
<filter id="filter0_i_321_26877" x="175.171" y="312.267" width="26.584" height="84.1543" filterUnits="userSpaceOnUse" color-interpolation-filters="sRGB">
<feFlood flood-opacity="0" result="BackgroundImageFix"/>
<feBlend mode="normal" in="SourceGraphic" in2="BackgroundImageFix" result="shape"/>
<feColorMatrix in="SourceAlpha" type="matrix" values="0 0 0 0 0 0 0 0 0 0 0 0 0 0 0 0 0 0 127 0" result="hardAlpha"/>
<feOffset dx="1" dy="-4"/>
<feGaussianBlur stdDeviation="4.5"/>
<feComposite in2="hardAlpha" operator="arithmetic" k2="-1" k3="1"/>
<feColorMatrix type="matrix" values="0 0 0 0 0.0980392 0 0 0 0 0.168627 0 0 0 0 0.215686 0 0 0 0.2 0"/>
<feBlend mode="normal" in2="shape" result="effect1_innerShadow_321_26877"/>
</filter>
<filter id="filter1_i_321_26877" x="241.377" y="308.615" width="47.6187" height="84.2808" filterUnits="userSpaceOnUse" color-interpolation-filters="sRGB">
<feFlood flood-opacity="0" result="BackgroundImageFix"/>
<feBlend mode="normal" in="SourceGraphic" in2="BackgroundImageFix" result="shape"/>
<feColorMatrix in="SourceAlpha" type="matrix" values="0 0 0 0 0 0 0 0 0 0 0 0 0 0 0 0 0 0 127 0" result="hardAlpha"/>
<feOffset dx="1" dy="-4"/>
<feGaussianBlur stdDeviation="4.5"/>
<feComposite in2="hardAlpha" operator="arithmetic" k2="-1" k3="1"/>
<feColorMatrix type="matrix" values="0 0 0 0 0.0980392 0 0 0 0 0.168627 0 0 0 0 0.215686 0 0 0 0.2 0"/>
<feBlend mode="normal" in2="shape" result="effect1_innerShadow_321_26877"/>
</filter>
<filter id="filter2_i_321_26877" x="231.962" y="117.244" width="54.7339" height="81.0322" filterUnits="userSpaceOnUse" color-interpolation-filters="sRGB">
<feFlood flood-opacity="0" result="BackgroundImageFix"/>
<feBlend mode="normal" in="SourceGraphic" in2="BackgroundImageFix" result="shape"/>
<feColorMatrix in="SourceAlpha" type="matrix" values="0 0 0 0 0 0 0 0 0 0 0 0 0 0 0 0 0 0 127 0" result="hardAlpha"/>
<feOffset dx="1" dy="-4"/>
<feGaussianBlur stdDeviation="4.5"/>
<feComposite in2="hardAlpha" operator="arithmetic" k2="-1" k3="1"/>
<feColorMatrix type="matrix" values="0 0 0 0 0.0980392 0 0 0 0 0.168627 0 0 0 0 0.215686 0 0 0 0.2 0"/>
<feBlend mode="normal" in2="shape" result="effect1_innerShadow_321_26877"/>
</filter>
<filter id="filter3_i_321_26877" x="222.562" y="301.714" width="38.3379" height="89.7798" filterUnits="userSpaceOnUse" color-interpolation-filters="sRGB">
<feFlood flood-opacity="0" result="BackgroundImageFix"/>
<feBlend mode="normal" in="SourceGraphic" in2="BackgroundImageFix" result="shape"/>
<feColorMatrix in="SourceAlpha" type="matrix" values="0 0 0 0 0 0 0 0 0 0 0 0 0 0 0 0 0 0 127 0" result="hardAlpha"/>
<feOffset dx="1" dy="-4"/>
<feGaussianBlur stdDeviation="4.5"/>
<feComposite in2="hardAlpha" operator="arithmetic" k2="-1" k3="1"/>
<feColorMatrix type="matrix" values="0 0 0 0 0.0980392 0 0 0 0 0.168627 0 0 0 0 0.215686 0 0 0 0.2 0"/>
<feBlend mode="normal" in2="shape" result="effect1_innerShadow_321_26877"/>
</filter>
<filter id="filter4_i_321_26877" x="258.821" y="121.385" width="46.1631" height="87.9451" filterUnits="userSpaceOnUse" color-interpolation-filters="sRGB">
<feFlood flood-opacity="0" result="BackgroundImageFix"/>
<feBlend mode="normal" in="SourceGraphic" in2="BackgroundImageFix" result="shape"/>
<feColorMatrix in="SourceAlpha" type="matrix" values="0 0 0 0 0 0 0 0 0 0 0 0 0 0 0 0 0 0 127 0" result="hardAlpha"/>
<feOffset dx="1" dy="-4"/>
<feGaussianBlur stdDeviation="4.5"/>
<feComposite in2="hardAlpha" operator="arithmetic" k2="-1" k3="1"/>
<feColorMatrix type="matrix" values="0 0 0 0 0.0980392 0 0 0 0 0.168627 0 0 0 0 0.215686 0 0 0 0.2 0"/>
<feBlend mode="normal" in2="shape" result="effect1_innerShadow_321_26877"/>
</filter>
<filter id="filter5_i_321_26877" x="198.833" y="303.776" width="31.8071" height="94.3096" filterUnits="userSpaceOnUse" color-interpolation-filters="sRGB">
<feFlood flood-opacity="0" result="BackgroundImageFix"/>
<feBlend mode="normal" in="SourceGraphic" in2="BackgroundImageFix" result="shape"/>
<feColorMatrix in="SourceAlpha" type="matrix" values="0 0 0 0 0 0 0 0 0 0 0 0 0 0 0 0 0 0 127 0" result="hardAlpha"/>
<feOffset dx="1" dy="-4"/>
<feGaussianBlur stdDeviation="4.5"/>
<feComposite in2="hardAlpha" operator="arithmetic" k2="-1" k3="1"/>
<feColorMatrix type="matrix" values="0 0 0 0 0.0980392 0 0 0 0 0.168627 0 0 0 0 0.215686 0 0 0 0.2 0"/>
<feBlend mode="normal" in2="shape" result="effect1_innerShadow_321_26877"/>
</filter>
<filter id="filter6_i_321_26877" x="318.912" y="123.026" width="30.1304" height="84.4675" filterUnits="userSpaceOnUse" color-interpolation-filters="sRGB">
<feFlood flood-opacity="0" result="BackgroundImageFix"/>
<feBlend mode="normal" in="SourceGraphic" in2="BackgroundImageFix" result="shape"/>
<feColorMatrix in="SourceAlpha" type="matrix" values="0 0 0 0 0 0 0 0 0 0 0 0 0 0 0 0 0 0 127 0" result="hardAlpha"/>
<feOffset dx="1" dy="-4"/>
<feGaussianBlur stdDeviation="4.5"/>
<feComposite in2="hardAlpha" operator="arithmetic" k2="-1" k3="1"/>
<feColorMatrix type="matrix" values="0 0 0 0 0.0980392 0 0 0 0 0.168627 0 0 0 0 0.215686 0 0 0 0.2 0"/>
<feBlend mode="normal" in2="shape" result="effect1_innerShadow_321_26877"/>
</filter>
<filter id="filter7_i_321_26877" x="289.206" y="117.939" width="40.0513" height="93.9053" filterUnits="userSpaceOnUse" color-interpolation-filters="sRGB">
<feFlood flood-opacity="0" result="BackgroundImageFix"/>
<feBlend mode="normal" in="SourceGraphic" in2="BackgroundImageFix" result="shape"/>
<feColorMatrix in="SourceAlpha" type="matrix" values="0 0 0 0 0 0 0 0 0 0 0 0 0 0 0 0 0 0 127 0" result="hardAlpha"/>
<feOffset dx="1" dy="-4"/>
<feGaussianBlur stdDeviation="4.5"/>
<feComposite in2="hardAlpha" operator="arithmetic" k2="-1" k3="1"/>
<feColorMatrix type="matrix" values="0 0 0 0 0.0980392 0 0 0 0 0.168627 0 0 0 0 0.215686 0 0 0 0.2 0"/>
<feBlend mode="normal" in2="shape" result="effect1_innerShadow_321_26877"/>
</filter>
<linearGradient id="paint0_linear_321_26877" x1="153.602" y1="431.149" x2="-102.75" y2="575.716" gradientUnits="userSpaceOnUse">
<stop stop-color="#68B5E8"/>
<stop offset="1" stop-color="#192B37"/>
</linearGradient>
<linearGradient id="paint1_linear_321_26877" x1="380.594" y1="98.8596" x2="655.6" y2="-5.96011" gradientUnits="userSpaceOnUse">
<stop stop-color="#68B5E8"/>
<stop offset="1" stop-color="#192B37"/>
</linearGradient>
<linearGradient id="paint2_linear_321_26877" x1="409.73" y1="475.12" x2="213.854" y2="265.388" gradientUnits="userSpaceOnUse">
<stop offset="0.303531" stop-color="white"/>
<stop offset="0.654942" stop-color="#68B2E5"/>
<stop offset="0.87471" stop-color="#68B2E5"/>
</linearGradient>
<linearGradient id="paint3_linear_321_26877" x1="237.439" y1="210.636" x2="371.999" y2="431.011" gradientUnits="userSpaceOnUse">
<stop stop-color="#192B37"/>
<stop stop-color="#233C4D"/>
<stop offset="0.78206" stop-color="#68B2E5"/>
</linearGradient>
<linearGradient id="paint4_linear_321_26877" x1="133.852" y1="17.2663" x2="296.345" y2="253.807" gradientUnits="userSpaceOnUse">
<stop offset="0.303531" stop-color="white"/>
<stop offset="0.654942" stop-color="#68B2E5"/>
<stop offset="0.87471" stop-color="#68B2E5"/>
</linearGradient>
<linearGradient id="paint5_linear_321_26877" x1="264.877" y1="304.44" x2="164.6" y2="66.4986" gradientUnits="userSpaceOnUse">
<stop stop-color="#192B37"/>
<stop stop-color="#233C4D"/>
<stop offset="0.78206" stop-color="#68B2E5"/>
</linearGradient>
<linearGradient id="paint6_linear_321_26877" x1="233.376" y1="324.736" x2="165.245" y2="321.264" gradientUnits="userSpaceOnUse">
<stop offset="0.303531" stop-color="white"/>
<stop offset="0.654942" stop-color="#68B2E5"/>
<stop offset="0.87471" stop-color="#68B2E5"/>
</linearGradient>
<linearGradient id="paint7_linear_321_26877" x1="324.729" y1="341.608" x2="253.4" y2="306.644" gradientUnits="userSpaceOnUse">
<stop offset="0.303531" stop-color="white"/>
<stop offset="0.654942" stop-color="#68B2E5"/>
<stop offset="0.87471" stop-color="#68B2E5"/>
</linearGradient>
<linearGradient id="paint8_linear_321_26877" x1="198.057" y1="161.936" x2="263.39" y2="207.122" gradientUnits="userSpaceOnUse">
<stop offset="0.303531" stop-color="white"/>
<stop offset="0.654942" stop-color="#68B2E5"/>
<stop offset="0.87471" stop-color="#68B2E5"/>
</linearGradient>
<linearGradient id="paint9_linear_321_26877" x1="297.51" y1="327.423" x2="222.895" y2="304.074" gradientUnits="userSpaceOnUse">
<stop offset="0.303531" stop-color="white"/>
<stop offset="0.654942" stop-color="#68B2E5"/>
<stop offset="0.87471" stop-color="#68B2E5"/>
</linearGradient>
<linearGradient id="paint10_linear_321_26877" x1="222.864" y1="180.019" x2="293.174" y2="214.209" gradientUnits="userSpaceOnUse">
<stop offset="0.303531" stop-color="white"/>
<stop offset="0.654942" stop-color="#68B2E5"/>
<stop offset="0.87471" stop-color="#68B2E5"/>
</linearGradient>
<linearGradient id="paint11_linear_321_26877" x1="267.557" y1="323.1" x2="190.412" y2="310.193" gradientUnits="userSpaceOnUse">
<stop offset="0.303531" stop-color="white"/>
<stop offset="0.654942" stop-color="#68B2E5"/>
<stop offset="0.87471" stop-color="#68B2E5"/>
</linearGradient>
<linearGradient id="paint12_linear_321_26877" x1="285.879" y1="192.219" x2="352.735" y2="205.788" gradientUnits="userSpaceOnUse">
<stop offset="0.303531" stop-color="white"/>
<stop offset="0.654942" stop-color="#68B2E5"/>
<stop offset="0.87471" stop-color="#68B2E5"/>
</linearGradient>
<linearGradient id="paint13_linear_321_26877" x1="251.834" y1="188.75" x2="326.201" y2="212.991" gradientUnits="userSpaceOnUse">
<stop offset="0.303531" stop-color="white"/>
<stop offset="0.654942" stop-color="#68B2E5"/>
<stop offset="0.87471" stop-color="#68B2E5"/>
</linearGradient>
<clipPath id="clip0_321_26877">
<rect width="520" height="520" fill="white"/>
</clipPath>
</defs>
</svg>
