<svg width="520" height="520" viewBox="0 0 520 520" fill="none" xmlns="http://www.w3.org/2000/svg">
<g clip-path="url(#clip0_321_26879)">
<rect width="520" height="520" fill="#192B37"/>
<path opacity="0.4" d="M268.859 457.171C199.069 455.683 143.701 397.84 145.191 327.973C146.68 258.107 204.463 202.676 274.253 204.163C344.043 205.651 399.411 263.495 397.922 333.361C396.432 403.228 338.649 458.659 268.859 457.171Z" fill="url(#paint0_radial_321_26879)"/>
<path d="M232.447 378.186C225.761 380.252 221.946 386.528 223.765 392.384C225.584 398.239 232.529 401.399 239.215 399.333L363.207 365.9C363.207 365.9 358.147 349.515 340.412 352.33L232.357 378.14L232.447 378.186Z" fill="url(#paint1_linear_321_26879)"/>
<path d="M276.243 386.635C269.556 388.697 265.72 394.896 267.516 400.659C269.311 406.422 276.238 409.51 282.925 407.449L402.49 378.478C402.49 378.478 398.812 358.849 378.702 361.943L276.153 386.591L276.243 386.635Z" fill="url(#paint2_linear_321_26879)"/>
<path d="M299.847 402.227C293.172 404.335 289.522 411.257 291.54 417.882C293.558 424.508 300.659 428.271 307.333 426.163L431.641 398C431.785 397.162 428.833 373.928 405.012 377.914L299.847 402.227Z" fill="url(#paint3_linear_321_26879)"/>
<path d="M402.242 410.381C423.579 415.839 420.28 435.777 420.28 435.777L288.612 438.383C269.451 437.439 197.217 409.356 197.217 409.356L218.069 369.193L234.387 342.338L302.938 405.415C327.153 409.339 378.42 404.446 402.242 410.381Z" fill="url(#paint4_linear_321_26879)"/>
<path d="M234.387 342.338L218.069 369.193L197.217 409.356C197.217 409.356 161.473 422.931 99.0106 482.078C36.5484 541.224 0.326677 602.567 0.326677 602.567L-67.5527 459.45C-67.5527 459.45 148.947 348.518 169.181 339.825C189.414 331.132 218.776 330.192 234.387 342.338Z" fill="url(#paint5_linear_321_26879)"/>
<path d="M280.432 377.316C261.314 378.659 244.726 364.232 243.382 345.093C242.038 325.954 256.447 309.351 275.565 308.008C294.683 306.666 311.27 321.092 312.614 340.231C313.958 359.37 299.55 375.973 280.432 377.316Z" fill="#FF5640"/>
<path d="M357.929 428.831L292.103 416.398C292.103 416.398 247.662 406.853 239.772 404.321C185.069 388.335 169.053 339.913 169.053 339.913C169.053 339.913 204.246 322.456 243.665 343.747C262.128 353.719 269.212 370.297 281.877 377.761C297.268 386.713 311.202 383.979 326.894 389.193C355.87 399.265 357.929 428.831 357.929 428.831Z" fill="url(#paint6_linear_321_26879)"/>
<path d="M234.449 149.221C227.838 146.927 224.24 140.523 226.259 134.734C228.278 128.944 235.328 126.024 241.939 128.318L364.711 165.985C364.711 165.985 359.092 182.186 341.464 178.766L234.358 149.264L234.449 149.221Z" fill="url(#paint7_linear_321_26879)"/>
<path d="M278.514 142.283C271.902 139.993 268.282 133.666 270.274 127.968C272.266 122.27 279.294 119.421 285.906 121.711L404.408 154.766C404.408 154.766 400.058 174.257 380.066 170.475L278.424 142.324L278.514 142.283Z" fill="url(#paint8_linear_321_26879)"/>
<path d="M302.634 127.505C296.036 125.169 292.625 118.126 294.869 111.574C297.113 105.021 304.339 101.504 310.937 103.84L434.205 136.25C434.321 137.093 430.574 160.211 406.903 155.411L302.634 127.505Z" fill="url(#paint9_linear_321_26879)"/>
<path d="M405.248 122.869C426.76 118.146 424.148 98.1059 424.148 98.1059L292.646 90.9849C273.464 91.2715 200.309 116.86 200.309 116.86L219.772 157.714L235.158 185.113L305.833 124.425C330.169 121.334 381.237 127.983 405.248 122.869Z" fill="url(#paint10_linear_321_26879)"/>
<path d="M235.158 185.113L219.772 157.714L200.309 116.86C200.309 116.86 165.052 102.067 104.655 40.8123C44.2588 -20.4421 10.1627 -82.9913 10.1627 -82.9913L-62.5861 57.7134C-62.5861 57.7134 149.981 176.006 169.904 185.388C189.827 194.77 219.14 196.717 235.158 185.113Z" fill="url(#paint11_linear_321_26879)"/>
<path d="M361.599 102.907L295.385 113.074C295.385 113.074 250.643 121.089 242.67 123.349C187.451 137.449 169.783 185.293 169.783 185.293C169.783 185.293 204.357 203.947 244.483 184.021C263.277 174.688 270.926 158.363 283.839 151.337C299.529 142.919 313.36 146.13 329.222 141.456C358.526 132.384 361.599 102.907 361.599 102.907Z" fill="url(#paint12_linear_321_26879)"/>
</g>
<defs>
<radialGradient id="paint0_radial_321_26879" cx="0" cy="0" r="1" gradientUnits="userSpaceOnUse" gradientTransform="translate(271.556 330.667) rotate(82.6957) scale(124.32 124.184)">
<stop stop-color="#FF5640"/>
<stop offset="1" stop-color="#FF5640" stop-opacity="0"/>
</radialGradient>
<linearGradient id="paint1_linear_321_26879" x1="338.864" y1="368.9" x2="331.859" y2="345.975" gradientUnits="userSpaceOnUse">
<stop stop-color="#4C80A3"/>
<stop offset="1" stop-color="#68B2E5"/>
</linearGradient>
<linearGradient id="paint2_linear_321_26879" x1="382.591" y1="377.083" x2="375.711" y2="354.51" gradientUnits="userSpaceOnUse">
<stop stop-color="#4C80A3"/>
<stop offset="1" stop-color="#68B2E5"/>
</linearGradient>
<linearGradient id="paint3_linear_321_26879" x1="406.836" y1="395.151" x2="398.775" y2="369.301" gradientUnits="userSpaceOnUse">
<stop stop-color="#4C80A3"/>
<stop offset="1" stop-color="#68B2E5"/>
</linearGradient>
<linearGradient id="paint4_linear_321_26879" x1="24.2532" y1="663.986" x2="275.753" y2="373.085" gradientUnits="userSpaceOnUse">
<stop stop-color="#192B37"/>
<stop offset="0.920448" stop-color="#68B2E5"/>
</linearGradient>
<linearGradient id="paint5_linear_321_26879" x1="24.2532" y1="663.986" x2="275.753" y2="373.085" gradientUnits="userSpaceOnUse">
<stop stop-color="#192B37"/>
<stop offset="0.920448" stop-color="#68B2E5"/>
</linearGradient>
<linearGradient id="paint6_linear_321_26879" x1="541.551" y1="278.886" x2="229.647" y2="190.5" gradientUnits="userSpaceOnUse">
<stop stop-color="white"/>
<stop offset="0.87471" stop-color="#68B2E5"/>
</linearGradient>
<linearGradient id="paint7_linear_321_26879" x1="340.485" y1="162.152" x2="332.698" y2="184.823" gradientUnits="userSpaceOnUse">
<stop stop-color="#4C80A3"/>
<stop offset="1" stop-color="#68B2E5"/>
</linearGradient>
<linearGradient id="paint8_linear_321_26879" x1="384.473" y1="155.477" x2="376.822" y2="177.801" gradientUnits="userSpaceOnUse">
<stop stop-color="#4C80A3"/>
<stop offset="1" stop-color="#68B2E5"/>
</linearGradient>
<linearGradient id="paint9_linear_321_26879" x1="409.318" y1="138.247" x2="400.374" y2="163.805" gradientUnits="userSpaceOnUse">
<stop stop-color="#4C80A3"/>
<stop offset="1" stop-color="#68B2E5"/>
</linearGradient>
<linearGradient id="paint10_linear_321_26879" x1="36.182" y1="-143.554" x2="277.555" y2="155.803" gradientUnits="userSpaceOnUse">
<stop stop-color="#192B37"/>
<stop offset="0.920448" stop-color="#68B2E5"/>
</linearGradient>
<linearGradient id="paint11_linear_321_26879" x1="36.182" y1="-143.554" x2="277.555" y2="155.803" gradientUnits="userSpaceOnUse">
<stop stop-color="#192B37"/>
<stop offset="0.920448" stop-color="#68B2E5"/>
</linearGradient>
<linearGradient id="paint12_linear_321_26879" x1="539.969" y1="259.062" x2="225.216" y2="336.697" gradientUnits="userSpaceOnUse">
<stop stop-color="white"/>
<stop offset="0.87471" stop-color="#68B2E5"/>
</linearGradient>
<clipPath id="clip0_321_26879">
<rect width="520" height="520" fill="white"/>
</clipPath>
</defs>
</svg>
