<svg width="520" height="520" viewBox="0 0 520 520" fill="none" xmlns="http://www.w3.org/2000/svg">
<rect width="520" height="520" fill="#192B37"/>
<path d="M259.991 259.605L130.101 184.637V334.605L259.991 409.543V259.605Z" fill="url(#paint0_linear_321_28023)"/>
<path d="M259.991 259.613L390.031 184.5L389.886 334.484L259.991 409.453V259.613Z" fill="url(#paint1_linear_321_28023)"/>
<path d="M260.094 109.5L129.969 184.438L259.998 259.609L389.844 184.562L260.094 109.5Z" fill="#68B5E8"/>
<path d="M225.517 332.827C236.134 338.934 238.847 350.734 238.877 355.87C238.877 360.981 236.205 369.676 225.517 363.568C214.83 357.461 212.217 345.584 212.247 340.41C212.247 335.337 214.901 326.719 225.517 332.827Z" fill="#192B37"/>
<path d="M294.402 332.827C283.785 338.934 281.072 350.734 281.042 355.87C281.042 360.981 283.714 369.676 294.402 363.568C305.089 357.461 307.702 345.584 307.672 340.41C307.672 335.337 305.018 326.719 294.402 332.827Z" fill="#192B37"/>
<path d="M355.573 233.165C344.957 239.272 342.244 251.071 342.214 256.208C342.214 261.319 344.886 270.013 355.573 263.906C366.261 257.799 368.873 245.922 368.843 240.747C368.843 235.675 366.189 227.057 355.573 233.165Z" fill="#192B37"/>
<path d="M162.484 233.165C173.1 239.272 175.814 251.071 175.844 256.208C175.844 261.319 173.172 270.013 162.484 263.906C151.796 257.799 149.184 245.922 149.214 240.747C149.214 235.675 151.868 227.057 162.484 233.165Z" fill="#192B37"/>
<path d="M325.056 281.725C314.44 287.832 311.726 299.632 311.696 304.768C311.696 309.879 314.368 318.574 325.056 312.467C335.744 306.359 338.356 294.483 338.326 289.308C338.326 284.236 335.672 275.618 325.056 281.725Z" fill="#192B37"/>
<path d="M249.934 191.964C260.531 198.104 272.106 194.554 276.57 192.012C280.996 189.457 287.19 182.795 276.557 176.593C265.924 170.391 254.332 174.067 249.866 176.68C245.473 179.216 239.336 185.824 249.934 191.964Z" fill="#192B37"/>
<defs>
<linearGradient id="paint0_linear_321_28023" x1="298.5" y1="236.5" x2="130.014" y2="335.854" gradientUnits="userSpaceOnUse">
<stop offset="0.120243" stop-color="#68B5E8"/>
<stop offset="1" stop-color="#192B37"/>
</linearGradient>
<linearGradient id="paint1_linear_321_28023" x1="259.991" y1="258.5" x2="398.542" y2="350.5" gradientUnits="userSpaceOnUse">
<stop stop-color="#68B5E8"/>
<stop offset="1" stop-color="#192B37"/>
</linearGradient>
</defs>
</svg>
