<svg width="520" height="520" viewBox="0 0 520 520" fill="none" xmlns="http://www.w3.org/2000/svg">
<rect width="520" height="520" fill="#192B37"/>
<path d="M374.606 429.578C398.266 421.97 414.893 407.866 411.745 398.076C408.597 388.287 386.865 386.518 363.206 394.127C339.546 401.735 322.918 415.839 326.066 425.629C329.215 435.418 350.947 437.187 374.606 429.578Z" fill="url(#paint0_linear_321_27443)"/>
<path d="M344.882 320.811L373.666 410.321L373.665 410.321L373.692 410.425C373.898 411.507 372.085 413.003 369.539 413.822C366.993 414.641 364.648 414.482 364.185 413.483L364.146 413.382L335.361 323.873L344.882 320.811Z" fill="url(#paint1_linear_321_27443)"/>
<path d="M327.98 134.966L369.937 265.438C370.182 266.089 370.415 266.75 370.63 267.419C378.089 290.614 364.59 315.702 340.479 323.456C316.368 331.209 290.775 318.692 283.316 295.498C283.305 295.464 283.295 295.43 283.284 295.396L283.283 295.397L240.716 163.029L327.98 134.966Z" fill="url(#paint2_linear_321_27443)"/>
<path d="M146.672 374.341C122.32 369.373 104.246 357.178 106.302 347.102C108.358 337.026 129.765 332.886 154.116 337.854C178.467 342.822 196.541 355.018 194.485 365.093C192.43 375.169 171.023 379.31 146.672 374.341Z" fill="url(#paint3_linear_321_27443)"/>
<path d="M164.289 262.971L145.493 355.098L145.494 355.098L145.48 355.204C145.393 356.302 147.359 357.59 149.98 358.125C152.6 358.66 154.914 358.245 155.264 357.201L155.292 357.097L174.088 264.97L164.289 262.971Z" fill="url(#paint4_linear_321_27443)"/>
<path d="M160.71 76.3935L133.313 210.679C133.141 211.353 132.982 212.036 132.842 212.725C127.971 236.597 144.14 260.054 168.956 265.117C193.771 270.18 217.837 254.932 222.708 231.059C222.715 231.025 222.721 230.99 222.728 230.955L222.729 230.955L250.525 94.7178L160.71 76.3935Z" fill="url(#paint5_linear_321_27443)"/>
<defs>
<linearGradient id="paint0_linear_321_27443" x1="326.972" y1="392.296" x2="417.445" y2="411.853" gradientUnits="userSpaceOnUse">
<stop stop-color="#192B37"/>
<stop offset="1" stop-color="#68B5E8"/>
</linearGradient>
<linearGradient id="paint1_linear_321_27443" x1="335.361" y1="320.811" x2="389.97" y2="450.296" gradientUnits="userSpaceOnUse">
<stop stop-color="#192B37"/>
<stop offset="1" stop-color="#68B5E8"/>
</linearGradient>
<linearGradient id="paint2_linear_321_27443" x1="229.97" y1="168.296" x2="404.97" y2="367.296" gradientUnits="userSpaceOnUse">
<stop offset="0.0807199" stop-color="#192B37"/>
<stop offset="1" stop-color="#68B5E8"/>
</linearGradient>
<linearGradient id="paint3_linear_321_27443" x1="192.969" y1="383.337" x2="117.969" y2="339.296" gradientUnits="userSpaceOnUse">
<stop stop-color="#192B37"/>
<stop offset="1" stop-color="#68B5E8"/>
</linearGradient>
<linearGradient id="paint4_linear_321_27443" x1="174.088" y1="262.971" x2="145.08" y2="359.124" gradientUnits="userSpaceOnUse">
<stop stop-color="#192B37"/>
<stop offset="1" stop-color="#68B5E8"/>
</linearGradient>
<linearGradient id="paint5_linear_321_27443" x1="260.97" y1="108.296" x2="95.9702" y2="291.296" gradientUnits="userSpaceOnUse">
<stop stop-color="#192B37"/>
<stop offset="1" stop-color="#68B5E8"/>
</linearGradient>
</defs>
</svg>
