<svg width="520" height="520" viewBox="0 0 520 520" fill="none" xmlns="http://www.w3.org/2000/svg">
<rect width="520" height="520" fill="#192B37"/>
<path d="M213.575 273.148L213.564 360.273L191.927 347.785L191.923 273.148H213.575Z" fill="url(#paint0_linear_321_28019)"/>
<path d="M213.585 273.138L213.574 360.284L224.286 354.136L224.294 273.155L213.585 273.138Z" fill="url(#paint1_linear_321_28019)"/>
<path d="M300.133 335.2L170.457 260.37C170.409 260.346 170.363 260.319 170.316 260.288L170.255 260.253V260.247C168.716 259.113 167.552 253.962 167.552 247.775C167.552 241.587 168.716 236.434 170.255 235.301V235.289L300.201 160.37L300.133 335.2Z" fill="url(#paint2_linear_321_28019)"/>
<mask id="mask0_321_28019" style="mask-type:luminance" maskUnits="userSpaceOnUse" x="259" y="159" width="94" height="177">
<path d="M306.109 335.852C331.701 335.852 352.448 296.423 352.448 247.785C352.448 199.146 331.701 159.717 306.109 159.717C280.517 159.717 259.771 199.146 259.771 247.785C259.771 296.423 280.517 335.852 306.109 335.852Z" fill="white"/>
</mask>
<g mask="url(#mask0_321_28019)">
<path d="M306.629 335.852C332.221 335.852 352.967 296.423 352.967 247.785C352.967 199.146 332.221 159.717 306.629 159.717C281.037 159.717 260.291 199.146 260.291 247.785C260.291 296.423 281.037 335.852 306.629 335.852Z" fill="url(#paint3_linear_321_28019)"/>
</g>
<defs>
<linearGradient id="paint0_linear_321_28019" x1="163.96" y1="361.895" x2="216.444" y2="283.533" gradientUnits="userSpaceOnUse">
<stop stop-color="#FF5640"/>
<stop offset="1" stop-color="#192B37"/>
</linearGradient>
<linearGradient id="paint1_linear_321_28019" x1="242.177" y1="368.874" x2="187.898" y2="314.499" gradientUnits="userSpaceOnUse">
<stop stop-color="#FF5640"/>
<stop offset="1" stop-color="#192B37"/>
</linearGradient>
<linearGradient id="paint2_linear_321_28019" x1="226.415" y1="195.408" x2="277.299" y2="317.785" gradientUnits="userSpaceOnUse">
<stop stop-color="#FF5640"/>
<stop offset="1" stop-color="#192B37"/>
</linearGradient>
<linearGradient id="paint3_linear_321_28019" x1="239.771" y1="204.285" x2="353.771" y2="360.285" gradientUnits="userSpaceOnUse">
<stop stop-color="#192B37"/>
<stop offset="1" stop-color="#FF5640"/>
</linearGradient>
</defs>
</svg>
