<svg width="520" height="520" viewBox="0 0 520 520" fill="none" xmlns="http://www.w3.org/2000/svg">
<rect width="520" height="520" fill="#192B37"/>
<path d="M259.991 265.605L130.101 190.637V340.605L259.991 415.543V265.605Z" fill="url(#paint0_linear_321_28016)"/>
<path d="M259.991 265.613L390.031 190.5L389.886 340.484L259.991 415.453V265.613Z" fill="url(#paint1_linear_321_28016)"/>
<path d="M260.094 115.5L129.969 190.438L259.998 265.609L389.844 190.562L260.094 115.5Z" fill="#FF5640"/>
<path d="M225.517 338.827C236.134 344.934 238.847 356.734 238.877 361.87C238.877 366.981 236.205 375.676 225.517 369.568C214.83 363.461 212.217 351.584 212.247 346.41C212.247 341.337 214.901 332.719 225.517 338.827Z" fill="#192B37"/>
<path d="M294.402 338.827C283.785 344.934 281.072 356.734 281.042 361.87C281.042 366.981 283.714 375.676 294.402 369.568C305.089 363.461 307.702 351.584 307.672 346.41C307.672 341.337 305.018 332.719 294.402 338.827Z" fill="#192B37"/>
<path d="M355.573 239.165C344.957 245.272 342.244 257.071 342.214 262.208C342.214 267.319 344.886 276.013 355.573 269.906C366.261 263.799 368.873 251.922 368.843 246.747C368.843 241.675 366.189 233.057 355.573 239.165Z" fill="#192B37"/>
<path d="M162.484 239.165C173.1 245.272 175.814 257.071 175.844 262.208C175.844 267.319 173.172 276.013 162.484 269.906C151.796 263.799 149.184 251.922 149.214 246.747C149.214 241.675 151.868 233.057 162.484 239.165Z" fill="#192B37"/>
<path d="M325.056 287.725C314.44 293.832 311.726 305.632 311.696 310.768C311.696 315.879 314.368 324.574 325.056 318.467C335.744 312.359 338.356 300.483 338.326 295.308C338.326 290.236 335.672 281.618 325.056 287.725Z" fill="#192B37"/>
<path d="M249.934 197.964C260.531 204.104 272.106 200.554 276.57 198.012C280.996 195.457 287.19 188.795 276.557 182.593C265.924 176.391 254.332 180.067 249.866 182.68C245.473 185.216 239.336 191.824 249.934 197.964Z" fill="#192B37"/>
<defs>
<linearGradient id="paint0_linear_321_28016" x1="298.5" y1="242.5" x2="130.014" y2="341.854" gradientUnits="userSpaceOnUse">
<stop offset="0.120243" stop-color="#FF5640"/>
<stop offset="1" stop-color="#192B37"/>
</linearGradient>
<linearGradient id="paint1_linear_321_28016" x1="259.991" y1="264.5" x2="398.542" y2="356.5" gradientUnits="userSpaceOnUse">
<stop stop-color="#FF5640"/>
<stop offset="1" stop-color="#192B37"/>
</linearGradient>
</defs>
</svg>
