<svg width="520" height="520" viewBox="0 0 520 520" fill="none" xmlns="http://www.w3.org/2000/svg">
<rect width="520" height="520" fill="#192B37"/>
<path d="M270.834 173.321V129.982H227.494C227.494 118.012 217.795 108.312 205.825 108.312C193.855 108.312 184.155 118.012 184.155 129.982H140.816V173.321C152.786 173.321 162.486 183.021 162.486 194.991C162.486 206.961 152.786 216.661 140.816 216.661V260H184.155C184.155 271.97 193.855 281.669 205.825 281.669C217.795 281.669 227.494 271.97 227.494 260H270.834V216.661C258.864 216.661 249.164 206.961 249.164 194.991C249.164 183.021 258.864 173.321 270.834 173.321Z" fill="url(#paint0_linear_321_27449)"/>
<path d="M270.834 303.339V260H314.173C314.173 248.03 323.873 238.33 335.843 238.33C347.813 238.33 357.512 248.03 357.512 260H400.852V303.339C388.882 303.339 379.182 313.039 379.182 325.009C379.182 336.978 388.882 346.678 400.852 346.678V390.017H357.512C357.512 401.987 347.813 411.687 335.843 411.687C323.873 411.687 314.173 401.987 314.173 390.017H270.834V346.678C282.804 346.678 292.504 336.978 292.504 325.009C292.504 313.039 282.804 303.339 270.834 303.339Z" fill="url(#paint1_linear_321_27449)"/>
<path d="M184.155 390.018H140.816V346.678C128.846 346.678 119.146 336.979 119.146 325.009C119.146 313.039 128.846 303.339 140.816 303.339V260H184.155C184.155 271.97 193.855 281.67 205.825 281.67C217.795 281.67 227.495 271.97 227.495 260H270.834V303.339C282.804 303.339 292.503 313.039 292.503 325.009C292.503 336.979 282.804 346.678 270.834 346.678V390.018H227.495C227.495 378.048 217.795 368.348 205.825 368.348C193.855 368.348 184.155 378.048 184.155 390.018Z" fill="#68B5E8"/>
<defs>
<linearGradient id="paint0_linear_321_27449" x1="205.825" y1="108.312" x2="205.825" y2="281.669" gradientUnits="userSpaceOnUse">
<stop stop-color="#68B5E8"/>
<stop offset="1" stop-color="#192B37"/>
</linearGradient>
<linearGradient id="paint1_linear_321_27449" x1="335.843" y1="238.33" x2="335.843" y2="411.687" gradientUnits="userSpaceOnUse">
<stop stop-color="#68B5E8"/>
<stop offset="1" stop-color="#192B37"/>
</linearGradient>
</defs>
</svg>
