<svg width="520" height="520" viewBox="0 0 520 520" fill="none" xmlns="http://www.w3.org/2000/svg">
<rect width="520" height="520" fill="#192B37"/>
<path d="M378.934 259.967L378.997 159.936L249.122 84.999L249.059 184.967L378.934 259.967Z" fill="#68B5E8"/>
<path opacity="0.6" d="M368.423 266.08L368.486 166.05L238.611 91.1122L238.549 191.081L368.423 266.08Z" fill="#417191"/>
<path opacity="0.6" d="M373.673 263.002L373.736 162.971L243.861 88.0341L243.799 188.003L373.673 263.002Z" fill="#417191"/>
<path d="M363.298 269.065L363.361 169.034L233.486 94.0966L233.424 194.065L363.298 269.065Z" fill="#417191"/>
<path d="M357.34 172.499L378.997 159.948L249.09 84.967L227.371 97.4983L357.34 172.499Z" fill="white"/>
<path d="M357.279 272.527L357.343 172.496L227.468 97.559L227.405 197.527L357.279 272.527Z" fill="url(#paint0_linear_321_28018)"/>
<path d="M357.375 297.592L357.439 197.561L227.564 122.624L227.501 222.592L357.375 297.592Z" fill="#68B5E8"/>
<path opacity="0.6" d="M346.864 303.705L346.928 203.675L217.053 128.737L216.99 228.706L346.864 303.705Z" fill="#417191"/>
<path opacity="0.6" d="M352.114 300.627L352.178 200.596L222.303 125.659L222.24 225.628L352.114 300.627Z" fill="#417191"/>
<path d="M341.739 306.69L341.803 206.659L211.928 131.722L211.865 231.69L341.739 306.69Z" fill="#417191"/>
<path d="M335.782 210.124L357.438 197.573L227.531 122.592L205.812 135.123L335.782 210.124Z" fill="white"/>
<path d="M335.721 310.152L335.784 210.121L205.909 135.184L205.846 235.152L335.721 310.152Z" fill="url(#paint1_linear_321_28018)"/>
<path d="M335.846 335.155L335.909 235.124L206.034 160.186L205.971 260.155L335.846 335.155Z" fill="#68B5E8"/>
<path opacity="0.6" d="M325.335 341.268L325.398 241.237L195.523 166.3L195.461 266.268L325.335 341.268Z" fill="#417191"/>
<path opacity="0.6" d="M330.585 338.19L330.648 238.159L200.773 163.222L200.711 263.19L330.585 338.19Z" fill="#417191"/>
<path d="M320.21 344.252L320.273 244.221L190.398 169.284L190.336 269.253L320.21 344.252Z" fill="#417191"/>
<path d="M314.252 247.686L335.909 235.135L206.002 160.155L184.283 172.686L314.252 247.686Z" fill="white"/>
<path d="M314.191 347.715L314.255 247.684L184.38 172.747L184.317 272.715L314.191 347.715Z" fill="url(#paint2_linear_321_28018)"/>
<path d="M314.167 372.485L314.231 272.454L184.356 197.517L184.293 297.485L314.167 372.485Z" fill="#68B5E8"/>
<path opacity="0.6" d="M303.656 378.598L303.72 278.567L173.845 203.63L173.782 303.598L303.656 378.598Z" fill="#417191"/>
<path opacity="0.6" d="M308.906 375.52L308.97 275.489L179.095 200.552L179.032 300.52L308.906 375.52Z" fill="#417191"/>
<path d="M298.531 381.582L298.595 281.551L168.72 206.614L168.657 306.583L298.531 381.582Z" fill="#417191"/>
<path d="M292.574 285.016L314.23 272.465L184.323 197.485L162.604 210.016L292.574 285.016Z" fill="white"/>
<path d="M292.513 385.045L292.576 285.014L162.701 210.077L162.638 310.045L292.513 385.045Z" fill="url(#paint3_linear_321_28018)"/>
<path d="M292.513 410.047L292.576 310.016L162.701 235.079L162.638 335.047L292.513 410.047Z" fill="#68B5E8"/>
<path opacity="0.6" d="M282.002 416.16L282.065 316.13L152.19 241.192L152.128 341.161L282.002 416.16Z" fill="#417191"/>
<path opacity="0.6" d="M287.252 413.082L287.315 313.051L157.44 238.114L157.378 338.083L287.252 413.082Z" fill="#417191"/>
<path d="M276.877 419.145L276.94 319.114L147.065 244.177L147.003 344.145L276.877 419.145Z" fill="#417191"/>
<path d="M270.919 322.579L292.576 310.028L162.669 235.047L140.95 247.578L270.919 322.579Z" fill="white"/>
<path d="M227.382 347.586L249.102 335.082L249.048 435.067L237.785 419.8L227.396 422.58L227.382 347.586Z" fill="#FF5640"/>
<path d="M270.858 422.607L270.922 322.576L141.047 247.639L140.984 347.608L270.858 422.607Z" fill="url(#paint4_linear_321_28018)"/>
<defs>
<linearGradient id="paint0_linear_321_28018" x1="378.945" y1="235.002" x2="205.823" y2="135.05" gradientUnits="userSpaceOnUse">
<stop stop-color="#68B5E8"/>
<stop offset="1" stop-color="#4C80A3"/>
</linearGradient>
<linearGradient id="paint1_linear_321_28018" x1="357.386" y1="272.627" x2="184.264" y2="172.675" gradientUnits="userSpaceOnUse">
<stop stop-color="#68B5E8"/>
<stop offset="1" stop-color="#4C80A3"/>
</linearGradient>
<linearGradient id="paint2_linear_321_28018" x1="335.857" y1="310.189" x2="162.735" y2="210.237" gradientUnits="userSpaceOnUse">
<stop stop-color="#68B5E8"/>
<stop offset="1" stop-color="#4C80A3"/>
</linearGradient>
<linearGradient id="paint3_linear_321_28018" x1="314.178" y1="347.519" x2="141.056" y2="247.567" gradientUnits="userSpaceOnUse">
<stop stop-color="#68B5E8"/>
<stop offset="1" stop-color="#4C80A3"/>
</linearGradient>
<linearGradient id="paint4_linear_321_28018" x1="292.524" y1="385.082" x2="119.402" y2="285.13" gradientUnits="userSpaceOnUse">
<stop stop-color="#68B5E8"/>
<stop offset="1" stop-color="#4C80A3"/>
</linearGradient>
</defs>
</svg>
