<svg width="520" height="520" viewBox="0 0 520 520" fill="none" xmlns="http://www.w3.org/2000/svg">
<rect width="520" height="520" fill="#192B37"/>
<path d="M345.692 217.998C370.145 217.998 390 237.372 390 261.422C390 285.472 370.165 305.002 345.712 305.002H302.994V217.998H345.692ZM326.244 281.751H346.13C357.513 281.751 366.747 272.659 366.747 261.463C366.747 250.267 357.504 241.249 346.121 241.249H326.244V281.751Z" fill="url(#paint0_linear_321_27442)"/>
<path d="M154.502 192.246V286.513C154.502 340.475 197.601 384.246 250.673 384.246C303.746 384.246 346.498 340.432 346.498 286.47V192.246H154.502Z" fill="url(#paint1_linear_321_27442)"/>
<ellipse cx="250.498" cy="192.25" rx="96" ry="42.25" fill="url(#paint2_linear_321_27442)"/>
<defs>
<linearGradient id="paint0_linear_321_27442" x1="359.498" y1="325.002" x2="390" y2="187.002" gradientUnits="userSpaceOnUse">
<stop offset="0.0963827" stop-color="#192B37"/>
<stop offset="1" stop-color="#68B5E8"/>
</linearGradient>
<linearGradient id="paint1_linear_321_27442" x1="346.498" y1="387.864" x2="154.888" y2="191.868" gradientUnits="userSpaceOnUse">
<stop stop-color="#192B37"/>
<stop offset="1" stop-color="#68B5E8"/>
</linearGradient>
<linearGradient id="paint2_linear_321_27442" x1="56.498" y1="158.25" x2="346.498" y2="197.25" gradientUnits="userSpaceOnUse">
<stop stop-color="#192B37"/>
<stop offset="1" stop-color="#68B5E8"/>
</linearGradient>
</defs>
</svg>
