<svg width="520" height="520" viewBox="0 0 520 520" fill="none" xmlns="http://www.w3.org/2000/svg">
<rect width="520" height="520" fill="#192B37"/>
<path d="M180 199.938C202.091 199.938 220 217.846 220 239.938C220 262.029 202.091 279.938 180 279.938C157.909 279.938 140 262.029 140 239.938C140 217.846 157.909 199.938 180 199.938ZM180 219.938C168.954 219.938 160 228.892 160 239.938C160 250.983 168.954 259.938 180 259.938C191.046 259.938 200 250.983 200 239.938C200 228.892 191.046 219.938 180 219.938Z" fill="url(#paint0_linear_321_27441)"/>
<path d="M179.996 160.062V258.059C179.996 314.308 224.785 359.938 279.998 359.938C335.211 359.938 380 314.308 380 258.059V160.062H179.996Z" fill="url(#paint1_linear_321_27441)"/>
<defs>
<linearGradient id="paint0_linear_321_27441" x1="189.5" y1="206.438" x2="180" y2="279.938" gradientUnits="userSpaceOnUse">
<stop stop-color="#68B5E8"/>
<stop offset="1" stop-color="#192B37"/>
</linearGradient>
<linearGradient id="paint1_linear_321_27441" x1="430" y1="329.937" x2="190" y2="160.062" gradientUnits="userSpaceOnUse">
<stop stop-color="#192B37"/>
<stop offset="1" stop-color="#68B5E8"/>
</linearGradient>
</defs>
</svg>
